STARTFONT 2.1
COMMENT "$Id: 9x15.bdf,v 1.83 2009-04-06 18:53:05+01 mgk25 Rel $"
COMMENT "Send bug reports to Markus Kuhn <http://www.cl.cam.ac.uk/~mgk25/>"
FONT -Misc-Fixed-Medium-R-Normal--15-140-75-75-C-90-ISO10646-1
SIZE 15 75 75
FONTBOUNDINGBOX 9 15 0 -3
STARTPROPERTIES 22
FONTNAME_REGISTRY ""
FOUNDRY "Misc"
FAMILY_NAME "Fixed"
WEIGHT_NAME "Medium"
SLANT "R"
SETWIDTH_NAME "Normal"
ADD_STYLE_NAME ""
PIXEL_SIZE 15
POINT_SIZE 140
RESOLUTION_X 75
RESOLUTION_Y 75
SPACING "C"
AVERAGE_WIDTH 90
CHARSET_REGISTRY "ISO10646"
CHARSET_ENCODING "1"
DEFAULT_CHAR 0
FONT_DESCENT 3
FONT_ASCENT 12
COPYRIGHT "Public domain font.  Share and enjoy."
CAP_HEIGHT 10
X_HEIGHT 7
_GBDFED_INFO "Edited with gbdfed 1.3."
ENDPROPERTIES
CHARS 4777
STARTCHAR char0
ENCODING 0
SWIDTH 576 0
DWIDTH 9 0
BBX 9 15 0 -3
BITMAP
0000
0000
6D00
0100
4000
4100
0100
4000
4100
0100
4000
5B00
0000
0000
0000
ENDCHAR
STARTCHAR space
ENCODING 32
SWIDTH 576 0
DWIDTH 9 0
BBX 9 15 0 -3
BITMAP
0000
0000
0000
0000
0000
0000
0000
0000
0000
0000
0000
0000
0000
0000
0000
ENDCHAR
STARTCHAR exclam
ENCODING 33
SWIDTH 576 0
DWIDTH 9 0
BBX 9 15 0 -3
BITMAP
0000
0800
0800
0800
0800
0800
0800
0800
0000
0000
0800
0800
0000
0000
0000
ENDCHAR
STARTCHAR quotedbl
ENCODING 34
SWIDTH 576 0
DWIDTH 9 0
BBX 9 15 0 -3
BITMAP
0000
0000
1200
1200
1200
0000
0000
0000
0000
0000
0000
0000
0000
0000
0000
ENDCHAR
STARTCHAR numbersign
ENCODING 35
SWIDTH 576 0
DWIDTH 9 0
BBX 9 15 0 -3
BITMAP
0000
0000
0000
2400
2400
7E00
2400
2400
7E00
2400
2400
0000
0000
0000
0000
ENDCHAR
STARTCHAR dollar
ENCODING 36
SWIDTH 576 0
DWIDTH 9 0
BBX 9 15 0 -3
BITMAP
0000
0000
0800
3E00
4900
4800
2800
1C00
0A00
0900
4900
3E00
0800
0000
0000
ENDCHAR
STARTCHAR percent
ENCODING 37
SWIDTH 576 0
DWIDTH 9 0
BBX 9 15 0 -3
BITMAP
0000
0000
2100
5200
5200
2400
0800
0800
1200
2500
2500
4200
0000
0000
0000
ENDCHAR
STARTCHAR ampersand
ENCODING 38
SWIDTH 576 0
DWIDTH 9 0
BBX 9 15 0 -3
BITMAP
0000
0000
3000
4800
4800
4800
3000
3100
4A00
4400
4A00
3100
0000
0000
0000
ENDCHAR
STARTCHAR quotesingle
ENCODING 39
SWIDTH 576 0
DWIDTH 9 0
BBX 9 15 0 -3
BITMAP
0000
0000
0800
0800
0800
0000
0000
0000
0000
0000
0000
0000
0000
0000
0000
ENDCHAR
STARTCHAR parenleft
ENCODING 40
SWIDTH 576 0
DWIDTH 9 0
BBX 9 15 0 -3
BITMAP
0000
0400
0800
0800
1000
1000
1000
1000
1000
1000
0800
0800
0400
0000
0000
ENDCHAR
STARTCHAR parenright
ENCODING 41
SWIDTH 576 0
DWIDTH 9 0
BBX 9 15 0 -3
BITMAP
0000
1000
0800
0800
0400
0400
0400
0400
0400
0400
0800
0800
1000
0000
0000
ENDCHAR
STARTCHAR asterisk
ENCODING 42
SWIDTH 576 0
DWIDTH 9 0
BBX 9 15 0 -3
BITMAP
0000
0000
0800
4900
2A00
1C00
2A00
4900
0800
0000
0000
0000
0000
0000
0000
ENDCHAR
STARTCHAR plus
ENCODING 43
SWIDTH 576 0
DWIDTH 9 0
BBX 9 15 0 -3
BITMAP
0000
0000
0000
0000
0800
0800
0800
7F00
0800
0800
0800
0000
0000
0000
0000
ENDCHAR
STARTCHAR comma
ENCODING 44
SWIDTH 576 0
DWIDTH 9 0
BBX 9 15 0 -3
BITMAP
0000
0000
0000
0000
0000
0000
0000
0000
0000
0000
0C00
0C00
0400
0400
0800
ENDCHAR
STARTCHAR hyphen
ENCODING 45
SWIDTH 576 0
DWIDTH 9 0
BBX 9 15 0 -3
BITMAP
0000
0000
0000
0000
0000
0000
0000
7F00
0000
0000
0000
0000
0000
0000
0000
ENDCHAR
STARTCHAR period
ENCODING 46
SWIDTH 576 0
DWIDTH 9 0
BBX 9 15 0 -3
BITMAP
0000
0000
0000
0000
0000
0000
0000
0000
0000
0000
0C00
0C00
0000
0000
0000
ENDCHAR
STARTCHAR slash
ENCODING 47
SWIDTH 576 0
DWIDTH 9 0
BBX 9 15 0 -3
BITMAP
0000
0000
0100
0200
0200
0400
0800
0800
1000
2000
2000
4000
0000
0000
0000
ENDCHAR
STARTCHAR zero
ENCODING 48
SWIDTH 576 0
DWIDTH 9 0
BBX 9 15 0 -3
BITMAP
0000
0000
1C00
2200
4100
4100
4100
4100
4100
4100
2200
1C00
0000
0000
0000
ENDCHAR
STARTCHAR one
ENCODING 49
SWIDTH 576 0
DWIDTH 9 0
BBX 9 15 0 -3
BITMAP
0000
0000
0800
1800
2800
4800
0800
0800
0800
0800
0800
7F00
0000
0000
0000
ENDCHAR
STARTCHAR two
ENCODING 50
SWIDTH 576 0
DWIDTH 9 0
BBX 9 15 0 -3
BITMAP
0000
0000
3E00
4100
4100
0200
0400
0800
1000
2000
4000
7F00
0000
0000
0000
ENDCHAR
STARTCHAR three
ENCODING 51
SWIDTH 576 0
DWIDTH 9 0
BBX 9 15 0 -3
BITMAP
0000
0000
7F00
0100
0200
0400
0E00
0100
0100
0100
4100
3E00
0000
0000
0000
ENDCHAR
STARTCHAR four
ENCODING 52
SWIDTH 576 0
DWIDTH 9 0
BBX 9 15 0 -3
BITMAP
0000
0000
0200
0600
0A00
1200
2200
4200
7F00
0200
0200
0200
0000
0000
0000
ENDCHAR
STARTCHAR five
ENCODING 53
SWIDTH 576 0
DWIDTH 9 0
BBX 9 15 0 -3
BITMAP
0000
0000
7F00
4000
4000
5E00
6100
0100
0100
0100
4100
3E00
0000
0000
0000
ENDCHAR
STARTCHAR six
ENCODING 54
SWIDTH 576 0
DWIDTH 9 0
BBX 9 15 0 -3
BITMAP
0000
0000
1E00
2000
4000
4000
5E00
6100
4100
4100
4100
3E00
0000
0000
0000
ENDCHAR
STARTCHAR seven
ENCODING 55
SWIDTH 576 0
DWIDTH 9 0
BBX 9 15 0 -3
BITMAP
0000
0000
7F00
0100
0200
0200
0400
0400
0800
0800
1000
1000
0000
0000
0000
ENDCHAR
STARTCHAR eight
ENCODING 56
SWIDTH 576 0
DWIDTH 9 0
BBX 9 15 0 -3
BITMAP
0000
0000
1C00
2200
4100
2200
1C00
2200
4100
4100
2200
1C00
0000
0000
0000
ENDCHAR
STARTCHAR nine
ENCODING 57
SWIDTH 576 0
DWIDTH 9 0
BBX 9 15 0 -3
BITMAP
0000
0000
3E00
4100
4100
4100
4300
3D00
0100
0100
0200
3C00
0000
0000
0000
ENDCHAR
STARTCHAR colon
ENCODING 58
SWIDTH 576 0
DWIDTH 9 0
BBX 9 15 0 -3
BITMAP
0000
0000
0000
0000
0000
0C00
0C00
0000
0000
0000
0C00
0C00
0000
0000
0000
ENDCHAR
STARTCHAR semicolon
ENCODING 59
SWIDTH 576 0
DWIDTH 9 0
BBX 9 15 0 -3
BITMAP
0000
0000
0000
0000
0000
0C00
0C00
0000
0000
0000
0C00
0C00
0400
0400
0800
ENDCHAR
STARTCHAR less
ENCODING 60
SWIDTH 576 0
DWIDTH 9 0
BBX 9 15 0 -3
BITMAP
0000
0000
0200
0400
0800
1000
2000
2000
1000
0800
0400
0200
0000
0000
0000
ENDCHAR
STARTCHAR equal
ENCODING 61
SWIDTH 576 0
DWIDTH 9 0
BBX 9 15 0 -3
BITMAP
0000
0000
0000
0000
0000
0000
7F00
0000
0000
7F00
0000
0000
0000
0000
0000
ENDCHAR
STARTCHAR greater
ENCODING 62
SWIDTH 576 0
DWIDTH 9 0
BBX 9 15 0 -3
BITMAP
0000
0000
2000
1000
0800
0400
0200
0200
0400
0800
1000
2000
0000
0000
0000
ENDCHAR
STARTCHAR question
ENCODING 63
SWIDTH 576 0
DWIDTH 9 0
BBX 9 15 0 -3
BITMAP
0000
0000
3E00
4100
4100
0100
0200
0400
0800
0800
0000
0800
0000
0000
0000
ENDCHAR
STARTCHAR at
ENCODING 64
SWIDTH 576 0
DWIDTH 9 0
BBX 9 15 0 -3
BITMAP
0000
0000
3E00
4100
4100
4F00
5100
5300
4D00
4000
4000
3E00
0000
0000
0000
ENDCHAR
STARTCHAR A
ENCODING 65
SWIDTH 576 0
DWIDTH 9 0
BBX 9 15 0 -3
BITMAP
0000
0000
0800
1400
2200
4100
4100
4100
7F00
4100
4100
4100
0000
0000
0000
ENDCHAR
STARTCHAR B
ENCODING 66
SWIDTH 576 0
DWIDTH 9 0
BBX 9 15 0 -3
BITMAP
0000
0000
7C00
4200
4100
4200
7C00
4200
4100
4100
4200
7C00
0000
0000
0000
ENDCHAR
STARTCHAR C
ENCODING 67
SWIDTH 576 0
DWIDTH 9 0
BBX 9 15 0 -3
BITMAP
0000
0000
3E00
4100
4000
4000
4000
4000
4000
4000
4100
3E00
0000
0000
0000
ENDCHAR
STARTCHAR D
ENCODING 68
SWIDTH 576 0
DWIDTH 9 0
BBX 9 15 0 -3
BITMAP
0000
0000
7C00
4200
4100
4100
4100
4100
4100
4100
4200
7C00
0000
0000
0000
ENDCHAR
STARTCHAR E
ENCODING 69
SWIDTH 576 0
DWIDTH 9 0
BBX 9 15 0 -3
BITMAP
0000
0000
7F00
4000
4000
4000
7C00
4000
4000
4000
4000
7F00
0000
0000
0000
ENDCHAR
STARTCHAR F
ENCODING 70
SWIDTH 576 0
DWIDTH 9 0
BBX 9 15 0 -3
BITMAP
0000
0000
7F00
4000
4000
4000
7C00
4000
4000
4000
4000
4000
0000
0000
0000
ENDCHAR
STARTCHAR G
ENCODING 71
SWIDTH 576 0
DWIDTH 9 0
BBX 9 15 0 -3
BITMAP
0000
0000
3E00
4100
4000
4000
4000
4700
4100
4100
4100
3E00
0000
0000
0000
ENDCHAR
STARTCHAR H
ENCODING 72
SWIDTH 576 0
DWIDTH 9 0
BBX 9 15 0 -3
BITMAP
0000
0000
4100
4100
4100
4100
7F00
4100
4100
4100
4100
4100
0000
0000
0000
ENDCHAR
STARTCHAR I
ENCODING 73
SWIDTH 576 0
DWIDTH 9 0
BBX 9 15 0 -3
BITMAP
0000
0000
3E00
0800
0800
0800
0800
0800
0800
0800
0800
3E00
0000
0000
0000
ENDCHAR
STARTCHAR J
ENCODING 74
SWIDTH 576 0
DWIDTH 9 0
BBX 9 15 0 -3
BITMAP
0000
0000
0F80
0200
0200
0200
0200
0200
0200
0200
4200
3C00
0000
0000
0000
ENDCHAR
STARTCHAR K
ENCODING 75
SWIDTH 576 0
DWIDTH 9 0
BBX 9 15 0 -3
BITMAP
0000
0000
4100
4200
4400
4800
7000
5000
4800
4400
4200
4100
0000
0000
0000
ENDCHAR
STARTCHAR L
ENCODING 76
SWIDTH 576 0
DWIDTH 9 0
BBX 9 15 0 -3
BITMAP
0000
0000
4000
4000
4000
4000
4000
4000
4000
4000
4000
7F00
0000
0000
0000
ENDCHAR
STARTCHAR M
ENCODING 77
SWIDTH 576 0
DWIDTH 9 0
BBX 9 15 0 -3
BITMAP
0000
0000
4100
4100
6300
5500
5500
4900
4900
4100
4100
4100
0000
0000
0000
ENDCHAR
STARTCHAR N
ENCODING 78
SWIDTH 576 0
DWIDTH 9 0
BBX 9 15 0 -3
BITMAP
0000
0000
4100
4100
6100
5100
4900
4500
4300
4100
4100
4100
0000
0000
0000
ENDCHAR
STARTCHAR O
ENCODING 79
SWIDTH 576 0
DWIDTH 9 0
BBX 9 15 0 -3
BITMAP
0000
0000
3E00
4100
4100
4100
4100
4100
4100
4100
4100
3E00
0000
0000
0000
ENDCHAR
STARTCHAR P
ENCODING 80
SWIDTH 576 0
DWIDTH 9 0
BBX 9 15 0 -3
BITMAP
0000
0000
7E00
4100
4100
4100
7E00
4000
4000
4000
4000
4000
0000
0000
0000
ENDCHAR
STARTCHAR Q
ENCODING 81
SWIDTH 576 0
DWIDTH 9 0
BBX 9 15 0 -3
BITMAP
0000
0000
3E00
4100
4100
4100
4100
4100
4100
5100
4900
3E00
0400
0300
0000
ENDCHAR
STARTCHAR R
ENCODING 82
SWIDTH 576 0
DWIDTH 9 0
BBX 9 15 0 -3
BITMAP
0000
0000
7E00
4100
4100
4100
7E00
4800
4400
4200
4100
4100
0000
0000
0000
ENDCHAR
STARTCHAR S
ENCODING 83
SWIDTH 576 0
DWIDTH 9 0
BBX 9 15 0 -3
BITMAP
0000
0000
3E00
4100
4100
4000
3800
0600
0100
4100
4100
3E00
0000
0000
0000
ENDCHAR
STARTCHAR T
ENCODING 84
SWIDTH 576 0
DWIDTH 9 0
BBX 9 15 0 -3
BITMAP
0000
0000
7F00
0800
0800
0800
0800
0800
0800
0800
0800
0800
0000
0000
0000
ENDCHAR
STARTCHAR U
ENCODING 85
SWIDTH 576 0
DWIDTH 9 0
BBX 9 15 0 -3
BITMAP
0000
0000
4100
4100
4100
4100
4100
4100
4100
4100
4100
3E00
0000
0000
0000
ENDCHAR
STARTCHAR V
ENCODING 86
SWIDTH 576 0
DWIDTH 9 0
BBX 9 15 0 -3
BITMAP
0000
0000
4100
4100
4100
2200
2200
2200
1400
1400
1400
0800
0000
0000
0000
ENDCHAR
STARTCHAR W
ENCODING 87
SWIDTH 576 0
DWIDTH 9 0
BBX 9 15 0 -3
BITMAP
0000
0000
4100
4100
4100
4100
4900
4900
4900
4900
5500
2200
0000
0000
0000
ENDCHAR
STARTCHAR X
ENCODING 88
SWIDTH 576 0
DWIDTH 9 0
BBX 9 15 0 -3
BITMAP
0000
0000
4100
4100
2200
1400
0800
0800
1400
2200
4100
4100
0000
0000
0000
ENDCHAR
STARTCHAR Y
ENCODING 89
SWIDTH 576 0
DWIDTH 9 0
BBX 9 15 0 -3
BITMAP
0000
0000
4100
4100
2200
1400
0800
0800
0800
0800
0800
0800
0000
0000
0000
ENDCHAR
STARTCHAR Z
ENCODING 90
SWIDTH 576 0
DWIDTH 9 0
BBX 9 15 0 -3
BITMAP
0000
0000
7F00
0100
0200
0400
0800
1000
2000
4000
4000
7F00
0000
0000
0000
ENDCHAR
STARTCHAR bracketleft
ENCODING 91
SWIDTH 576 0
DWIDTH 9 0
BBX 9 15 0 -3
BITMAP
0000
1E00
1000
1000
1000
1000
1000
1000
1000
1000
1000
1000
1E00
0000
0000
ENDCHAR
STARTCHAR backslash
ENCODING 92
SWIDTH 576 0
DWIDTH 9 0
BBX 9 15 0 -3
BITMAP
0000
0000
4000
2000
2000
1000
0800
0800
0400
0200
0200
0100
0000
0000
0000
ENDCHAR
STARTCHAR bracketright
ENCODING 93
SWIDTH 576 0
DWIDTH 9 0
BBX 9 15 0 -3
BITMAP
0000
3C00
0400
0400
0400
0400
0400
0400
0400
0400
0400
0400
3C00
0000
0000
ENDCHAR
STARTCHAR asciicircum
ENCODING 94
SWIDTH 576 0
DWIDTH 9 0
BBX 9 15 0 -3
BITMAP
0000
0000
0800
1400
2200
4100
0000
0000
0000
0000
0000
0000
0000
0000
0000
ENDCHAR
STARTCHAR underscore
ENCODING 95
SWIDTH 576 0
DWIDTH 9 0
BBX 9 15 0 -3
BITMAP
0000
0000
0000
0000
0000
0000
0000
0000
0000
0000
0000
0000
FF00
0000
0000
ENDCHAR
STARTCHAR grave
ENCODING 96
SWIDTH 576 0
DWIDTH 9 0
BBX 9 15 0 -3
BITMAP
0000
1000
0800
0400
0000
0000
0000
0000
0000
0000
0000
0000
0000
0000
0000
ENDCHAR
STARTCHAR a
ENCODING 97
SWIDTH 576 0
DWIDTH 9 0
BBX 9 15 0 -3
BITMAP
0000
0000
0000
0000
0000
3E00
0100
0100
3F00
4100
4300
3D00
0000
0000
0000
ENDCHAR
STARTCHAR b
ENCODING 98
SWIDTH 576 0
DWIDTH 9 0
BBX 9 15 0 -3
BITMAP
0000
0000
4000
4000
4000
5E00
6100
4100
4100
4100
6100
5E00
0000
0000
0000
ENDCHAR
STARTCHAR c
ENCODING 99
SWIDTH 576 0
DWIDTH 9 0
BBX 9 15 0 -3
BITMAP
0000
0000
0000
0000
0000
3E00
4100
4000
4000
4000
4100
3E00
0000
0000
0000
ENDCHAR
STARTCHAR d
ENCODING 100
SWIDTH 576 0
DWIDTH 9 0
BBX 9 15 0 -3
BITMAP
0000
0000
0100
0100
0100
3D00
4300
4100
4100
4100
4300
3D00
0000
0000
0000
ENDCHAR
STARTCHAR e
ENCODING 101
SWIDTH 576 0
DWIDTH 9 0
BBX 9 15 0 -3
BITMAP
0000
0000
0000
0000
0000
3E00
4100
4100
7F00
4000
4000
3E00
0000
0000
0000
ENDCHAR
STARTCHAR f
ENCODING 102
SWIDTH 576 0
DWIDTH 9 0
BBX 9 15 0 -3
BITMAP
0000
0000
0E00
1100
1100
1000
1000
7C00
1000
1000
1000
1000
0000
0000
0000
ENDCHAR
STARTCHAR g
ENCODING 103
SWIDTH 576 0
DWIDTH 9 0
BBX 9 15 0 -3
BITMAP
0000
0000
0000
0000
0000
3D00
4200
4200
4200
3C00
4000
3E00
4100
4100
3E00
ENDCHAR
STARTCHAR h
ENCODING 104
SWIDTH 576 0
DWIDTH 9 0
BBX 9 15 0 -3
BITMAP
0000
0000
4000
4000
4000
5E00
6100
4100
4100
4100
4100
4100
0000
0000
0000
ENDCHAR
STARTCHAR i
ENCODING 105
SWIDTH 576 0
DWIDTH 9 0
BBX 9 15 0 -3
BITMAP
0000
0000
1800
0000
0000
3800
0800
0800
0800
0800
0800
3E00
0000
0000
0000
ENDCHAR
STARTCHAR j
ENCODING 106
SWIDTH 576 0
DWIDTH 9 0
BBX 9 15 0 -3
BITMAP
0000
0000
0600
0000
0000
0E00
0200
0200
0200
0200
0200
4200
4200
4200
3C00
ENDCHAR
STARTCHAR k
ENCODING 107
SWIDTH 576 0
DWIDTH 9 0
BBX 9 15 0 -3
BITMAP
0000
0000
4000
4000
4000
4100
4600
5800
6000
5800
4600
4100
0000
0000
0000
ENDCHAR
STARTCHAR l
ENCODING 108
SWIDTH 576 0
DWIDTH 9 0
BBX 9 15 0 -3
BITMAP
0000
0000
3800
0800
0800
0800
0800
0800
0800
0800
0800
3E00
0000
0000
0000
ENDCHAR
STARTCHAR m
ENCODING 109
SWIDTH 576 0
DWIDTH 9 0
BBX 9 15 0 -3
BITMAP
0000
0000
0000
0000
0000
7600
4900
4900
4900
4900
4900
4100
0000
0000
0000
ENDCHAR
STARTCHAR n
ENCODING 110
SWIDTH 576 0
DWIDTH 9 0
BBX 9 15 0 -3
BITMAP
0000
0000
0000
0000
0000
5E00
6100
4100
4100
4100
4100
4100
0000
0000
0000
ENDCHAR
STARTCHAR o
ENCODING 111
SWIDTH 576 0
DWIDTH 9 0
BBX 9 15 0 -3
BITMAP
0000
0000
0000
0000
0000
3E00
4100
4100
4100
4100
4100
3E00
0000
0000
0000
ENDCHAR
STARTCHAR p
ENCODING 112
SWIDTH 576 0
DWIDTH 9 0
BBX 9 15 0 -3
BITMAP
0000
0000
0000
0000
0000
5E00
6100
4100
4100
4100
6100
5E00
4000
4000
4000
ENDCHAR
STARTCHAR q
ENCODING 113
SWIDTH 576 0
DWIDTH 9 0
BBX 9 15 0 -3
BITMAP
0000
0000
0000
0000
0000
3D00
4300
4100
4100
4100
4300
3D00
0100
0100
0100
ENDCHAR
STARTCHAR r
ENCODING 114
SWIDTH 576 0
DWIDTH 9 0
BBX 9 15 0 -3
BITMAP
0000
0000
0000
0000
0000
4E00
3100
2100
2000
2000
2000
2000
0000
0000
0000
ENDCHAR
STARTCHAR s
ENCODING 115
SWIDTH 576 0
DWIDTH 9 0
BBX 9 15 0 -3
BITMAP
0000
0000
0000
0000
0000
3E00
4100
4000
3E00
0100
4100
3E00
0000
0000
0000
ENDCHAR
STARTCHAR t
ENCODING 116
SWIDTH 576 0
DWIDTH 9 0
BBX 9 15 0 -3
BITMAP
0000
0000
0000
1000
1000
7E00
1000
1000
1000
1000
1100
0E00
0000
0000
0000
ENDCHAR
STARTCHAR u
ENCODING 117
SWIDTH 576 0
DWIDTH 9 0
BBX 9 15 0 -3
BITMAP
0000
0000
0000
0000
0000
4200
4200
4200
4200
4200
4200
3D00
0000
0000
0000
ENDCHAR
STARTCHAR v
ENCODING 118
SWIDTH 576 0
DWIDTH 9 0
BBX 9 15 0 -3
BITMAP
0000
0000
0000
0000
0000
4100
4100
2200
2200
1400
1400
0800
0000
0000
0000
ENDCHAR
STARTCHAR w
ENCODING 119
SWIDTH 576 0
DWIDTH 9 0
BBX 9 15 0 -3
BITMAP
0000
0000
0000
0000
0000
4100
4100
4900
4900
4900
5500
2200
0000
0000
0000
ENDCHAR
STARTCHAR x
ENCODING 120
SWIDTH 576 0
DWIDTH 9 0
BBX 9 15 0 -3
BITMAP
0000
0000
0000
0000
0000
4100
2200
1400
0800
1400
2200
4100
0000
0000
0000
ENDCHAR
STARTCHAR y
ENCODING 121
SWIDTH 576 0
DWIDTH 9 0
BBX 9 15 0 -3
BITMAP
0000
0000
0000
0000
0000
4200
4200
4200
4200
4200
4600
3A00
0200
4200
3C00
ENDCHAR
STARTCHAR z
ENCODING 122
SWIDTH 576 0
DWIDTH 9 0
BBX 9 15 0 -3
BITMAP
0000
0000
0000
0000
0000
7F00
0200
0400
0800
1000
2000
7F00
0000
0000
0000
ENDCHAR
STARTCHAR braceleft
ENCODING 123
SWIDTH 576 0
DWIDTH 9 0
BBX 9 15 0 -3
BITMAP
0000
0700
0800
0800
0800
0400
1800
1800
0400
0800
0800
0800
0700
0000
0000
ENDCHAR
STARTCHAR bar
ENCODING 124
SWIDTH 576 0
DWIDTH 9 0
BBX 9 15 0 -3
BITMAP
0000
0800
0800
0800
0800
0800
0800
0800
0800
0800
0800
0800
0800
0000
0000
ENDCHAR
STARTCHAR braceright
ENCODING 125
SWIDTH 576 0
DWIDTH 9 0
BBX 9 15 0 -3
BITMAP
0000
7000
0800
0800
0800
1000
0C00
0C00
1000
0800
0800
0800
7000
0000
0000
ENDCHAR
STARTCHAR asciitilde
ENCODING 126
SWIDTH 576 0
DWIDTH 9 0
BBX 9 15 0 -3
BITMAP
0000
0000
3100
4900
4600
0000
0000
0000
0000
0000
0000
0000
0000
0000
0000
ENDCHAR
STARTCHAR space
ENCODING 160
SWIDTH 576 0
DWIDTH 9 0
BBX 9 15 0 -3
BITMAP
0000
0000
0000
0000
0000
0000
0000
0000
0000
0000
0000
0000
0000
0000
0000
ENDCHAR
STARTCHAR exclamdown
ENCODING 161
SWIDTH 576 0
DWIDTH 9 0
BBX 9 15 0 -3
BITMAP
0000
0800
0800
0000
0000
0800
0800
0800
0800
0800
0800
0800
0000
0000
0000
ENDCHAR
STARTCHAR cent
ENCODING 162
SWIDTH 576 0
DWIDTH 9 0
BBX 9 15 0 -3
BITMAP
0000
0000
0000
0000
0400
3C00
4A00
4800
5000
5200
3C00
2000
0000
0000
0000
ENDCHAR
STARTCHAR sterling
ENCODING 163
SWIDTH 576 0
DWIDTH 9 0
BBX 9 15 0 -3
BITMAP
0000
0000
0E00
1100
1000
1000
7C00
1000
1000
3000
5100
2E00
0000
0000
0000
ENDCHAR
STARTCHAR currency
ENCODING 164
SWIDTH 576 0
DWIDTH 9 0
BBX 9 15 0 -3
BITMAP
0000
0000
0000
4100
3E00
2200
2200
3E00
4100
0000
0000
0000
0000
0000
0000
ENDCHAR
STARTCHAR yen
ENCODING 165
SWIDTH 576 0
DWIDTH 9 0
BBX 9 15 0 -3
BITMAP
0000
0000
4100
4100
2200
1400
3E00
0800
3E00
0800
0800
0800
0000
0000
0000
ENDCHAR
STARTCHAR brokenbar
ENCODING 166
SWIDTH 576 0
DWIDTH 9 0
BBX 9 15 0 -3
BITMAP
0000
0000
0800
0800
0800
0800
0800
0000
0800
0800
0800
0800
0800
0000
0000
ENDCHAR
STARTCHAR section
ENCODING 167
SWIDTH 576 0
DWIDTH 9 0
BBX 9 15 0 -3
BITMAP
0000
0000
1800
2400
2000
1800
2400
2400
2400
1800
0400
2400
1800
0000
0000
ENDCHAR
STARTCHAR dieresis
ENCODING 168
SWIDTH 576 0
DWIDTH 9 0
BBX 9 15 0 -3
BITMAP
0000
2200
2200
0000
0000
0000
0000
0000
0000
0000
0000
0000
0000
0000
0000
ENDCHAR
STARTCHAR copyright
ENCODING 169
SWIDTH 576 0
DWIDTH 9 0
BBX 9 15 0 -3
BITMAP
0000
0000
3C00
4200
9900
A500
A100
A500
9900
4200
3C00
0000
0000
0000
0000
ENDCHAR
STARTCHAR ordfeminine
ENCODING 170
SWIDTH 576 0
DWIDTH 9 0
BBX 9 15 0 -3
BITMAP
0000
0000
3000
4800
3800
4800
3C00
0000
7C00
0000
0000
0000
0000
0000
0000
ENDCHAR
STARTCHAR guillemotleft
ENCODING 171
SWIDTH 576 0
DWIDTH 9 0
BBX 9 15 0 -3
BITMAP
0000
0000
0000
0900
1200
2400
4800
4800
2400
1200
0900
0000
0000
0000
0000
ENDCHAR
STARTCHAR logicalnot
ENCODING 172
SWIDTH 576 0
DWIDTH 9 0
BBX 9 15 0 -3
BITMAP
0000
0000
0000
0000
0000
0000
7E00
0200
0200
0200
0000
0000
0000
0000
0000
ENDCHAR
STARTCHAR hyphen
ENCODING 173
SWIDTH 576 0
DWIDTH 9 0
BBX 9 15 0 -3
BITMAP
0000
0000
0000
0000
0000
0000
0000
3E00
0000
0000
0000
0000
0000
0000
0000
ENDCHAR
STARTCHAR registered
ENCODING 174
SWIDTH 576 0
DWIDTH 9 0
BBX 9 15 0 -3
BITMAP
0000
0000
3C00
4200
B900
A500
B900
A900
A500
4200
3C00
0000
0000
0000
0000
ENDCHAR
STARTCHAR macron
ENCODING 175
SWIDTH 576 0
DWIDTH 9 0
BBX 9 15 0 -3
BITMAP
0000
0000
7E00
0000
0000
0000
0000
0000
0000
0000
0000
0000
0000
0000
0000
ENDCHAR
STARTCHAR degree
ENCODING 176
SWIDTH 576 0
DWIDTH 9 0
BBX 9 15 0 -3
BITMAP
0000
0000
0C00
1200
1200
0C00
0000
0000
0000
0000
0000
0000
0000
0000
0000
ENDCHAR
STARTCHAR plusminus
ENCODING 177
SWIDTH 576 0
DWIDTH 9 0
BBX 9 15 0 -3
BITMAP
0000
0000
0800
0800
0800
7F00
0800
0800
0800
0000
7F00
0000
0000
0000
0000
ENDCHAR
STARTCHAR twosuperior
ENCODING 178
SWIDTH 576 0
DWIDTH 9 0
BBX 9 15 0 -3
BITMAP
0000
0000
3000
4800
0800
3000
4000
7800
0000
0000
0000
0000
0000
0000
0000
ENDCHAR
STARTCHAR threesuperior
ENCODING 179
SWIDTH 576 0
DWIDTH 9 0
BBX 9 15 0 -3
BITMAP
0000
0000
3000
4800
1000
0800
4800
3000
0000
0000
0000
0000
0000
0000
0000
ENDCHAR
STARTCHAR acute
ENCODING 180
SWIDTH 576 0
DWIDTH 9 0
BBX 9 15 0 -3
BITMAP
0000
0400
0800
1000
0000
0000
0000
0000
0000
0000
0000
0000
0000
0000
0000
ENDCHAR
STARTCHAR mu
ENCODING 181
SWIDTH 576 0
DWIDTH 9 0
BBX 9 15 0 -3
BITMAP
0000
0000
0000
0000
0000
4100
4100
4100
4100
4100
6300
5D00
4000
4000
0000
ENDCHAR
STARTCHAR paragraph
ENCODING 182
SWIDTH 576 0
DWIDTH 9 0
BBX 9 15 0 -3
BITMAP
0000
0000
3F00
4500
4500
4500
3D00
0500
0500
0500
0500
0500
0000
0000
0000
ENDCHAR
STARTCHAR periodcentered
ENCODING 183
SWIDTH 576 0
DWIDTH 9 0
BBX 9 15 0 -3
BITMAP
0000
0000
0000
0000
0000
0000
0C00
0C00
0000
0000
0000
0000
0000
0000
0000
ENDCHAR
STARTCHAR cedilla
ENCODING 184
SWIDTH 576 0
DWIDTH 9 0
BBX 9 15 0 -3
BITMAP
0000
0000
0000
0000
0000
0000
0000
0000
0000
0000
0000
0000
0C00
2400
1800
ENDCHAR
STARTCHAR onesuperior
ENCODING 185
SWIDTH 576 0
DWIDTH 9 0
BBX 9 15 0 -3
BITMAP
0000
0000
2000
6000
2000
2000
2000
7000
0000
0000
0000
0000
0000
0000
0000
ENDCHAR
STARTCHAR ordmasculine
ENCODING 186
SWIDTH 576 0
DWIDTH 9 0
BBX 9 15 0 -3
BITMAP
0000
0000
3800
4400
4400
3800
0000
7C00
0000
0000
0000
0000
0000
0000
0000
ENDCHAR
STARTCHAR guillemotright
ENCODING 187
SWIDTH 576 0
DWIDTH 9 0
BBX 9 15 0 -3
BITMAP
0000
0000
0000
4800
2400
1200
0900
0900
1200
2400
4800
0000
0000
0000
0000
ENDCHAR
STARTCHAR onequarter
ENCODING 188
SWIDTH 576 0
DWIDTH 9 0
BBX 9 15 0 -3
BITMAP
0000
0000
2000
6000
2000
2000
2100
7300
0500
0900
0D00
0300
0000
0000
0000
ENDCHAR
STARTCHAR onehalf
ENCODING 189
SWIDTH 576 0
DWIDTH 9 0
BBX 9 15 0 -3
BITMAP
0000
0000
2000
6000
2000
2000
2600
7900
0100
0600
0800
0F00
0000
0000
0000
ENDCHAR
STARTCHAR threequarters
ENCODING 190
SWIDTH 576 0
DWIDTH 9 0
BBX 9 15 0 -3
BITMAP
0000
0000
3000
4800
1000
0800
4900
3300
0500
0900
0D00
0300
0000
0000
0000
ENDCHAR
STARTCHAR questiondown
ENCODING 191
SWIDTH 576 0
DWIDTH 9 0
BBX 9 15 0 -3
BITMAP
0000
0000
0800
0000
0800
0800
1000
2000
4000
4100
4100
3E00
0000
0000
0000
ENDCHAR
STARTCHAR Agrave
ENCODING 192
SWIDTH 576 0
DWIDTH 9 0
BBX 9 15 0 -3
BITMAP
2000
1000
0800
0000
1C00
2200
4100
4100
7F00
4100
4100
4100
0000
0000
0000
ENDCHAR
STARTCHAR Aacute
ENCODING 193
SWIDTH 576 0
DWIDTH 9 0
BBX 9 15 0 -3
BITMAP
0200
0400
0800
0000
1C00
2200
4100
4100
7F00
4100
4100
4100
0000
0000
0000
ENDCHAR
STARTCHAR Acircumflex
ENCODING 194
SWIDTH 576 0
DWIDTH 9 0
BBX 9 15 0 -3
BITMAP
0800
1400
2200
0000
1C00
2200
4100
4100
7F00
4100
4100
4100
0000
0000
0000
ENDCHAR
STARTCHAR Atilde
ENCODING 195
SWIDTH 576 0
DWIDTH 9 0
BBX 9 15 0 -3
BITMAP
0000
3100
4E00
0000
1C00
2200
4100
4100
7F00
4100
4100
4100
0000
0000
0000
ENDCHAR
STARTCHAR Adieresis
ENCODING 196
SWIDTH 576 0
DWIDTH 9 0
BBX 9 15 0 -3
BITMAP
0000
2200
2200
0000
1C00
2200
4100
4100
7F00
4100
4100
4100
0000
0000
0000
ENDCHAR
STARTCHAR Aring
ENCODING 197
SWIDTH 576 0
DWIDTH 9 0
BBX 9 15 0 -3
BITMAP
0000
1C00
2200
1C00
1400
2200
4100
4100
7F00
4100
4100
4100
0000
0000
0000
ENDCHAR
STARTCHAR AE
ENCODING 198
SWIDTH 576 0
DWIDTH 9 0
BBX 9 15 0 -3
BITMAP
0000
0000
3700
4800
4800
4800
4800
7E00
4800
4800
4800
4F00
0000
0000
0000
ENDCHAR
STARTCHAR Ccedilla
ENCODING 199
SWIDTH 576 0
DWIDTH 9 0
BBX 9 15 0 -3
BITMAP
0000
0000
3E00
4100
4000
4000
4000
4000
4000
4000
4100
3E00
0C00
2400
1800
ENDCHAR
STARTCHAR Egrave
ENCODING 200
SWIDTH 576 0
DWIDTH 9 0
BBX 9 15 0 -3
BITMAP
2000
1000
0800
0000
7F00
2000
2000
3C00
2000
2000
2000
7F00
0000
0000
0000
ENDCHAR
STARTCHAR Eacute
ENCODING 201
SWIDTH 576 0
DWIDTH 9 0
BBX 9 15 0 -3
BITMAP
0200
0400
0800
0000
7F00
2000
2000
3C00
2000
2000
2000
7F00
0000
0000
0000
ENDCHAR
STARTCHAR Ecircumflex
ENCODING 202
SWIDTH 576 0
DWIDTH 9 0
BBX 9 15 0 -3
BITMAP
0800
1400
2200
0000
7F00
2000
2000
3C00
2000
2000
2000
7F00
0000
0000
0000
ENDCHAR
STARTCHAR Edieresis
ENCODING 203
SWIDTH 576 0
DWIDTH 9 0
BBX 9 15 0 -3
BITMAP
0000
2200
2200
0000
7F00
2000
2000
3C00
2000
2000
2000
7F00
0000
0000
0000
ENDCHAR
STARTCHAR Igrave
ENCODING 204
SWIDTH 576 0
DWIDTH 9 0
BBX 9 15 0 -3
BITMAP
2000
1000
0800
0000
3E00
0800
0800
0800
0800
0800
0800
3E00
0000
0000
0000
ENDCHAR
STARTCHAR Iacute
ENCODING 205
SWIDTH 576 0
DWIDTH 9 0
BBX 9 15 0 -3
BITMAP
0200
0400
0800
0000
3E00
0800
0800
0800
0800
0800
0800
3E00
0000
0000
0000
ENDCHAR
STARTCHAR Icircumflex
ENCODING 206
SWIDTH 576 0
DWIDTH 9 0
BBX 9 15 0 -3
BITMAP
0800
1400
2200
0000
3E00
0800
0800
0800
0800
0800
0800
3E00
0000
0000
0000
ENDCHAR
STARTCHAR Idieresis
ENCODING 207
SWIDTH 576 0
DWIDTH 9 0
BBX 9 15 0 -3
BITMAP
0000
2200
2200
0000
3E00
0800
0800
0800
0800
0800
0800
3E00
0000
0000
0000
ENDCHAR
STARTCHAR Eth
ENCODING 208
SWIDTH 576 0
DWIDTH 9 0
BBX 9 15 0 -3
BITMAP
0000
0000
7C00
4200
4100
4100
E100
4100
4100
4100
4200
7C00
0000
0000
0000
ENDCHAR
STARTCHAR Ntilde
ENCODING 209
SWIDTH 576 0
DWIDTH 9 0
BBX 9 15 0 -3
BITMAP
0000
3100
4E00
0000
4100
6100
5100
4900
4900
4500
4300
4100
0000
0000
0000
ENDCHAR
STARTCHAR Ograve
ENCODING 210
SWIDTH 576 0
DWIDTH 9 0
BBX 9 15 0 -3
BITMAP
2000
1000
0800
0000
3E00
4100
4100
4100
4100
4100
4100
3E00
0000
0000
0000
ENDCHAR
STARTCHAR Oacute
ENCODING 211
SWIDTH 576 0
DWIDTH 9 0
BBX 9 15 0 -3
BITMAP
0200
0400
0800
0000
3E00
4100
4100
4100
4100
4100
4100
3E00
0000
0000
0000
ENDCHAR
STARTCHAR Ocircumflex
ENCODING 212
SWIDTH 576 0
DWIDTH 9 0
BBX 9 15 0 -3
BITMAP
0800
1400
2200
0000
3E00
4100
4100
4100
4100
4100
4100
3E00
0000
0000
0000
ENDCHAR
STARTCHAR Otilde
ENCODING 213
SWIDTH 576 0
DWIDTH 9 0
BBX 9 15 0 -3
BITMAP
0000
3100
4E00
0000
3E00
4100
4100
4100
4100
4100
4100
3E00
0000
0000
0000
ENDCHAR
STARTCHAR Odieresis
ENCODING 214
SWIDTH 576 0
DWIDTH 9 0
BBX 9 15 0 -3
BITMAP
0000
2200
2200
0000
3E00
4100
4100
4100
4100
4100
4100
3E00
0000
0000
0000
ENDCHAR
STARTCHAR multiply
ENCODING 215
SWIDTH 576 0
DWIDTH 9 0
BBX 9 15 0 -3
BITMAP
0000
0000
0000
0000
4100
2200
1400
0800
1400
2200
4100
0000
0000
0000
0000
ENDCHAR
STARTCHAR Oslash
ENCODING 216
SWIDTH 576 0
DWIDTH 9 0
BBX 9 15 0 -3
BITMAP
0000
0100
3E00
4300
4500
4500
4900
4900
5100
5100
6100
3E00
4000
0000
0000
ENDCHAR
STARTCHAR Ugrave
ENCODING 217
SWIDTH 576 0
DWIDTH 9 0
BBX 9 15 0 -3
BITMAP
2000
1000
0800
0000
4100
4100
4100
4100
4100
4100
4100
3E00
0000
0000
0000
ENDCHAR
STARTCHAR Uacute
ENCODING 218
SWIDTH 576 0
DWIDTH 9 0
BBX 9 15 0 -3
BITMAP
0200
0400
0800
0000
4100
4100
4100
4100
4100
4100
4100
3E00
0000
0000
0000
ENDCHAR
STARTCHAR Ucircumflex
ENCODING 219
SWIDTH 576 0
DWIDTH 9 0
BBX 9 15 0 -3
BITMAP
0800
1400
2200
0000
4100
4100
4100
4100
4100
4100
4100
3E00
0000
0000
0000
ENDCHAR
STARTCHAR Udieresis
ENCODING 220
SWIDTH 576 0
DWIDTH 9 0
BBX 9 15 0 -3
BITMAP
0000
2200
2200
0000
4100
4100
4100
4100
4100
4100
4100
3E00
0000
0000
0000
ENDCHAR
STARTCHAR Yacute
ENCODING 221
SWIDTH 576 0
DWIDTH 9 0
BBX 9 15 0 -3
BITMAP
0200
0400
0800
0000
4100
4100
2200
1400
0800
0800
0800
0800
0000
0000
0000
ENDCHAR
STARTCHAR Thorn
ENCODING 222
SWIDTH 576 0
DWIDTH 9 0
BBX 9 15 0 -3
BITMAP
0000
0000
4000
4000
7E00
4100
4100
4100
7E00
4000
4000
4000
0000
0000
0000
ENDCHAR
STARTCHAR germandbls
ENCODING 223
SWIDTH 576 0
DWIDTH 9 0
BBX 9 15 0 -3
BITMAP
0000
0000
1C00
2200
2200
2400
6800
2400
2200
2200
2200
2C00
0000
0000
0000
ENDCHAR
STARTCHAR agrave
ENCODING 224
SWIDTH 576 0
DWIDTH 9 0
BBX 9 15 0 -3
BITMAP
0000
1000
0800
0400
0000
3E00
0100
0100
3F00
4100
4300
3D00
0000
0000
0000
ENDCHAR
STARTCHAR aacute
ENCODING 225
SWIDTH 576 0
DWIDTH 9 0
BBX 9 15 0 -3
BITMAP
0000
0200
0400
0800
0000
3E00
0100
0100
3F00
4100
4300
3D00
0000
0000
0000
ENDCHAR
STARTCHAR acircumflex
ENCODING 226
SWIDTH 576 0
DWIDTH 9 0
BBX 9 15 0 -3
BITMAP
0000
0800
1400
2200
0000
3E00
0100
0100
3F00
4100
4300
3D00
0000
0000
0000
ENDCHAR
STARTCHAR atilde
ENCODING 227
SWIDTH 576 0
DWIDTH 9 0
BBX 9 15 0 -3
BITMAP
0000
0000
1900
2600
0000
3E00
0100
0100
3F00
4100
4300
3D00
0000
0000
0000
ENDCHAR
STARTCHAR adieresis
ENCODING 228
SWIDTH 576 0
DWIDTH 9 0
BBX 9 15 0 -3
BITMAP
0000
0000
2200
2200
0000
3E00
0100
0100
3F00
4100
4300
3D00
0000
0000
0000
ENDCHAR
STARTCHAR aring
ENCODING 229
SWIDTH 576 0
DWIDTH 9 0
BBX 9 15 0 -3
BITMAP
0000
0C00
1200
0C00
0000
3E00
0100
0100
3F00
4100
4300
3D00
0000
0000
0000
ENDCHAR
STARTCHAR ae
ENCODING 230
SWIDTH 576 0
DWIDTH 9 0
BBX 9 15 0 -3
BITMAP
0000
0000
0000
0000
0000
3600
4900
0900
3E00
4800
4900
3700
0000
0000
0000
ENDCHAR
STARTCHAR ccedilla
ENCODING 231
SWIDTH 576 0
DWIDTH 9 0
BBX 9 15 0 -3
BITMAP
0000
0000
0000
0000
0000
3E00
4100
4000
4000
4000
4100
3E00
0C00
2400
1800
ENDCHAR
STARTCHAR egrave
ENCODING 232
SWIDTH 576 0
DWIDTH 9 0
BBX 9 15 0 -3
BITMAP
0000
2000
1000
0800
0000
3E00
4100
4100
7F00
4000
4000
3E00
0000
0000
0000
ENDCHAR
STARTCHAR eacute
ENCODING 233
SWIDTH 576 0
DWIDTH 9 0
BBX 9 15 0 -3
BITMAP
0000
0200
0400
0800
0000
3E00
4100
4100
7F00
4000
4000
3E00
0000
0000
0000
ENDCHAR
STARTCHAR ecircumflex
ENCODING 234
SWIDTH 576 0
DWIDTH 9 0
BBX 9 15 0 -3
BITMAP
0000
0800
1400
2200
0000
3E00
4100
4100
7F00
4000
4000
3E00
0000
0000
0000
ENDCHAR
STARTCHAR edieresis
ENCODING 235
SWIDTH 576 0
DWIDTH 9 0
BBX 9 15 0 -3
BITMAP
0000
0000
2200
2200
0000
3E00
4100
4100
7F00
4000
4000
3E00
0000
0000
0000
ENDCHAR
STARTCHAR igrave
ENCODING 236
SWIDTH 576 0
DWIDTH 9 0
BBX 9 15 0 -3
BITMAP
0000
2000
1000
0800
0000
3800
0800
0800
0800
0800
0800
3E00
0000
0000
0000
ENDCHAR
STARTCHAR iacute
ENCODING 237
SWIDTH 576 0
DWIDTH 9 0
BBX 9 15 0 -3
BITMAP
0000
0400
0800
1000
0000
3800
0800
0800
0800
0800
0800
3E00
0000
0000
0000
ENDCHAR
STARTCHAR icircumflex
ENCODING 238
SWIDTH 576 0
DWIDTH 9 0
BBX 9 15 0 -3
BITMAP
0000
1000
2800
4400
0000
3800
0800
0800
0800
0800
0800
3E00
0000
0000
0000
ENDCHAR
STARTCHAR idieresis
ENCODING 239
SWIDTH 576 0
DWIDTH 9 0
BBX 9 15 0 -3
BITMAP
0000
0000
2400
2400
0000
3800
0800
0800
0800
0800
0800
3E00
0000
0000
0000
ENDCHAR
STARTCHAR eth
ENCODING 240
SWIDTH 576 0
DWIDTH 9 0
BBX 9 15 0 -3
BITMAP
0000
2400
1800
2800
0400
3E00
4100
4100
4100
4100
4100
3E00
0000
0000
0000
ENDCHAR
STARTCHAR ntilde
ENCODING 241
SWIDTH 576 0
DWIDTH 9 0
BBX 9 15 0 -3
BITMAP
0000
0000
3100
4E00
0000
5E00
6100
4100
4100
4100
4100
4100
0000
0000
0000
ENDCHAR
STARTCHAR ograve
ENCODING 242
SWIDTH 576 0
DWIDTH 9 0
BBX 9 15 0 -3
BITMAP
0000
2000
1000
0800
0000
3E00
4100
4100
4100
4100
4100
3E00
0000
0000
0000
ENDCHAR
STARTCHAR oacute
ENCODING 243
SWIDTH 576 0
DWIDTH 9 0
BBX 9 15 0 -3
BITMAP
0000
0200
0400
0800
0000
3E00
4100
4100
4100
4100
4100
3E00
0000
0000
0000
ENDCHAR
STARTCHAR ocircumflex
ENCODING 244
SWIDTH 576 0
DWIDTH 9 0
BBX 9 15 0 -3
BITMAP
0000
0800
1400
2200
0000
3E00
4100
4100
4100
4100
4100
3E00
0000
0000
0000
ENDCHAR
STARTCHAR otilde
ENCODING 245
SWIDTH 576 0
DWIDTH 9 0
BBX 9 15 0 -3
BITMAP
0000
0000
3100
4E00
0000
3E00
4100
4100
4100
4100
4100
3E00
0000
0000
0000
ENDCHAR
STARTCHAR odieresis
ENCODING 246
SWIDTH 576 0
DWIDTH 9 0
BBX 9 15 0 -3
BITMAP
0000
0000
2200
2200
0000
3E00
4100
4100
4100
4100
4100
3E00
0000
0000
0000
ENDCHAR
STARTCHAR divide
ENCODING 247
SWIDTH 576 0
DWIDTH 9 0
BBX 9 15 0 -3
BITMAP
0000
0000
0000
0800
1C00
0800
0000
7F00
0000
0800
1C00
0800
0000
0000
0000
ENDCHAR
STARTCHAR oslash
ENCODING 248
SWIDTH 576 0
DWIDTH 9 0
BBX 9 15 0 -3
BITMAP
0000
0000
0000
0000
0100
3E00
4500
4500
4900
5100
5100
3E00
4000
0000
0000
ENDCHAR
STARTCHAR ugrave
ENCODING 249
SWIDTH 576 0
DWIDTH 9 0
BBX 9 15 0 -3
BITMAP
0000
2000
1000
0800
0000
4200
4200
4200
4200
4200
4200
3D00
0000
0000
0000
ENDCHAR
STARTCHAR uacute
ENCODING 250
SWIDTH 576 0
DWIDTH 9 0
BBX 9 15 0 -3
BITMAP
0000
0200
0400
0800
0000
4200
4200
4200
4200
4200
4200
3D00
0000
0000
0000
ENDCHAR
STARTCHAR ucircumflex
ENCODING 251
SWIDTH 576 0
DWIDTH 9 0
BBX 9 15 0 -3
BITMAP
0000
0800
1400
2200
0000
4200
4200
4200
4200
4200
4200
3D00
0000
0000
0000
ENDCHAR
STARTCHAR udieresis
ENCODING 252
SWIDTH 576 0
DWIDTH 9 0
BBX 9 15 0 -3
BITMAP
0000
0000
2400
2400
0000
4200
4200
4200
4200
4200
4200
3D00
0000
0000
0000
ENDCHAR
STARTCHAR yacute
ENCODING 253
SWIDTH 576 0
DWIDTH 9 0
BBX 9 15 0 -3
BITMAP
0000
0400
0800
1000
0000
4200
4200
4200
4200
4200
4600
3A00
0200
4200
3C00
ENDCHAR
STARTCHAR thorn
ENCODING 254
SWIDTH 576 0
DWIDTH 9 0
BBX 9 15 0 -3
BITMAP
0000
0000
0000
4000
4000
4000
5E00
6100
4100
4100
6100
5E00
4000
4000
4000
ENDCHAR
STARTCHAR ydieresis
ENCODING 255
SWIDTH 576 0
DWIDTH 9 0
BBX 9 15 0 -3
BITMAP
0000
0000
2400
2400
0000
4200
4200
4200
4200
4200
4600
3A00
0200
4200
3C00
ENDCHAR
STARTCHAR Amacron
ENCODING 256
SWIDTH 576 0
DWIDTH 9 0
BBX 9 15 0 -3
BITMAP
0000
3E00
0000
1C00
2200
4100
4100
4100
7F00
4100
4100
4100
0000
0000
0000
ENDCHAR
STARTCHAR amacron
ENCODING 257
SWIDTH 576 0
DWIDTH 9 0
BBX 9 15 0 -3
BITMAP
0000
0000
0000
3E00
0000
3E00
0100
0100
3F00
4100
4300
3D00
0000
0000
0000
ENDCHAR
STARTCHAR Abreve
ENCODING 258
SWIDTH 576 0
DWIDTH 9 0
BBX 9 15 0 -3
BITMAP
0000
2200
1C00
0000
1C00
2200
4100
4100
7F00
4100
4100
4100
0000
0000
0000
ENDCHAR
STARTCHAR abreve
ENCODING 259
SWIDTH 576 0
DWIDTH 9 0
BBX 9 15 0 -3
BITMAP
0000
0000
2200
1C00
0000
3E00
0100
0100
3F00
4100
4300
3D00
0000
0000
0000
ENDCHAR
STARTCHAR Aogonek
ENCODING 260
SWIDTH 576 0
DWIDTH 9 0
BBX 9 15 0 -3
BITMAP
0000
0000
0800
1400
2200
4100
4100
4100
7F00
4100
4100
4100
0100
0180
0000
ENDCHAR
STARTCHAR aogonek
ENCODING 261
SWIDTH 576 0
DWIDTH 9 0
BBX 9 15 0 -3
BITMAP
0000
0000
0000
0000
0000
3E00
0100
0100
3F00
4100
4300
3D00
0100
0180
0000
ENDCHAR
STARTCHAR Cacute
ENCODING 262
SWIDTH 576 0
DWIDTH 9 0
BBX 9 15 0 -3
BITMAP
0200
0400
0800
0000
3E00
4100
4000
4000
4000
4000
4100
3E00
0000
0000
0000
ENDCHAR
STARTCHAR cacute
ENCODING 263
SWIDTH 576 0
DWIDTH 9 0
BBX 9 15 0 -3
BITMAP
0000
0200
0400
0800
0000
3E00
4100
4000
4000
4000
4100
3E00
0000
0000
0000
ENDCHAR
STARTCHAR Ccircumflex
ENCODING 264
SWIDTH 576 0
DWIDTH 9 0
BBX 9 15 0 -3
BITMAP
0800
1400
2200
0000
3E00
4100
4100
4000
4000
4000
4100
3E00
0000
0000
0000
ENDCHAR
STARTCHAR ccircumflex
ENCODING 265
SWIDTH 576 0
DWIDTH 9 0
BBX 9 15 0 -3
BITMAP
0000
0800
1400
2200
0000
3E00
4100
4000
4000
4000
4100
3E00
0000
0000
0000
ENDCHAR
STARTCHAR Cdotaccent
ENCODING 266
SWIDTH 576 0
DWIDTH 9 0
BBX 9 15 0 -3
BITMAP
0000
1800
0000
3E00
4100
4000
4000
4000
4000
4000
4100
3E00
0000
0000
0000
ENDCHAR
STARTCHAR cdotaccent
ENCODING 267
SWIDTH 576 0
DWIDTH 9 0
BBX 9 15 0 -3
BITMAP
0000
0000
0000
1800
0000
3E00
4100
4000
4000
4000
4100
3E00
0000
0000
0000
ENDCHAR
STARTCHAR Ccaron
ENCODING 268
SWIDTH 576 0
DWIDTH 9 0
BBX 9 15 0 -3
BITMAP
2200
1400
0800
0000
3E00
4100
4000
4000
4000
4000
4100
3E00
0000
0000
0000
ENDCHAR
STARTCHAR ccaron
ENCODING 269
SWIDTH 576 0
DWIDTH 9 0
BBX 9 15 0 -3
BITMAP
0000
2200
1400
0800
0000
3E00
4100
4000
4000
4000
4100
3E00
0000
0000
0000
ENDCHAR
STARTCHAR Dcaron
ENCODING 270
SWIDTH 576 0
DWIDTH 9 0
BBX 9 15 0 -3
BITMAP
2200
1400
0800
7C00
4200
4100
4100
4100
4100
4100
4200
7C00
0000
0000
0000
ENDCHAR
STARTCHAR dcaron
ENCODING 271
SWIDTH 576 0
DWIDTH 9 0
BBX 9 15 0 -3
BITMAP
0000
2200
1500
0900
0100
3D00
4300
4100
4100
4100
4300
3D00
0000
0000
0000
ENDCHAR
STARTCHAR Dcroat
ENCODING 272
SWIDTH 576 0
DWIDTH 9 0
BBX 9 15 0 -3
BITMAP
0000
0000
7C00
4200
4100
4100
E100
4100
4100
4100
4200
7C00
0000
0000
0000
ENDCHAR
STARTCHAR dcroat
ENCODING 273
SWIDTH 576 0
DWIDTH 9 0
BBX 9 15 0 -3
BITMAP
0000
0000
0100
0780
0100
3D00
4300
4100
4100
4100
4300
3D00
0000
0000
0000
ENDCHAR
STARTCHAR Emacron
ENCODING 274
SWIDTH 576 0
DWIDTH 9 0
BBX 9 15 0 -3
BITMAP
0000
3E00
0000
7F00
4000
4000
4000
7C00
4000
4000
4000
7F00
0000
0000
0000
ENDCHAR
STARTCHAR emacron
ENCODING 275
SWIDTH 576 0
DWIDTH 9 0
BBX 9 15 0 -3
BITMAP
0000
0000
0000
3E00
0000
3E00
4100
4100
7F00
4000
4000
3E00
0000
0000
0000
ENDCHAR
STARTCHAR Ebreve
ENCODING 276
SWIDTH 576 0
DWIDTH 9 0
BBX 9 15 0 -3
BITMAP
0000
2200
1C00
0000
7F00
4000
4000
7C00
4000
4000
4000
7F00
0000
0000
0000
ENDCHAR
STARTCHAR ebreve
ENCODING 277
SWIDTH 576 0
DWIDTH 9 0
BBX 9 15 0 -3
BITMAP
0000
0000
2200
1C00
0000
3E00
4100
4100
7F00
4000
4000
3E00
0000
0000
0000
ENDCHAR
STARTCHAR Edotaccent
ENCODING 278
SWIDTH 576 0
DWIDTH 9 0
BBX 9 15 0 -3
BITMAP
0000
1800
0000
7F00
4000
4000
4000
7C00
4000
4000
4000
7F00
0000
0000
0000
ENDCHAR
STARTCHAR edotaccent
ENCODING 279
SWIDTH 576 0
DWIDTH 9 0
BBX 9 15 0 -3
BITMAP
0000
0000
0000
1800
0000
3E00
4100
4100
7F00
4000
4000
3E00
0000
0000
0000
ENDCHAR
STARTCHAR Eogonek
ENCODING 280
SWIDTH 576 0
DWIDTH 9 0
BBX 9 15 0 -3
BITMAP
0000
0000
7F00
4000
4000
4000
7C00
4000
4000
4000
4000
7F00
0800
0C00
0000
ENDCHAR
STARTCHAR eogonek
ENCODING 281
SWIDTH 576 0
DWIDTH 9 0
BBX 9 15 0 -3
BITMAP
0000
0000
0000
0000
0000
3E00
4100
4100
7F00
4000
4000
3E00
0800
0C00
0000
ENDCHAR
STARTCHAR Ecaron
ENCODING 282
SWIDTH 576 0
DWIDTH 9 0
BBX 9 15 0 -3
BITMAP
2200
1400
0800
0000
7F00
4000
4000
7C00
4000
4000
4000
7F00
0000
0000
0000
ENDCHAR
STARTCHAR ecaron
ENCODING 283
SWIDTH 576 0
DWIDTH 9 0
BBX 9 15 0 -3
BITMAP
0000
2200
1400
0800
0000
3E00
4100
4100
7F00
4000
4000
3E00
0000
0000
0000
ENDCHAR
STARTCHAR Gcircumflex
ENCODING 284
SWIDTH 576 0
DWIDTH 9 0
BBX 9 15 0 -3
BITMAP
0800
1400
2200
0000
3E00
4100
4000
4000
4700
4100
4100
3E00
0000
0000
0000
ENDCHAR
STARTCHAR gcircumflex
ENCODING 285
SWIDTH 576 0
DWIDTH 9 0
BBX 9 15 0 -3
BITMAP
0000
0800
1400
2200
0000
3D00
4200
4200
4200
3C00
4000
3E00
4100
4100
3E00
ENDCHAR
STARTCHAR Gbreve
ENCODING 286
SWIDTH 576 0
DWIDTH 9 0
BBX 9 15 0 -3
BITMAP
0000
2200
1C00
0000
3E00
4100
4000
4000
4700
4100
4100
3E00
0000
0000
0000
ENDCHAR
STARTCHAR gbreve
ENCODING 287
SWIDTH 576 0
DWIDTH 9 0
BBX 9 15 0 -3
BITMAP
0000
0000
2200
1C00
0000
3D00
4200
4200
4200
3C00
4000
3E00
4100
4100
3E00
ENDCHAR
STARTCHAR Gdotaccent
ENCODING 288
SWIDTH 576 0
DWIDTH 9 0
BBX 9 15 0 -3
BITMAP
0000
1800
0000
3E00
4100
4000
4000
4700
4100
4100
4100
3E00
0000
0000
0000
ENDCHAR
STARTCHAR gdotaccent
ENCODING 289
SWIDTH 576 0
DWIDTH 9 0
BBX 9 15 0 -3
BITMAP
0000
0000
0000
1800
0000
3D00
4200
4200
4200
3C00
4000
3E00
4100
4100
3E00
ENDCHAR
STARTCHAR Gcommaaccent
ENCODING 290
SWIDTH 576 0
DWIDTH 9 0
BBX 9 15 0 -3
BITMAP
0000
0000
3E00
4100
4000
4000
4000
4700
4100
4100
4100
3E00
0C00
2400
1800
ENDCHAR
STARTCHAR gcommaaccent
ENCODING 291
SWIDTH 576 0
DWIDTH 9 0
BBX 9 15 0 -3
BITMAP
0000
0400
0800
0C00
0000
3D00
4200
4200
4200
3C00
4000
3E00
4100
3E00
0000
ENDCHAR
STARTCHAR Hcircumflex
ENCODING 292
SWIDTH 576 0
DWIDTH 9 0
BBX 9 15 0 -3
BITMAP
0800
1400
2200
0000
4100
4100
4100
7F00
4100
4100
4100
4100
0000
0000
0000
ENDCHAR
STARTCHAR hcircumflex
ENCODING 293
SWIDTH 576 0
DWIDTH 9 0
BBX 9 15 0 -3
BITMAP
0400
0A00
5100
4000
4000
5E00
6100
4100
4100
4100
4100
4100
0000
0000
0000
ENDCHAR
STARTCHAR Hbar
ENCODING 294
SWIDTH 576 0
DWIDTH 9 0
BBX 9 15 0 -3
BITMAP
0000
0000
4100
4100
FF80
4100
7F00
4100
4100
4100
4100
4100
0000
0000
0000
ENDCHAR
STARTCHAR hbar
ENCODING 295
SWIDTH 576 0
DWIDTH 9 0
BBX 9 15 0 -3
BITMAP
0000
0000
4000
F000
4000
5E00
6100
4100
4100
4100
4100
4100
0000
0000
0000
ENDCHAR
STARTCHAR Itilde
ENCODING 296
SWIDTH 576 0
DWIDTH 9 0
BBX 9 15 0 -3
BITMAP
0000
3100
4E00
0000
3E00
0800
0800
0800
0800
0800
0800
3E00
0000
0000
0000
ENDCHAR
STARTCHAR itilde
ENCODING 297
SWIDTH 576 0
DWIDTH 9 0
BBX 9 15 0 -3
BITMAP
0000
0000
3200
4C00
0000
3800
0800
0800
0800
0800
0800
3E00
0000
0000
0000
ENDCHAR
STARTCHAR Imacron
ENCODING 298
SWIDTH 576 0
DWIDTH 9 0
BBX 9 15 0 -3
BITMAP
0000
3E00
0000
3E00
0800
0800
0800
0800
0800
0800
0800
3E00
0000
0000
0000
ENDCHAR
STARTCHAR imacron
ENCODING 299
SWIDTH 576 0
DWIDTH 9 0
BBX 9 15 0 -3
BITMAP
0000
0000
0000
7E00
0000
3800
0800
0800
0800
0800
0800
3E00
0000
0000
0000
ENDCHAR
STARTCHAR Ibreve
ENCODING 300
SWIDTH 576 0
DWIDTH 9 0
BBX 9 15 0 -3
BITMAP
0000
2200
1C00
0000
3E00
0800
0800
0800
0800
0800
0800
3E00
0000
0000
0000
ENDCHAR
STARTCHAR ibreve
ENCODING 301
SWIDTH 576 0
DWIDTH 9 0
BBX 9 15 0 -3
BITMAP
0000
0000
2200
1C00
0000
3800
0800
0800
0800
0800
0800
3E00
0000
0000
0000
ENDCHAR
STARTCHAR Iogonek
ENCODING 302
SWIDTH 576 0
DWIDTH 9 0
BBX 9 15 0 -3
BITMAP
0000
0000
3E00
0800
0800
0800
0800
0800
0800
0800
0800
3E00
1000
1800
0000
ENDCHAR
STARTCHAR iogonek
ENCODING 303
SWIDTH 576 0
DWIDTH 9 0
BBX 9 15 0 -3
BITMAP
0000
0000
0000
1800
0000
3800
0800
0800
0800
0800
0800
3E00
1000
1800
0000
ENDCHAR
STARTCHAR Idotaccent
ENCODING 304
SWIDTH 576 0
DWIDTH 9 0
BBX 9 15 0 -3
BITMAP
0000
0C00
0000
3E00
0800
0800
0800
0800
0800
0800
0800
3E00
0000
0000
0000
ENDCHAR
STARTCHAR dotlessi
ENCODING 305
SWIDTH 576 0
DWIDTH 9 0
BBX 9 15 0 -3
BITMAP
0000
0000
0000
0000
0000
3800
0800
0800
0800
0800
0800
3E00
0000
0000
0000
ENDCHAR
STARTCHAR IJ
ENCODING 306
SWIDTH 576 0
DWIDTH 9 0
BBX 9 15 0 -3
BITMAP
0000
0000
7700
2100
2100
2100
2100
2100
2100
2100
2900
7600
0000
0000
0000
ENDCHAR
STARTCHAR ij
ENCODING 307
SWIDTH 576 0
DWIDTH 9 0
BBX 9 15 0 -3
BITMAP
0000
0000
6300
0000
0000
6700
2100
2100
2100
2100
2100
F900
0100
1100
0E00
ENDCHAR
STARTCHAR Jcircumflex
ENCODING 308
SWIDTH 576 0
DWIDTH 9 0
BBX 9 15 0 -3
BITMAP
0400
0A00
1100
0000
0F00
0200
0200
0200
0200
0200
4200
3C00
0000
0000
0000
ENDCHAR
STARTCHAR jcircumflex
ENCODING 309
SWIDTH 576 0
DWIDTH 9 0
BBX 9 15 0 -3
BITMAP
0000
0400
0A00
1100
0000
0E00
0200
0200
0200
0200
0200
4200
4200
4200
3C00
ENDCHAR
STARTCHAR Kcommaaccent
ENCODING 310
SWIDTH 576 0
DWIDTH 9 0
BBX 9 15 0 -3
BITMAP
0000
0000
4100
4200
4400
4800
7000
5000
4800
4400
4200
4100
3000
9000
6000
ENDCHAR
STARTCHAR kcommaaccent
ENCODING 311
SWIDTH 576 0
DWIDTH 9 0
BBX 9 15 0 -3
BITMAP
0000
0000
4000
4000
4000
4100
4600
5800
6000
5800
4600
4100
3000
9000
6000
ENDCHAR
STARTCHAR kgreenlandic
ENCODING 312
SWIDTH 576 0
DWIDTH 9 0
BBX 9 15 0 -3
BITMAP
0000
0000
0000
0000
0000
4100
4200
4400
7800
4400
4200
4100
0000
0000
0000
ENDCHAR
STARTCHAR Lacute
ENCODING 313
SWIDTH 576 0
DWIDTH 9 0
BBX 9 15 0 -3
BITMAP
0200
0400
0800
0000
4000
4000
4000
4000
4000
4000
4000
7F00
0000
0000
0000
ENDCHAR
STARTCHAR lacute
ENCODING 314
SWIDTH 576 0
DWIDTH 9 0
BBX 9 15 0 -3
BITMAP
0200
0400
0800
0000
3800
0800
0800
0800
0800
0800
0800
3E00
0000
0000
0000
ENDCHAR
STARTCHAR Lcommaaccent
ENCODING 315
SWIDTH 576 0
DWIDTH 9 0
BBX 9 15 0 -3
BITMAP
0000
0000
4000
4000
4000
4000
4000
4000
4000
4000
4000
7F00
0C00
2400
1800
ENDCHAR
STARTCHAR lcommaaccent
ENCODING 316
SWIDTH 576 0
DWIDTH 9 0
BBX 9 15 0 -3
BITMAP
0000
0000
3800
0800
0800
0800
0800
0800
0800
0800
0800
3E00
0C00
2400
1800
ENDCHAR
STARTCHAR Lcaron
ENCODING 317
SWIDTH 576 0
DWIDTH 9 0
BBX 9 15 0 -3
BITMAP
0000
2200
1400
0800
4000
4000
4000
4000
4000
4000
4000
7F00
0000
0000
0000
ENDCHAR
STARTCHAR lcaron
ENCODING 318
SWIDTH 576 0
DWIDTH 9 0
BBX 9 15 0 -3
BITMAP
2200
1400
0800
0000
3800
0800
0800
0800
0800
0800
0800
3E00
0000
0000
0000
ENDCHAR
STARTCHAR Ldot
ENCODING 319
SWIDTH 576 0
DWIDTH 9 0
BBX 9 15 0 -3
BITMAP
0000
0000
4000
4000
4000
4400
4400
4000
4000
4000
4000
7F00
0000
0000
0000
ENDCHAR
STARTCHAR ldot
ENCODING 320
SWIDTH 576 0
DWIDTH 9 0
BBX 9 15 0 -3
BITMAP
0000
0000
7000
1000
1000
1200
1200
1000
1000
1000
1000
7C00
0000
0000
0000
ENDCHAR
STARTCHAR Lslash
ENCODING 321
SWIDTH 576 0
DWIDTH 9 0
BBX 9 15 0 -3
BITMAP
0000
0000
4000
4000
4000
5000
6000
C000
4000
4000
4000
7F00
0000
0000
0000
ENDCHAR
STARTCHAR lslash
ENCODING 322
SWIDTH 576 0
DWIDTH 9 0
BBX 9 15 0 -3
BITMAP
0000
0000
3800
0800
0800
0A00
0C00
1800
0800
0800
0800
3E00
0000
0000
0000
ENDCHAR
STARTCHAR Nacute
ENCODING 323
SWIDTH 576 0
DWIDTH 9 0
BBX 9 15 0 -3
BITMAP
0000
0200
0400
0800
4100
4100
6100
5100
4900
4500
4300
4100
0000
0000
0000
ENDCHAR
STARTCHAR nacute
ENCODING 324
SWIDTH 576 0
DWIDTH 9 0
BBX 9 15 0 -3
BITMAP
0000
0200
0400
0800
0000
5E00
6100
4100
4100
4100
4100
4100
0000
0000
0000
ENDCHAR
STARTCHAR Ncommaaccent
ENCODING 325
SWIDTH 576 0
DWIDTH 9 0
BBX 9 15 0 -3
BITMAP
0000
0000
4100
4100
6100
5100
4900
4500
4300
4100
4100
4100
2000
9000
6000
ENDCHAR
STARTCHAR ncommaaccent
ENCODING 326
SWIDTH 576 0
DWIDTH 9 0
BBX 9 15 0 -3
BITMAP
0000
0000
0000
0000
0000
5E00
6100
4100
4100
4100
4100
4100
2000
9000
6000
ENDCHAR
STARTCHAR Ncaron
ENCODING 327
SWIDTH 576 0
DWIDTH 9 0
BBX 9 15 0 -3
BITMAP
2200
1400
0800
4100
4100
6100
5100
4900
4500
4300
4100
4100
0000
0000
0000
ENDCHAR
STARTCHAR ncaron
ENCODING 328
SWIDTH 576 0
DWIDTH 9 0
BBX 9 15 0 -3
BITMAP
0000
2200
1400
0800
0000
5E00
6100
4100
4100
4100
4100
4100
0000
0000
0000
ENDCHAR
STARTCHAR napostrophe
ENCODING 329
SWIDTH 576 0
DWIDTH 9 0
BBX 9 15 0 -3
BITMAP
0000
C000
4000
8000
0000
5E00
6100
4100
4100
4100
4100
4100
0000
0000
0000
ENDCHAR
STARTCHAR Eng
ENCODING 330
SWIDTH 576 0
DWIDTH 9 0
BBX 9 15 0 -3
BITMAP
0000
0000
4100
4100
6100
5100
4900
4500
4300
4100
4100
4100
0900
0600
0000
ENDCHAR
STARTCHAR eng
ENCODING 331
SWIDTH 576 0
DWIDTH 9 0
BBX 9 15 0 -3
BITMAP
0000
0000
0000
0000
0000
5E00
6100
4100
4100
4100
4100
4100
0900
0600
0000
ENDCHAR
STARTCHAR Omacron
ENCODING 332
SWIDTH 576 0
DWIDTH 9 0
BBX 9 15 0 -3
BITMAP
0000
0000
3E00
0000
3E00
4100
4100
4100
4100
4100
4100
3E00
0000
0000
0000
ENDCHAR
STARTCHAR omacron
ENCODING 333
SWIDTH 576 0
DWIDTH 9 0
BBX 9 15 0 -3
BITMAP
0000
0000
0000
3E00
0000
3E00
4100
4100
4100
4100
4100
3E00
0000
0000
0000
ENDCHAR
STARTCHAR Obreve
ENCODING 334
SWIDTH 576 0
DWIDTH 9 0
BBX 9 15 0 -3
BITMAP
0000
2200
1C00
0000
3E00
4100
4100
4100
4100
4100
4100
3E00
0000
0000
0000
ENDCHAR
STARTCHAR obreve
ENCODING 335
SWIDTH 576 0
DWIDTH 9 0
BBX 9 15 0 -3
BITMAP
0000
0000
2200
1C00
0000
3E00
4100
4100
4100
4100
4100
3E00
0000
0000
0000
ENDCHAR
STARTCHAR Ohungarumlaut
ENCODING 336
SWIDTH 576 0
DWIDTH 9 0
BBX 9 15 0 -3
BITMAP
0000
1100
2200
0000
3E00
4100
4100
4100
4100
4100
4100
3E00
0000
0000
0000
ENDCHAR
STARTCHAR ohungarumlaut
ENCODING 337
SWIDTH 576 0
DWIDTH 9 0
BBX 9 15 0 -3
BITMAP
0000
0000
1100
2200
0000
3E00
4100
4100
4100
4100
4100
3E00
0000
0000
0000
ENDCHAR
STARTCHAR OE
ENCODING 338
SWIDTH 576 0
DWIDTH 9 0
BBX 9 15 0 -3
BITMAP
0000
0000
3F00
4800
4800
4800
4E00
4800
4800
4800
4800
3F00
0000
0000
0000
ENDCHAR
STARTCHAR oe
ENCODING 339
SWIDTH 576 0
DWIDTH 9 0
BBX 9 15 0 -3
BITMAP
0000
0000
0000
0000
0000
3600
4900
4900
4F00
4800
4900
3600
0000
0000
0000
ENDCHAR
STARTCHAR Racute
ENCODING 340
SWIDTH 576 0
DWIDTH 9 0
BBX 9 15 0 -3
BITMAP
0200
0400
0800
0000
7E00
4100
4100
4100
7E00
4200
4100
4100
0000
0000
0000
ENDCHAR
STARTCHAR racute
ENCODING 341
SWIDTH 576 0
DWIDTH 9 0
BBX 9 15 0 -3
BITMAP
0000
0200
0400
0800
0000
4E00
3100
2100
2000
2000
2000
2000
0000
0000
0000
ENDCHAR
STARTCHAR Rcommaaccent
ENCODING 342
SWIDTH 576 0
DWIDTH 9 0
BBX 9 15 0 -3
BITMAP
0000
0000
7E00
4100
4100
4100
7E00
4800
4400
4200
4100
4100
3000
9000
6000
ENDCHAR
STARTCHAR rcommaaccent
ENCODING 343
SWIDTH 576 0
DWIDTH 9 0
BBX 9 15 0 -3
BITMAP
0000
0000
0000
0000
0000
4E00
3100
2100
2000
2000
2000
2000
3000
9000
6000
ENDCHAR
STARTCHAR Rcaron
ENCODING 344
SWIDTH 576 0
DWIDTH 9 0
BBX 9 15 0 -3
BITMAP
2200
1400
0800
0000
7E00
4100
4100
4100
7E00
4200
4100
4100
0000
0000
0000
ENDCHAR
STARTCHAR rcaron
ENCODING 345
SWIDTH 576 0
DWIDTH 9 0
BBX 9 15 0 -3
BITMAP
0000
2200
1400
0800
0000
4E00
3100
2100
2000
2000
2000
2000
0000
0000
0000
ENDCHAR
STARTCHAR Sacute
ENCODING 346
SWIDTH 576 0
DWIDTH 9 0
BBX 9 15 0 -3
BITMAP
0200
0400
0800
0000
3E00
4100
4000
3E00
0100
4100
4100
3E00
0000
0000
0000
ENDCHAR
STARTCHAR sacute
ENCODING 347
SWIDTH 576 0
DWIDTH 9 0
BBX 9 15 0 -3
BITMAP
0000
0200
0400
0800
0000
3E00
4100
4000
3E00
0100
4100
3E00
0000
0000
0000
ENDCHAR
STARTCHAR Scircumflex
ENCODING 348
SWIDTH 576 0
DWIDTH 9 0
BBX 9 15 0 -3
BITMAP
0800
1400
2200
0000
3E00
4100
4000
3E00
0100
4100
4100
3E00
0000
0000
0000
ENDCHAR
STARTCHAR scircumflex
ENCODING 349
SWIDTH 576 0
DWIDTH 9 0
BBX 9 15 0 -3
BITMAP
0000
0800
1400
2200
0000
3E00
4100
4000
3E00
0100
4100
3E00
0000
0000
0000
ENDCHAR
STARTCHAR Scedilla
ENCODING 350
SWIDTH 576 0
DWIDTH 9 0
BBX 9 15 0 -3
BITMAP
0000
0000
3E00
4100
4000
4000
3E00
0100
0100
4100
4100
3E00
0C00
2400
1800
ENDCHAR
STARTCHAR scedilla
ENCODING 351
SWIDTH 576 0
DWIDTH 9 0
BBX 9 15 0 -3
BITMAP
0000
0000
0000
0000
0000
3E00
4100
4000
3E00
0100
4100
3E00
0C00
2400
1800
ENDCHAR
STARTCHAR Scaron
ENCODING 352
SWIDTH 576 0
DWIDTH 9 0
BBX 9 15 0 -3
BITMAP
2200
1400
0800
0000
3E00
4100
4000
3E00
0100
4100
4100
3E00
0000
0000
0000
ENDCHAR
STARTCHAR scaron
ENCODING 353
SWIDTH 576 0
DWIDTH 9 0
BBX 9 15 0 -3
BITMAP
0000
2200
1400
0800
0000
3E00
4100
4000
3E00
0100
4100
3E00
0000
0000
0000
ENDCHAR
STARTCHAR Tcommaaccent
ENCODING 354
SWIDTH 576 0
DWIDTH 9 0
BBX 9 15 0 -3
BITMAP
0000
0000
7F00
0800
0800
0800
0800
0800
0800
0800
0800
0C00
2400
1800
0000
ENDCHAR
STARTCHAR tcommaaccent
ENCODING 355
SWIDTH 576 0
DWIDTH 9 0
BBX 9 15 0 -3
BITMAP
0000
0000
0000
1000
1000
7E00
1000
1000
1000
1000
1100
0E00
2400
1800
0000
ENDCHAR
STARTCHAR Tcaron
ENCODING 356
SWIDTH 576 0
DWIDTH 9 0
BBX 9 15 0 -3
BITMAP
2200
1400
0800
0000
7F00
0800
0800
0800
0800
0800
0800
0800
0000
0000
0000
ENDCHAR
STARTCHAR tcaron
ENCODING 357
SWIDTH 576 0
DWIDTH 9 0
BBX 9 15 0 -3
BITMAP
1100
0A00
0400
1000
1000
7E00
1000
1000
1000
1000
1100
0E00
0000
0000
0000
ENDCHAR
STARTCHAR Tbar
ENCODING 358
SWIDTH 576 0
DWIDTH 9 0
BBX 9 15 0 -3
BITMAP
0000
0000
7F00
0800
0800
3E00
0800
0800
0800
0800
0800
0800
0000
0000
0000
ENDCHAR
STARTCHAR tbar
ENCODING 359
SWIDTH 576 0
DWIDTH 9 0
BBX 9 15 0 -3
BITMAP
0000
0000
0000
1000
1000
7E00
1000
7C00
1000
1000
1100
0E00
0000
0000
0000
ENDCHAR
STARTCHAR Utilde
ENCODING 360
SWIDTH 576 0
DWIDTH 9 0
BBX 9 15 0 -3
BITMAP
0000
3100
4E00
0000
4100
4100
4100
4100
4100
4100
4100
3E00
0000
0000
0000
ENDCHAR
STARTCHAR utilde
ENCODING 361
SWIDTH 576 0
DWIDTH 9 0
BBX 9 15 0 -3
BITMAP
0000
0000
3200
4C00
0000
4200
4200
4200
4200
4200
4200
3D00
0000
0000
0000
ENDCHAR
STARTCHAR Umacron
ENCODING 362
SWIDTH 576 0
DWIDTH 9 0
BBX 9 15 0 -3
BITMAP
0000
0000
3E00
0000
4100
4100
4100
4100
4100
4100
4100
3E00
0000
0000
0000
ENDCHAR
STARTCHAR umacron
ENCODING 363
SWIDTH 576 0
DWIDTH 9 0
BBX 9 15 0 -3
BITMAP
0000
0000
0000
7E00
0000
4200
4200
4200
4200
4200
4200
3D00
0000
0000
0000
ENDCHAR
STARTCHAR Ubreve
ENCODING 364
SWIDTH 576 0
DWIDTH 9 0
BBX 9 15 0 -3
BITMAP
0000
2200
1C00
0000
4100
4100
4100
4100
4100
4100
4100
3E00
0000
0000
0000
ENDCHAR
STARTCHAR ubreve
ENCODING 365
SWIDTH 576 0
DWIDTH 9 0
BBX 9 15 0 -3
BITMAP
0000
0000
2200
1C00
0000
4200
4200
4200
4200
4200
4200
3D00
0000
0000
0000
ENDCHAR
STARTCHAR Uring
ENCODING 366
SWIDTH 576 0
DWIDTH 9 0
BBX 9 15 0 -3
BITMAP
0000
0C00
1200
0C00
4100
4100
4100
4100
4100
4100
4100
3E00
0000
0000
0000
ENDCHAR
STARTCHAR uring
ENCODING 367
SWIDTH 576 0
DWIDTH 9 0
BBX 9 15 0 -3
BITMAP
0000
0000
1800
2400
1800
4200
4200
4200
4200
4200
4200
3D00
0000
0000
0000
ENDCHAR
STARTCHAR Uhungarumlaut
ENCODING 368
SWIDTH 576 0
DWIDTH 9 0
BBX 9 15 0 -3
BITMAP
0000
1100
2200
0000
4100
4100
4100
4100
4100
4100
4100
3E00
0000
0000
0000
ENDCHAR
STARTCHAR uhungarumlaut
ENCODING 369
SWIDTH 576 0
DWIDTH 9 0
BBX 9 15 0 -3
BITMAP
0000
0000
1200
2400
0000
4200
4200
4200
4200
4200
4200
3D00
0000
0000
0000
ENDCHAR
STARTCHAR Uogonek
ENCODING 370
SWIDTH 576 0
DWIDTH 9 0
BBX 9 15 0 -3
BITMAP
0000
0000
4100
4100
4100
4100
4100
4100
4100
4100
4100
3E00
1000
1800
0000
ENDCHAR
STARTCHAR uogonek
ENCODING 371
SWIDTH 576 0
DWIDTH 9 0
BBX 9 15 0 -3
BITMAP
0000
0000
0000
0000
0000
4200
4200
4200
4200
4200
4200
3D00
0800
0C00
0000
ENDCHAR
STARTCHAR Wcircumflex
ENCODING 372
SWIDTH 576 0
DWIDTH 9 0
BBX 9 15 0 -3
BITMAP
0800
1400
2200
0000
4100
4100
4100
4900
4900
4900
5500
2200
0000
0000
0000
ENDCHAR
STARTCHAR wcircumflex
ENCODING 373
SWIDTH 576 0
DWIDTH 9 0
BBX 9 15 0 -3
BITMAP
0000
0800
1400
2200
0000
4100
4100
4900
4900
4900
5500
2200
0000
0000
0000
ENDCHAR
STARTCHAR Ycircumflex
ENCODING 374
SWIDTH 576 0
DWIDTH 9 0
BBX 9 15 0 -3
BITMAP
0800
1400
2200
0000
4100
4100
2200
1400
0800
0800
0800
0800
0000
0000
0000
ENDCHAR
STARTCHAR ycircumflex
ENCODING 375
SWIDTH 576 0
DWIDTH 9 0
BBX 9 15 0 -3
BITMAP
0000
0800
1400
2200
0000
4200
4200
4200
4200
4200
4600
3A00
0200
4200
3C00
ENDCHAR
STARTCHAR Ydieresis
ENCODING 376
SWIDTH 576 0
DWIDTH 9 0
BBX 9 15 0 -3
BITMAP
0000
2200
2200
0000
4100
4100
2200
1400
0800
0800
0800
0800
0000
0000
0000
ENDCHAR
STARTCHAR Zacute
ENCODING 377
SWIDTH 576 0
DWIDTH 9 0
BBX 9 15 0 -3
BITMAP
0200
0400
0800
0000
7F00
0200
0400
0800
1000
2000
4000
7F00
0000
0000
0000
ENDCHAR
STARTCHAR zacute
ENCODING 378
SWIDTH 576 0
DWIDTH 9 0
BBX 9 15 0 -3
BITMAP
0000
0200
0400
0800
0000
7F00
0200
0400
0800
1000
2000
7F00
0000
0000
0000
ENDCHAR
STARTCHAR Zdotaccent
ENCODING 379
SWIDTH 576 0
DWIDTH 9 0
BBX 9 15 0 -3
BITMAP
0000
0C00
0000
7F00
0100
0200
0400
0800
1000
2000
4000
7F00
0000
0000
0000
ENDCHAR
STARTCHAR zdotaccent
ENCODING 380
SWIDTH 576 0
DWIDTH 9 0
BBX 9 15 0 -3
BITMAP
0000
0000
0000
0C00
0000
7F00
0200
0400
0800
1000
2000
7F00
0000
0000
0000
ENDCHAR
STARTCHAR Zcaron
ENCODING 381
SWIDTH 576 0
DWIDTH 9 0
BBX 9 15 0 -3
BITMAP
2200
1400
0800
0000
7F00
0200
0400
0800
1000
2000
4000
7F00
0000
0000
0000
ENDCHAR
STARTCHAR zcaron
ENCODING 382
SWIDTH 576 0
DWIDTH 9 0
BBX 9 15 0 -3
BITMAP
0000
2200
1400
0800
0000
7F00
0200
0400
0800
1000
2000
7F00
0000
0000
0000
ENDCHAR
STARTCHAR longs
ENCODING 383
SWIDTH 576 0
DWIDTH 9 0
BBX 9 15 0 -3
BITMAP
0000
0000
0E00
1100
1000
1000
3000
1000
1000
1000
1000
1000
0000
0000
0000
ENDCHAR
STARTCHAR uni0180
ENCODING 384
SWIDTH 576 0
DWIDTH 9 0
BBX 9 15 0 -3
BITMAP
0000
0000
4000
F800
4000
5E00
6100
4100
4100
4100
6100
5E00
0000
0000
0000
ENDCHAR
STARTCHAR uni0181
ENCODING 385
SWIDTH 576 0
DWIDTH 9 0
BBX 9 15 0 -3
BITMAP
0000
0000
7E00
9100
9100
1100
1E00
1100
1100
1100
1100
3E00
0000
0000
0000
ENDCHAR
STARTCHAR uni0182
ENCODING 386
SWIDTH 576 0
DWIDTH 9 0
BBX 9 15 0 -3
BITMAP
0000
0000
7E00
2000
2000
2000
3E00
2100
2100
2100
2100
7E00
0000
0000
0000
ENDCHAR
STARTCHAR uni0183
ENCODING 387
SWIDTH 576 0
DWIDTH 9 0
BBX 9 15 0 -3
BITMAP
0000
0000
3E00
2000
2000
2000
3C00
2200
2200
2200
2200
3C00
0000
0000
0000
ENDCHAR
STARTCHAR uni0184
ENCODING 388
SWIDTH 576 0
DWIDTH 9 0
BBX 9 15 0 -3
BITMAP
0000
0000
2000
6000
6000
2000
3E00
2100
2100
2100
2100
7E00
0000
0000
0000
ENDCHAR
STARTCHAR uni0185
ENCODING 389
SWIDTH 576 0
DWIDTH 9 0
BBX 9 15 0 -3
BITMAP
0000
0000
2000
6000
6000
2000
3C00
2200
2200
2200
2200
3C00
0000
0000
0000
ENDCHAR
STARTCHAR uni0186
ENCODING 390
SWIDTH 576 0
DWIDTH 9 0
BBX 9 15 0 -3
BITMAP
0000
0000
3E00
4100
0100
0100
0100
0100
0100
0100
4100
3E00
0000
0000
0000
ENDCHAR
STARTCHAR uni0187
ENCODING 391
SWIDTH 576 0
DWIDTH 9 0
BBX 9 15 0 -3
BITMAP
0000
0180
3E00
4200
4000
4000
4000
4000
4000
4000
4200
3C00
0000
0000
0000
ENDCHAR
STARTCHAR uni0188
ENCODING 392
SWIDTH 576 0
DWIDTH 9 0
BBX 9 15 0 -3
BITMAP
0000
0000
0000
0180
0200
3E00
4100
4000
4000
4000
4100
3E00
0000
0000
0000
ENDCHAR
STARTCHAR uni0189
ENCODING 393
SWIDTH 576 0
DWIDTH 9 0
BBX 9 15 0 -3
BITMAP
0000
0000
7C00
4200
4100
4100
E100
4100
4100
4100
4200
7C00
0000
0000
0000
ENDCHAR
STARTCHAR uni018A
ENCODING 394
SWIDTH 576 0
DWIDTH 9 0
BBX 9 15 0 -3
BITMAP
0000
0000
7E00
9100
9100
1100
1100
1100
1100
1100
1100
3E00
0000
0000
0000
ENDCHAR
STARTCHAR uni018B
ENCODING 395
SWIDTH 576 0
DWIDTH 9 0
BBX 9 15 0 -3
BITMAP
0000
0000
3F00
0200
0200
0200
3E00
4200
4200
4200
4200
3F00
0000
0000
0000
ENDCHAR
STARTCHAR uni018C
ENCODING 396
SWIDTH 576 0
DWIDTH 9 0
BBX 9 15 0 -3
BITMAP
0000
0000
3E00
0200
0200
0200
1E00
2200
2200
2200
2200
1E00
0000
0000
0000
ENDCHAR
STARTCHAR uni018D
ENCODING 397
SWIDTH 576 0
DWIDTH 9 0
BBX 9 15 0 -3
BITMAP
0000
0000
0000
0000
0000
3E00
4100
4100
4100
4100
4100
3E00
0200
4100
3E00
ENDCHAR
STARTCHAR uni018E
ENCODING 398
SWIDTH 576 0
DWIDTH 9 0
BBX 9 15 0 -3
BITMAP
0000
0000
7F00
0100
0100
0100
1F00
0100
0100
0100
0100
7F00
0000
0000
0000
ENDCHAR
STARTCHAR uni018F
ENCODING 399
SWIDTH 576 0
DWIDTH 9 0
BBX 9 15 0 -3
BITMAP
0000
0000
1C00
2200
4100
0100
0100
7F00
4100
4100
2200
1C00
0000
0000
0000
ENDCHAR
STARTCHAR uni0190
ENCODING 400
SWIDTH 576 0
DWIDTH 9 0
BBX 9 15 0 -3
BITMAP
0000
0000
3E00
4100
4000
4000
3800
4000
4000
4000
4100
3E00
0000
0000
0000
ENDCHAR
STARTCHAR uni0191
ENCODING 401
SWIDTH 576 0
DWIDTH 9 0
BBX 9 15 0 -3
BITMAP
0000
0000
3F00
2000
2000
3800
2000
2000
2000
2000
2000
2000
2000
C000
0000
ENDCHAR
STARTCHAR florin
ENCODING 402
SWIDTH 576 0
DWIDTH 9 0
BBX 9 15 0 -3
BITMAP
0000
0000
0E00
1100
1100
1000
1000
7C00
1000
1000
1000
1000
1000
6000
0000
ENDCHAR
STARTCHAR uni0193
ENCODING 403
SWIDTH 576 0
DWIDTH 9 0
BBX 9 15 0 -3
BITMAP
0000
0300
0200
3E00
4100
4000
4000
4700
4100
4100
4100
3E00
0000
0000
0000
ENDCHAR
STARTCHAR uni0194
ENCODING 404
SWIDTH 576 0
DWIDTH 9 0
BBX 9 15 0 -3
BITMAP
0000
0000
4100
4100
2200
2200
1400
1400
0800
1400
1400
0800
0000
0000
0000
ENDCHAR
STARTCHAR uni0195
ENCODING 405
SWIDTH 576 0
DWIDTH 9 0
BBX 9 15 0 -3
BITMAP
0000
0000
4000
4000
4000
5000
6900
4900
4900
4900
4900
4600
0000
0000
0000
ENDCHAR
STARTCHAR uni0196
ENCODING 406
SWIDTH 576 0
DWIDTH 9 0
BBX 9 15 0 -3
BITMAP
0000
0000
3000
1000
1000
1000
1000
1000
1000
1000
1200
0C00
0000
0000
0000
ENDCHAR
STARTCHAR uni0197
ENCODING 407
SWIDTH 576 0
DWIDTH 9 0
BBX 9 15 0 -3
BITMAP
0000
0000
3E00
0800
0800
0800
3E00
0800
0800
0800
0800
3E00
0000
0000
0000
ENDCHAR
STARTCHAR uni0198
ENCODING 408
SWIDTH 576 0
DWIDTH 9 0
BBX 9 15 0 -3
BITMAP
0000
0000
4200
4500
4900
5000
6000
5000
4800
4400
4200
4100
0000
0000
0000
ENDCHAR
STARTCHAR uni0199
ENCODING 409
SWIDTH 576 0
DWIDTH 9 0
BBX 9 15 0 -3
BITMAP
0000
0000
3000
4800
4000
4100
4600
5800
6000
5800
4600
4100
0000
0000
0000
ENDCHAR
STARTCHAR uni019A
ENCODING 410
SWIDTH 576 0
DWIDTH 9 0
BBX 9 15 0 -3
BITMAP
0000
0000
3800
0800
0800
0800
3E00
0800
0800
0800
0800
3E00
0000
0000
0000
ENDCHAR
STARTCHAR uni019B
ENCODING 411
SWIDTH 576 0
DWIDTH 9 0
BBX 9 15 0 -3
BITMAP
0000
0000
4800
3000
3000
4800
0800
1400
2200
2200
4100
4100
0000
0000
0000
ENDCHAR
STARTCHAR uni019C
ENCODING 412
SWIDTH 576 0
DWIDTH 9 0
BBX 9 15 0 -3
BITMAP
0000
0000
4900
4900
4900
4900
4900
4900
4900
4900
4900
3700
0000
0000
0000
ENDCHAR
STARTCHAR uni019D
ENCODING 413
SWIDTH 576 0
DWIDTH 9 0
BBX 9 15 0 -3
BITMAP
0000
0000
4100
4100
6100
5100
4900
4500
4300
4100
4100
4100
4000
8000
0000
ENDCHAR
STARTCHAR uni019E
ENCODING 414
SWIDTH 576 0
DWIDTH 9 0
BBX 9 15 0 -3
BITMAP
0000
0000
0000
0000
0000
5E00
6100
4100
4100
4100
4100
4100
0100
0100
0100
ENDCHAR
STARTCHAR uni019F
ENCODING 415
SWIDTH 576 0
DWIDTH 9 0
BBX 9 15 0 -3
BITMAP
0000
0000
3E00
4100
4100
4100
7F00
4100
4100
4100
4100
3E00
0000
0000
0000
ENDCHAR
STARTCHAR Ohorn
ENCODING 416
SWIDTH 576 0
DWIDTH 9 0
BBX 9 15 0 -3
BITMAP
0000
0000
3C80
4280
4300
4200
4200
4200
4200
4200
4200
3C00
0000
0000
0000
ENDCHAR
STARTCHAR ohorn
ENCODING 417
SWIDTH 576 0
DWIDTH 9 0
BBX 9 15 0 -3
BITMAP
0000
0000
0000
0000
0000
3C80
4280
4300
4200
4200
4200
3C00
0000
0000
0000
ENDCHAR
STARTCHAR uni01A2
ENCODING 418
SWIDTH 576 0
DWIDTH 9 0
BBX 9 15 0 -3
BITMAP
0000
0000
3A00
4500
4500
4500
4500
4500
4500
4500
4500
3900
0000
0000
0000
ENDCHAR
STARTCHAR uni01A3
ENCODING 419
SWIDTH 576 0
DWIDTH 9 0
BBX 9 15 0 -3
BITMAP
0000
0000
0000
0000
0000
3A00
4500
4500
4500
4500
4500
3900
0100
0100
0100
ENDCHAR
STARTCHAR uni01A4
ENCODING 420
SWIDTH 576 0
DWIDTH 9 0
BBX 9 15 0 -3
BITMAP
0000
0000
7E00
9100
9100
1100
1E00
1000
1000
1000
1000
1000
0000
0000
0000
ENDCHAR
STARTCHAR uni01A5
ENCODING 421
SWIDTH 576 0
DWIDTH 9 0
BBX 9 15 0 -3
BITMAP
0000
0000
3000
4000
4000
5E00
6100
4100
4100
4100
6100
5E00
4000
4000
4000
ENDCHAR
STARTCHAR uni01A6
ENCODING 422
SWIDTH 576 0
DWIDTH 9 0
BBX 9 15 0 -3
BITMAP
0000
0000
7000
2000
3E00
2100
2100
2200
3C00
2200
2200
7200
0200
0180
0000
ENDCHAR
STARTCHAR uni01A7
ENCODING 423
SWIDTH 576 0
DWIDTH 9 0
BBX 9 15 0 -3
BITMAP
0000
0000
3E00
4100
4100
0100
0E00
3000
4000
4100
4100
3E00
0000
0000
0000
ENDCHAR
STARTCHAR uni01A8
ENCODING 424
SWIDTH 576 0
DWIDTH 9 0
BBX 9 15 0 -3
BITMAP
0000
0000
0000
0000
0000
3E00
4100
0100
3E00
4000
4100
3E00
0000
0000
0000
ENDCHAR
STARTCHAR uni01A9
ENCODING 425
SWIDTH 576 0
DWIDTH 9 0
BBX 9 15 0 -3
BITMAP
0000
0000
7F00
4100
2000
1000
0800
0800
1000
2000
4100
7F00
0000
0000
0000
ENDCHAR
STARTCHAR uni01AA
ENCODING 426
SWIDTH 576 0
DWIDTH 9 0
BBX 9 15 0 -3
BITMAP
0000
0000
3000
4800
4800
3800
0800
0800
0800
0800
0800
0800
0900
0600
0000
ENDCHAR
STARTCHAR uni01AB
ENCODING 427
SWIDTH 576 0
DWIDTH 9 0
BBX 9 15 0 -3
BITMAP
0000
0000
0000
1000
1000
7E00
1000
1000
1000
1000
1200
0C00
0200
0C00
0000
ENDCHAR
STARTCHAR uni01AC
ENCODING 428
SWIDTH 576 0
DWIDTH 9 0
BBX 9 15 0 -3
BITMAP
0000
0000
3F00
4800
4800
0800
0800
0800
0800
0800
0800
0800
0000
0000
0000
ENDCHAR
STARTCHAR uni01AD
ENCODING 429
SWIDTH 576 0
DWIDTH 9 0
BBX 9 15 0 -3
BITMAP
0000
0000
0C00
1000
1000
7E00
1000
1000
1000
1000
1100
0E00
0000
0000
0000
ENDCHAR
STARTCHAR uni01AE
ENCODING 430
SWIDTH 576 0
DWIDTH 9 0
BBX 9 15 0 -3
BITMAP
0000
0000
7F00
0800
0800
0800
0800
0800
0800
0800
0800
0800
0800
0600
0000
ENDCHAR
STARTCHAR Uhorn
ENCODING 431
SWIDTH 576 0
DWIDTH 9 0
BBX 9 15 0 -3
BITMAP
0000
0000
4280
4280
4300
4200
4200
4200
4200
4200
4200
3C00
0000
0000
0000
ENDCHAR
STARTCHAR uhorn
ENCODING 432
SWIDTH 576 0
DWIDTH 9 0
BBX 9 15 0 -3
BITMAP
0000
0000
0000
0000
0000
4280
4280
4300
4200
4200
4200
3D00
0000
0000
0000
ENDCHAR
STARTCHAR uni01B1
ENCODING 433
SWIDTH 576 0
DWIDTH 9 0
BBX 9 15 0 -3
BITMAP
0000
0000
6300
2200
2200
4100
4100
4100
4100
4100
2200
1C00
0000
0000
0000
ENDCHAR
STARTCHAR uni01B2
ENCODING 434
SWIDTH 576 0
DWIDTH 9 0
BBX 9 15 0 -3
BITMAP
0000
0000
4400
4200
4100
4100
4100
4100
4100
4100
2200
1C00
0000
0000
0000
ENDCHAR
STARTCHAR uni01B3
ENCODING 435
SWIDTH 576 0
DWIDTH 9 0
BBX 9 15 0 -3
BITMAP
0000
0000
0100
4100
A200
9400
0800
0800
0800
0800
0800
0800
0000
0000
0000
ENDCHAR
STARTCHAR uni01B4
ENCODING 436
SWIDTH 576 0
DWIDTH 9 0
BBX 9 15 0 -3
BITMAP
0000
0000
0000
0180
0200
4200
4200
4200
4200
4200
4600
3A00
0200
4200
3C00
ENDCHAR
STARTCHAR uni01B5
ENCODING 437
SWIDTH 576 0
DWIDTH 9 0
BBX 9 15 0 -3
BITMAP
0000
0000
7F00
0100
0200
0400
3E00
1000
2000
4000
4000
7F00
0000
0000
0000
ENDCHAR
STARTCHAR uni01B6
ENCODING 438
SWIDTH 576 0
DWIDTH 9 0
BBX 9 15 0 -3
BITMAP
0000
0000
0000
0000
0000
7F00
0200
0400
3E00
1000
2000
7F00
0000
0000
0000
ENDCHAR
STARTCHAR uni01B7
ENCODING 439
SWIDTH 576 0
DWIDTH 9 0
BBX 9 15 0 -3
BITMAP
0000
0000
7F00
0200
0400
0800
1C00
0200
0100
0100
4200
3C00
0000
0000
0000
ENDCHAR
STARTCHAR uni01B8
ENCODING 440
SWIDTH 576 0
DWIDTH 9 0
BBX 9 15 0 -3
BITMAP
0000
0000
7F00
2000
1000
0800
1C00
2000
4000
4000
2100
1E00
0000
0000
0000
ENDCHAR
STARTCHAR uni01B9
ENCODING 441
SWIDTH 576 0
DWIDTH 9 0
BBX 9 15 0 -3
BITMAP
0000
0000
0000
0000
0000
7E00
2000
1000
0800
1C00
2000
4000
4000
2200
1C00
ENDCHAR
STARTCHAR uni01BA
ENCODING 442
SWIDTH 576 0
DWIDTH 9 0
BBX 9 15 0 -3
BITMAP
0000
0000
0000
0000
0000
7E00
0400
0800
1000
3800
0400
0400
1800
2200
1C00
ENDCHAR
STARTCHAR uni01BB
ENCODING 443
SWIDTH 576 0
DWIDTH 9 0
BBX 9 15 0 -3
BITMAP
0000
0000
3E00
4100
4100
0100
0200
3E00
1000
2000
4000
7F00
0000
0000
0000
ENDCHAR
STARTCHAR uni01BC
ENCODING 444
SWIDTH 576 0
DWIDTH 9 0
BBX 9 15 0 -3
BITMAP
0000
0000
7F00
4100
4000
5E00
6100
0100
0100
0100
4100
3E00
0000
0000
0000
ENDCHAR
STARTCHAR uni01BD
ENCODING 445
SWIDTH 576 0
DWIDTH 9 0
BBX 9 15 0 -3
BITMAP
0000
0000
0000
3E00
2000
2000
2C00
3200
0200
0200
2200
1C00
0000
0000
0000
ENDCHAR
STARTCHAR uni01BE
ENCODING 446
SWIDTH 576 0
DWIDTH 9 0
BBX 9 15 0 -3
BITMAP
0000
0000
0800
0800
3E00
0800
0800
0400
0200
0200
2200
1C00
0000
0000
0000
ENDCHAR
STARTCHAR uni01BF
ENCODING 447
SWIDTH 576 0
DWIDTH 9 0
BBX 9 15 0 -3
BITMAP
0000
0000
0000
0000
0000
0000
2E00
3100
2100
2200
2400
3800
2000
2000
0000
ENDCHAR
STARTCHAR uni01C0
ENCODING 448
SWIDTH 576 0
DWIDTH 9 0
BBX 9 15 0 -3
BITMAP
0000
0000
0800
0800
0800
0800
0800
0800
0800
0800
0800
0800
0000
0000
0000
ENDCHAR
STARTCHAR uni01C1
ENCODING 449
SWIDTH 576 0
DWIDTH 9 0
BBX 9 15 0 -3
BITMAP
0000
0000
1400
1400
1400
1400
1400
1400
1400
1400
1400
1400
0000
0000
0000
ENDCHAR
STARTCHAR uni01C2
ENCODING 450
SWIDTH 576 0
DWIDTH 9 0
BBX 9 15 0 -3
BITMAP
0000
0000
0800
0800
0800
3E00
0800
0800
3E00
0800
0800
0800
0000
0000
0000
ENDCHAR
STARTCHAR uni01C3
ENCODING 451
SWIDTH 576 0
DWIDTH 9 0
BBX 9 15 0 -3
BITMAP
0000
0000
0800
0800
0800
0800
0800
0800
0000
0000
0800
0800
0000
0000
0000
ENDCHAR
STARTCHAR uni01C4
ENCODING 452
SWIDTH 576 0
DWIDTH 9 0
BBX 9 15 0 -3
BITMAP
0000
0500
0200
0000
F780
4880
4900
4900
4A00
4A00
4C00
F780
0000
0000
0000
ENDCHAR
STARTCHAR uni01C5
ENCODING 453
SWIDTH 576 0
DWIDTH 9 0
BBX 9 15 0 -3
BITMAP
0000
0000
F280
4900
4800
4F80
4880
4900
4900
4A00
4A00
F780
0000
0000
0000
ENDCHAR
STARTCHAR uni01C6
ENCODING 454
SWIDTH 576 0
DWIDTH 9 0
BBX 9 15 0 -3
BITMAP
0000
0000
0A80
0900
0800
6F80
9880
8900
8900
8A00
9A00
6F80
0000
0000
0000
ENDCHAR
STARTCHAR uni01C7
ENCODING 455
SWIDTH 576 0
DWIDTH 9 0
BBX 9 15 0 -3
BITMAP
0000
0000
8100
8100
8100
8100
8100
8100
8100
8100
8900
F600
0000
0000
0000
ENDCHAR
STARTCHAR uni01C8
ENCODING 456
SWIDTH 576 0
DWIDTH 9 0
BBX 9 15 0 -3
BITMAP
0000
0000
4300
4000
4000
4300
4100
4100
4100
4100
4100
7900
0100
0900
0600
ENDCHAR
STARTCHAR uni01C9
ENCODING 457
SWIDTH 576 0
DWIDTH 9 0
BBX 9 15 0 -3
BITMAP
0000
0000
6300
2000
2000
2300
2100
2100
2100
2100
2100
7100
0100
0900
0600
ENDCHAR
STARTCHAR uni01CA
ENCODING 458
SWIDTH 576 0
DWIDTH 9 0
BBX 9 15 0 -3
BITMAP
0000
0000
8880
8880
8880
C880
A880
A880
9880
8880
8C80
8B00
0000
0000
0000
ENDCHAR
STARTCHAR uni01CB
ENCODING 459
SWIDTH 576 0
DWIDTH 9 0
BBX 9 15 0 -3
BITMAP
0000
0000
8B00
8800
8800
CB00
A900
A900
9900
8900
8900
8900
0100
0900
0600
ENDCHAR
STARTCHAR uni01CC
ENCODING 460
SWIDTH 576 0
DWIDTH 9 0
BBX 9 15 0 -3
BITMAP
0000
0000
0300
0000
0000
5900
6500
4500
4500
4500
4500
4500
0100
0900
0600
ENDCHAR
STARTCHAR uni01CD
ENCODING 461
SWIDTH 576 0
DWIDTH 9 0
BBX 9 15 0 -3
BITMAP
2200
1400
0800
0000
1C00
2200
4100
4100
7F00
4100
4100
4100
0000
0000
0000
ENDCHAR
STARTCHAR uni01CE
ENCODING 462
SWIDTH 576 0
DWIDTH 9 0
BBX 9 15 0 -3
BITMAP
0000
2200
1400
0800
0000
3E00
0100
0100
3F00
4100
4300
3D00
0000
0000
0000
ENDCHAR
STARTCHAR uni01CF
ENCODING 463
SWIDTH 576 0
DWIDTH 9 0
BBX 9 15 0 -3
BITMAP
2200
1400
0800
0000
3E00
0800
0800
0800
0800
0800
0800
3E00
0000
0000
0000
ENDCHAR
STARTCHAR uni01D0
ENCODING 464
SWIDTH 576 0
DWIDTH 9 0
BBX 9 15 0 -3
BITMAP
0000
2200
1400
0800
0000
3800
0800
0800
0800
0800
0800
3E00
0000
0000
0000
ENDCHAR
STARTCHAR uni01D1
ENCODING 465
SWIDTH 576 0
DWIDTH 9 0
BBX 9 15 0 -3
BITMAP
2200
1400
0800
0000
3E00
4100
4100
4100
4100
4100
4100
3E00
0000
0000
0000
ENDCHAR
STARTCHAR uni01D2
ENCODING 466
SWIDTH 576 0
DWIDTH 9 0
BBX 9 15 0 -3
BITMAP
0000
2200
1400
0800
0000
3E00
4100
4100
4100
4100
4100
3E00
0000
0000
0000
ENDCHAR
STARTCHAR uni01D3
ENCODING 467
SWIDTH 576 0
DWIDTH 9 0
BBX 9 15 0 -3
BITMAP
2200
1400
0800
0000
4100
4100
4100
4100
4100
4100
4100
3E00
0000
0000
0000
ENDCHAR
STARTCHAR uni01D4
ENCODING 468
SWIDTH 576 0
DWIDTH 9 0
BBX 9 15 0 -3
BITMAP
0000
2200
1400
0800
0000
4200
4200
4200
4200
4200
4200
3D00
0000
0000
0000
ENDCHAR
STARTCHAR uni01D5
ENCODING 469
SWIDTH 576 0
DWIDTH 9 0
BBX 9 15 0 -3
BITMAP
0000
3E00
0000
3600
0000
4100
4100
4100
4100
4100
4100
3E00
0000
0000
0000
ENDCHAR
STARTCHAR uni01D6
ENCODING 470
SWIDTH 576 0
DWIDTH 9 0
BBX 9 15 0 -3
BITMAP
0000
7E00
0000
6600
0000
4200
4200
4200
4200
4200
4200
3D00
0000
0000
0000
ENDCHAR
STARTCHAR uni01D7
ENCODING 471
SWIDTH 576 0
DWIDTH 9 0
BBX 9 15 0 -3
BITMAP
0400
0800
0000
3600
0000
4100
4100
4100
4100
4100
4100
3E00
0000
0000
0000
ENDCHAR
STARTCHAR uni01D8
ENCODING 472
SWIDTH 576 0
DWIDTH 9 0
BBX 9 15 0 -3
BITMAP
0400
0800
0000
6600
0000
4200
4200
4200
4200
4200
4200
3D00
0000
0000
0000
ENDCHAR
STARTCHAR uni01D9
ENCODING 473
SWIDTH 576 0
DWIDTH 9 0
BBX 9 15 0 -3
BITMAP
1400
0800
0000
3600
0000
4100
4100
4100
4100
4100
4100
3E00
0000
0000
0000
ENDCHAR
STARTCHAR uni01DA
ENCODING 474
SWIDTH 576 0
DWIDTH 9 0
BBX 9 15 0 -3
BITMAP
2400
1800
0000
6600
0000
4200
4200
4200
4200
4200
4200
3D00
0000
0000
0000
ENDCHAR
STARTCHAR uni01DB
ENCODING 475
SWIDTH 576 0
DWIDTH 9 0
BBX 9 15 0 -3
BITMAP
1000
0800
0000
6300
0000
4100
4100
4100
4100
4100
4100
3E00
0000
0000
0000
ENDCHAR
STARTCHAR uni01DC
ENCODING 476
SWIDTH 576 0
DWIDTH 9 0
BBX 9 15 0 -3
BITMAP
2000
1000
0000
6600
0000
4200
4200
4200
4200
4200
4200
3D00
0000
0000
0000
ENDCHAR
STARTCHAR uni01DD
ENCODING 477
SWIDTH 576 0
DWIDTH 9 0
BBX 9 15 0 -3
BITMAP
0000
0000
0000
0000
0000
3E00
0100
0100
7F00
4100
4100
3E00
0000
0000
0000
ENDCHAR
STARTCHAR uni01DE
ENCODING 478
SWIDTH 576 0
DWIDTH 9 0
BBX 9 15 0 -3
BITMAP
3E00
0000
3600
0000
1C00
2200
4100
4100
7F00
4100
4100
4100
0000
0000
0000
ENDCHAR
STARTCHAR uni01DF
ENCODING 479
SWIDTH 576 0
DWIDTH 9 0
BBX 9 15 0 -3
BITMAP
0000
3E00
0000
3600
0000
3E00
0100
0100
3F00
4100
4300
3D00
0000
0000
0000
ENDCHAR
STARTCHAR uni01E0
ENCODING 480
SWIDTH 576 0
DWIDTH 9 0
BBX 9 15 0 -3
BITMAP
3E00
0000
1800
0000
1C00
2200
4100
4100
7F00
4100
4100
4100
0000
0000
0000
ENDCHAR
STARTCHAR uni01E1
ENCODING 481
SWIDTH 576 0
DWIDTH 9 0
BBX 9 15 0 -3
BITMAP
0000
3E00
0000
0C00
0000
3E00
0100
0100
3F00
4100
4300
3D00
0000
0000
0000
ENDCHAR
STARTCHAR uni01E2
ENCODING 482
SWIDTH 576 0
DWIDTH 9 0
BBX 9 15 0 -3
BITMAP
0000
3E00
0000
3F00
4800
4800
4800
7E00
4800
4800
4800
4F00
0000
0000
0000
ENDCHAR
STARTCHAR uni01E3
ENCODING 483
SWIDTH 576 0
DWIDTH 9 0
BBX 9 15 0 -3
BITMAP
0000
0000
0000
3E00
0000
3600
4900
0900
3E00
4800
4900
3700
0000
0000
0000
ENDCHAR
STARTCHAR uni01E4
ENCODING 484
SWIDTH 576 0
DWIDTH 9 0
BBX 9 15 0 -3
BITMAP
0000
0000
3E00
4100
4000
4000
4000
4700
4100
4F80
4100
3E00
0000
0000
0000
ENDCHAR
STARTCHAR uni01E5
ENCODING 485
SWIDTH 576 0
DWIDTH 9 0
BBX 9 15 0 -3
BITMAP
0000
0000
0000
0000
0000
3D00
4200
4200
4200
4200
4200
3E00
0200
FF80
3C00
ENDCHAR
STARTCHAR Gcaron
ENCODING 486
SWIDTH 576 0
DWIDTH 9 0
BBX 9 15 0 -3
BITMAP
2200
1400
0800
0000
3E00
4100
4000
4000
4700
4100
4100
3E00
0000
0000
0000
ENDCHAR
STARTCHAR gcaron
ENCODING 487
SWIDTH 576 0
DWIDTH 9 0
BBX 9 15 0 -3
BITMAP
0000
2200
1400
0800
0000
3D00
4200
4200
4200
3C00
4000
3E00
4100
4100
3E00
ENDCHAR
STARTCHAR uni01E8
ENCODING 488
SWIDTH 576 0
DWIDTH 9 0
BBX 9 15 0 -3
BITMAP
2200
1400
0800
0000
4100
4200
4400
7800
4800
4400
4200
4100
0000
0000
0000
ENDCHAR
STARTCHAR uni01E9
ENCODING 489
SWIDTH 576 0
DWIDTH 9 0
BBX 9 15 0 -3
BITMAP
2200
1400
4800
4000
4000
4100
4600
5800
6000
5800
4600
4100
0000
0000
0000
ENDCHAR
STARTCHAR uni01EA
ENCODING 490
SWIDTH 576 0
DWIDTH 9 0
BBX 9 15 0 -3
BITMAP
0000
0000
3E00
4100
4100
4100
4100
4100
4100
4100
4100
3E00
1000
1800
0000
ENDCHAR
STARTCHAR uni01EB
ENCODING 491
SWIDTH 576 0
DWIDTH 9 0
BBX 9 15 0 -3
BITMAP
0000
0000
0000
0000
0000
3E00
4100
4100
4100
4100
4100
3E00
1000
1800
0000
ENDCHAR
STARTCHAR uni01EC
ENCODING 492
SWIDTH 576 0
DWIDTH 9 0
BBX 9 15 0 -3
BITMAP
0000
0000
3E00
0000
3E00
4100
4100
4100
4100
4100
4100
3E00
1000
1800
0000
ENDCHAR
STARTCHAR uni01ED
ENCODING 493
SWIDTH 576 0
DWIDTH 9 0
BBX 9 15 0 -3
BITMAP
0000
0000
0000
3E00
0000
3E00
4100
4100
4100
4100
4100
3E00
1000
1800
0000
ENDCHAR
STARTCHAR uni01EE
ENCODING 494
SWIDTH 576 0
DWIDTH 9 0
BBX 9 15 0 -3
BITMAP
2200
1400
0800
7F00
0200
0400
0800
1C00
0200
0100
4200
3C00
0000
0000
0000
ENDCHAR
STARTCHAR uni01EF
ENCODING 495
SWIDTH 576 0
DWIDTH 9 0
BBX 9 15 0 -3
BITMAP
0000
2200
1400
0800
0000
3F00
0200
0400
0800
1C00
0200
0100
0100
2200
1C00
ENDCHAR
STARTCHAR uni01F0
ENCODING 496
SWIDTH 576 0
DWIDTH 9 0
BBX 9 15 0 -3
BITMAP
0000
1100
0A00
0400
0000
0E00
0200
0200
0200
0200
0200
4200
4200
4200
3C00
ENDCHAR
STARTCHAR uni01F1
ENCODING 497
SWIDTH 576 0
DWIDTH 9 0
BBX 9 15 0 -3
BITMAP
0000
0000
F780
4880
4880
4900
4900
4A00
4A00
4C00
4C00
F780
0000
0000
0000
ENDCHAR
STARTCHAR uni01F2
ENCODING 498
SWIDTH 576 0
DWIDTH 9 0
BBX 9 15 0 -3
BITMAP
0000
0000
F000
4800
4800
4F80
4880
4900
4900
4A00
4A00
F780
0000
0000
0000
ENDCHAR
STARTCHAR uni01F3
ENCODING 499
SWIDTH 576 0
DWIDTH 9 0
BBX 9 15 0 -3
BITMAP
0000
0000
0800
0800
0800
6F80
9880
8900
8900
8A00
9A00
6F80
0000
0000
0000
ENDCHAR
STARTCHAR uni01F4
ENCODING 500
SWIDTH 576 0
DWIDTH 9 0
BBX 9 15 0 -3
BITMAP
0200
0400
0800
0000
3E00
4100
4000
4000
4700
4100
4100
3E00
0000
0000
0000
ENDCHAR
STARTCHAR uni01F5
ENCODING 501
SWIDTH 576 0
DWIDTH 9 0
BBX 9 15 0 -3
BITMAP
0000
0200
0400
0800
0000
3D00
4200
4200
4200
3C00
4000
3E00
4100
4100
3E00
ENDCHAR
STARTCHAR uni01F6
ENCODING 502
SWIDTH 576 0
DWIDTH 9 0
BBX 9 15 0 -3
BITMAP
0000
0000
4800
4800
4800
4900
7900
4900
4900
4900
4900
4600
0000
0000
0000
ENDCHAR
STARTCHAR uni01F7
ENCODING 503
SWIDTH 576 0
DWIDTH 9 0
BBX 9 15 0 -3
BITMAP
0000
0000
5E00
6100
4100
4100
4100
4600
5800
6000
4000
4000
4000
4000
0000
ENDCHAR
STARTCHAR uni01F8
ENCODING 504
SWIDTH 576 0
DWIDTH 9 0
BBX 9 15 0 -3
BITMAP
0000
2000
1000
0800
4100
4100
6100
5100
4900
4500
4300
4100
0000
0000
0000
ENDCHAR
STARTCHAR uni01F9
ENCODING 505
SWIDTH 576 0
DWIDTH 9 0
BBX 9 15 0 -3
BITMAP
0000
2000
1000
0800
0000
5E00
6100
4100
4100
4100
4100
4100
0000
0000
0000
ENDCHAR
STARTCHAR Aringacute
ENCODING 506
SWIDTH 576 0
DWIDTH 9 0
BBX 9 15 0 -3
BITMAP
0400
0800
0000
1C00
2200
1C00
1400
2200
4100
7F00
4100
4100
0000
0000
0000
ENDCHAR
STARTCHAR aringacute
ENCODING 507
SWIDTH 576 0
DWIDTH 9 0
BBX 9 15 0 -3
BITMAP
0400
0800
0000
0C00
1200
0C00
3E00
0100
3F00
4100
4300
3D00
0000
0000
0000
ENDCHAR
STARTCHAR AEacute
ENCODING 508
SWIDTH 576 0
DWIDTH 9 0
BBX 9 15 0 -3
BITMAP
0200
0400
0800
0000
3F00
4800
4800
7E00
4800
4800
4800
4F00
0000
0000
0000
ENDCHAR
STARTCHAR aeacute
ENCODING 509
SWIDTH 576 0
DWIDTH 9 0
BBX 9 15 0 -3
BITMAP
0000
0200
0400
0800
0000
3600
4900
0900
3E00
4800
4900
3700
0000
0000
0000
ENDCHAR
STARTCHAR Oslashacute
ENCODING 510
SWIDTH 576 0
DWIDTH 9 0
BBX 9 15 0 -3
BITMAP
0200
0400
0800
0100
3E00
4300
4500
4900
4900
5100
6100
3E00
4000
0000
0000
ENDCHAR
STARTCHAR oslashacute
ENCODING 511
SWIDTH 576 0
DWIDTH 9 0
BBX 9 15 0 -3
BITMAP
0000
0200
0400
0800
0100
3E00
4500
4500
4900
5100
5100
3E00
4000
0000
0000
ENDCHAR
STARTCHAR uni0200
ENCODING 512
SWIDTH 576 0
DWIDTH 9 0
BBX 9 15 0 -3
BITMAP
0000
2400
1200
0000
1C00
2200
4100
4100
7F00
4100
4100
4100
0000
0000
0000
ENDCHAR
STARTCHAR uni0201
ENCODING 513
SWIDTH 576 0
DWIDTH 9 0
BBX 9 15 0 -3
BITMAP
0000
0000
2400
1200
0000
3E00
0100
0100
3F00
4100
4300
3D00
0000
0000
0000
ENDCHAR
STARTCHAR uni0202
ENCODING 514
SWIDTH 576 0
DWIDTH 9 0
BBX 9 15 0 -3
BITMAP
0000
1C00
2200
0000
1C00
2200
4100
4100
7F00
4100
4100
4100
0000
0000
0000
ENDCHAR
STARTCHAR uni0203
ENCODING 515
SWIDTH 576 0
DWIDTH 9 0
BBX 9 15 0 -3
BITMAP
0000
0000
1C00
2200
0000
3E00
0100
0100
3F00
4100
4300
3D00
0000
0000
0000
ENDCHAR
STARTCHAR uni0204
ENCODING 516
SWIDTH 576 0
DWIDTH 9 0
BBX 9 15 0 -3
BITMAP
0000
2400
1200
0000
7F00
4000
4000
7C00
4000
4000
4000
7F00
0000
0000
0000
ENDCHAR
STARTCHAR uni0205
ENCODING 517
SWIDTH 576 0
DWIDTH 9 0
BBX 9 15 0 -3
BITMAP
0000
0000
2400
1200
0000
3E00
4100
4100
7F00
4000
4000
3E00
0000
0000
0000
ENDCHAR
STARTCHAR uni0206
ENCODING 518
SWIDTH 576 0
DWIDTH 9 0
BBX 9 15 0 -3
BITMAP
0000
1C00
2200
0000
7F00
4000
4000
7C00
4000
4000
4000
7F00
0000
0000
0000
ENDCHAR
STARTCHAR uni0207
ENCODING 519
SWIDTH 576 0
DWIDTH 9 0
BBX 9 15 0 -3
BITMAP
0000
0000
1C00
2200
0000
3E00
4100
4100
7F00
4000
4000
3E00
0000
0000
0000
ENDCHAR
STARTCHAR uni0208
ENCODING 520
SWIDTH 576 0
DWIDTH 9 0
BBX 9 15 0 -3
BITMAP
0000
2400
1200
0000
3E00
0800
0800
0800
0800
0800
0800
3E00
0000
0000
0000
ENDCHAR
STARTCHAR uni0209
ENCODING 521
SWIDTH 576 0
DWIDTH 9 0
BBX 9 15 0 -3
BITMAP
0000
4800
2400
0000
3800
0800
0800
0800
0800
0800
0800
3E00
0000
0000
0000
ENDCHAR
STARTCHAR uni020A
ENCODING 522
SWIDTH 576 0
DWIDTH 9 0
BBX 9 15 0 -3
BITMAP
0000
1C00
2200
0000
3E00
0800
0800
0800
0800
0800
0800
3E00
0000
0000
0000
ENDCHAR
STARTCHAR uni020B
ENCODING 523
SWIDTH 576 0
DWIDTH 9 0
BBX 9 15 0 -3
BITMAP
0000
3800
4400
0000
3800
0800
0800
0800
0800
0800
0800
3E00
0000
0000
0000
ENDCHAR
STARTCHAR uni020C
ENCODING 524
SWIDTH 576 0
DWIDTH 9 0
BBX 9 15 0 -3
BITMAP
0000
2400
1200
0000
3E00
4100
4100
4100
4100
4100
4100
3E00
0000
0000
0000
ENDCHAR
STARTCHAR uni020D
ENCODING 525
SWIDTH 576 0
DWIDTH 9 0
BBX 9 15 0 -3
BITMAP
0000
0000
2400
1200
0000
3E00
4100
4100
4100
4100
4100
3E00
0000
0000
0000
ENDCHAR
STARTCHAR uni020E
ENCODING 526
SWIDTH 576 0
DWIDTH 9 0
BBX 9 15 0 -3
BITMAP
0000
1C00
2200
0000
3E00
4100
4100
4100
4100
4100
4100
3E00
0000
0000
0000
ENDCHAR
STARTCHAR uni020F
ENCODING 527
SWIDTH 576 0
DWIDTH 9 0
BBX 9 15 0 -3
BITMAP
0000
0000
1C00
2200
0000
3E00
4100
4100
4100
4100
4100
3E00
0000
0000
0000
ENDCHAR
STARTCHAR uni0210
ENCODING 528
SWIDTH 576 0
DWIDTH 9 0
BBX 9 15 0 -3
BITMAP
0000
2400
1200
0000
7E00
4100
4100
4100
7E00
4200
4100
4100
0000
0000
0000
ENDCHAR
STARTCHAR uni0211
ENCODING 529
SWIDTH 576 0
DWIDTH 9 0
BBX 9 15 0 -3
BITMAP
0000
0000
2400
1200
0000
4E00
3100
2100
2000
2000
2000
2000
0000
0000
0000
ENDCHAR
STARTCHAR uni0212
ENCODING 530
SWIDTH 576 0
DWIDTH 9 0
BBX 9 15 0 -3
BITMAP
0000
1C00
2200
0000
7E00
4100
4100
4100
7E00
4200
4100
4100
0000
0000
0000
ENDCHAR
STARTCHAR uni0213
ENCODING 531
SWIDTH 576 0
DWIDTH 9 0
BBX 9 15 0 -3
BITMAP
0000
0000
1C00
2200
0000
4E00
3100
2100
2000
2000
2000
2000
0000
0000
0000
ENDCHAR
STARTCHAR uni0214
ENCODING 532
SWIDTH 576 0
DWIDTH 9 0
BBX 9 15 0 -3
BITMAP
0000
2400
1200
0000
4100
4100
4100
4100
4100
4100
4100
3E00
0000
0000
0000
ENDCHAR
STARTCHAR uni0215
ENCODING 533
SWIDTH 576 0
DWIDTH 9 0
BBX 9 15 0 -3
BITMAP
0000
0000
4800
2400
0000
4200
4200
4200
4200
4200
4200
3D00
0000
0000
0000
ENDCHAR
STARTCHAR uni0216
ENCODING 534
SWIDTH 576 0
DWIDTH 9 0
BBX 9 15 0 -3
BITMAP
0000
1C00
2200
0000
4100
4100
4100
4100
4100
4100
4100
3E00
0000
0000
0000
ENDCHAR
STARTCHAR uni0217
ENCODING 535
SWIDTH 576 0
DWIDTH 9 0
BBX 9 15 0 -3
BITMAP
0000
0000
1C00
2200
0000
4200
4200
4200
4200
4200
4200
3D00
0000
0000
0000
ENDCHAR
STARTCHAR Scommaaccent
ENCODING 536
SWIDTH 576 0
DWIDTH 9 0
BBX 9 15 0 -3
BITMAP
0000
0000
3E00
4100
4100
4000
3800
0600
0100
4100
4100
3E00
0C00
0400
0800
ENDCHAR
STARTCHAR scommaaccent
ENCODING 537
SWIDTH 576 0
DWIDTH 9 0
BBX 9 15 0 -3
BITMAP
0000
0000
0000
0000
0000
3E00
4100
4000
3E00
0100
4100
3E00
0C00
0400
0800
ENDCHAR
STARTCHAR Tcommaaccent
ENCODING 538
SWIDTH 576 0
DWIDTH 9 0
BBX 9 15 0 -3
BITMAP
0000
0000
7F00
0800
0800
0800
0800
0800
0800
0800
0800
0800
0C00
0400
0800
ENDCHAR
STARTCHAR tcommaaccent
ENCODING 539
SWIDTH 576 0
DWIDTH 9 0
BBX 9 15 0 -3
BITMAP
0000
0000
0000
1000
1000
7E00
1000
1000
1000
1000
1100
0E00
0C00
0400
0800
ENDCHAR
STARTCHAR uni021C
ENCODING 540
SWIDTH 576 0
DWIDTH 9 0
BBX 9 15 0 -3
BITMAP
0000
0000
5E00
6100
0100
0200
0C00
3200
0100
0100
0600
7800
0000
0000
0000
ENDCHAR
STARTCHAR uni021D
ENCODING 541
SWIDTH 576 0
DWIDTH 9 0
BBX 9 15 0 -3
BITMAP
0000
0000
0000
0000
0000
2E00
3100
0100
0200
0C00
3200
0100
0100
0600
3800
ENDCHAR
STARTCHAR uni021E
ENCODING 542
SWIDTH 576 0
DWIDTH 9 0
BBX 9 15 0 -3
BITMAP
2200
1400
0800
4100
4100
4100
4100
7F00
4100
4100
4100
4100
0000
0000
0000
ENDCHAR
STARTCHAR uni021F
ENCODING 543
SWIDTH 576 0
DWIDTH 9 0
BBX 9 15 0 -3
BITMAP
2200
1400
4800
4000
4000
5E00
6100
4100
4100
4100
4100
4100
0000
0000
0000
ENDCHAR
STARTCHAR uni0220
ENCODING 544
SWIDTH 576 0
DWIDTH 9 0
BBX 9 15 0 -3
BITMAP
0000
0000
5E00
6100
4100
4100
4100
4100
4100
4100
4100
4100
0100
0100
0100
ENDCHAR
STARTCHAR uni0222
ENCODING 546
SWIDTH 576 0
DWIDTH 9 0
BBX 9 15 0 -3
BITMAP
0000
0000
2200
4100
4100
4100
3E00
4100
4100
4100
4100
3E00
0000
0000
0000
ENDCHAR
STARTCHAR uni0223
ENCODING 547
SWIDTH 576 0
DWIDTH 9 0
BBX 9 15 0 -3
BITMAP
0000
0000
0000
1200
2100
2100
2100
1E00
2100
2100
2100
1E00
0000
0000
0000
ENDCHAR
STARTCHAR uni0224
ENCODING 548
SWIDTH 576 0
DWIDTH 9 0
BBX 9 15 0 -3
BITMAP
0000
0000
7F00
0100
0200
0400
0800
1000
2000
4000
4000
7F00
0100
0600
0000
ENDCHAR
STARTCHAR uni0225
ENCODING 549
SWIDTH 576 0
DWIDTH 9 0
BBX 9 15 0 -3
BITMAP
0000
0000
0000
0000
0000
7F00
0200
0400
0800
1000
2000
7F00
0100
0600
0000
ENDCHAR
STARTCHAR uni0226
ENCODING 550
SWIDTH 576 0
DWIDTH 9 0
BBX 9 15 0 -3
BITMAP
0000
0800
0000
1C00
2200
4100
4100
4100
7F00
4100
4100
4100
0000
0000
0000
ENDCHAR
STARTCHAR uni0227
ENCODING 551
SWIDTH 576 0
DWIDTH 9 0
BBX 9 15 0 -3
BITMAP
0000
0000
0000
0800
0000
3E00
0100
0100
3F00
4100
4300
3D00
0000
0000
0000
ENDCHAR
STARTCHAR uni0228
ENCODING 552
SWIDTH 576 0
DWIDTH 9 0
BBX 9 15 0 -3
BITMAP
0000
0000
7F00
4000
4000
4000
7C00
4000
4000
4000
4000
7F00
0800
2400
1800
ENDCHAR
STARTCHAR uni0229
ENCODING 553
SWIDTH 576 0
DWIDTH 9 0
BBX 9 15 0 -3
BITMAP
0000
0000
0000
0000
0000
3E00
4100
4100
7F00
4000
4000
3E00
0800
2400
1800
ENDCHAR
STARTCHAR uni022A
ENCODING 554
SWIDTH 576 0
DWIDTH 9 0
BBX 9 15 0 -3
BITMAP
3E00
0000
1400
0000
3E00
4100
4100
4100
4100
4100
4100
3E00
0000
0000
0000
ENDCHAR
STARTCHAR uni022B
ENCODING 555
SWIDTH 576 0
DWIDTH 9 0
BBX 9 15 0 -3
BITMAP
0000
7E00
0000
2400
0000
3C00
4200
4200
4200
4200
4200
3C00
0000
0000
0000
ENDCHAR
STARTCHAR uni022C
ENCODING 556
SWIDTH 576 0
DWIDTH 9 0
BBX 9 15 0 -3
BITMAP
3E00
1A00
2C00
0000
3E00
4100
4100
4100
4100
4100
4100
3E00
0000
0000
0000
ENDCHAR
STARTCHAR uni022D
ENCODING 557
SWIDTH 576 0
DWIDTH 9 0
BBX 9 15 0 -3
BITMAP
7E00
0000
1400
2800
0000
3C00
4200
4200
4200
4200
4200
3C00
0000
0000
0000
ENDCHAR
STARTCHAR uni022E
ENCODING 558
SWIDTH 576 0
DWIDTH 9 0
BBX 9 15 0 -3
BITMAP
0800
0000
3E00
4100
4100
4100
4100
4100
4100
4100
4100
3E00
0000
0000
0000
ENDCHAR
STARTCHAR uni022F
ENCODING 559
SWIDTH 576 0
DWIDTH 9 0
BBX 9 15 0 -3
BITMAP
0000
0000
0000
0800
0000
3E00
4100
4100
4100
4100
4100
3E00
0000
0000
0000
ENDCHAR
STARTCHAR uni0230
ENCODING 560
SWIDTH 576 0
DWIDTH 9 0
BBX 9 15 0 -3
BITMAP
3E00
0000
0800
0000
3E00
4100
4100
4100
4100
4100
4100
3E00
0000
0000
0000
ENDCHAR
STARTCHAR uni0231
ENCODING 561
SWIDTH 576 0
DWIDTH 9 0
BBX 9 15 0 -3
BITMAP
0000
3E00
0000
0800
0000
3E00
4100
4100
4100
4100
4100
3E00
0000
0000
0000
ENDCHAR
STARTCHAR uni0232
ENCODING 562
SWIDTH 576 0
DWIDTH 9 0
BBX 9 15 0 -3
BITMAP
0000
3E00
0000
4100
4100
2200
1400
0800
0800
0800
0800
0800
0000
0000
0000
ENDCHAR
STARTCHAR uni0233
ENCODING 563
SWIDTH 576 0
DWIDTH 9 0
BBX 9 15 0 -3
BITMAP
0000
0000
0000
3C00
0000
4200
4200
4200
4200
4200
4600
3A00
0200
4200
3C00
ENDCHAR
STARTCHAR uni0250
ENCODING 592
SWIDTH 576 0
DWIDTH 9 0
BBX 9 15 0 -3
BITMAP
0000
0000
0000
0000
0000
5E00
6100
4100
7E00
4000
4000
3E00
0000
0000
0000
ENDCHAR
STARTCHAR uni0251
ENCODING 593
SWIDTH 576 0
DWIDTH 9 0
BBX 9 15 0 -3
BITMAP
0000
0000
0000
0000
0000
3D00
4300
4100
4100
4100
4300
3D00
0000
0000
0000
ENDCHAR
STARTCHAR uni0252
ENCODING 594
SWIDTH 576 0
DWIDTH 9 0
BBX 9 15 0 -3
BITMAP
0000
0000
0000
0000
0000
5E00
6100
4100
4100
4100
6100
5E00
0000
0000
0000
ENDCHAR
STARTCHAR uni0253
ENCODING 595
SWIDTH 576 0
DWIDTH 9 0
BBX 9 15 0 -3
BITMAP
0000
3800
4400
4000
4000
5E00
6100
4100
4100
4100
6100
5E00
0000
0000
0000
ENDCHAR
STARTCHAR uni0254
ENCODING 596
SWIDTH 576 0
DWIDTH 9 0
BBX 9 15 0 -3
BITMAP
0000
0000
0000
0000
0000
3E00
4100
0100
0100
0100
4100
3E00
0000
0000
0000
ENDCHAR
STARTCHAR uni0255
ENCODING 597
SWIDTH 576 0
DWIDTH 9 0
BBX 9 15 0 -3
BITMAP
0000
0000
0000
0000
0000
3E00
4100
4000
4000
4600
4900
3E00
1000
0000
0000
ENDCHAR
STARTCHAR uni0256
ENCODING 598
SWIDTH 576 0
DWIDTH 9 0
BBX 9 15 0 -3
BITMAP
0000
0000
0200
0200
0200
3A00
4600
4200
4200
4200
4600
3A00
0180
0000
0000
ENDCHAR
STARTCHAR uni0257
ENCODING 599
SWIDTH 576 0
DWIDTH 9 0
BBX 9 15 0 -3
BITMAP
0000
0000
0180
0200
0200
3A00
4600
4200
4200
4200
4600
3A00
0000
0000
0000
ENDCHAR
STARTCHAR uni0258
ENCODING 600
SWIDTH 576 0
DWIDTH 9 0
BBX 9 15 0 -3
BITMAP
0000
0000
0000
0000
0000
3E00
4100
4100
7F00
0100
0100
3E00
0000
0000
0000
ENDCHAR
STARTCHAR uni0259
ENCODING 601
SWIDTH 576 0
DWIDTH 9 0
BBX 9 15 0 -3
BITMAP
0000
0000
0000
0000
0000
3E00
0100
0100
7F00
4100
4100
3E00
0000
0000
0000
ENDCHAR
STARTCHAR uni025A
ENCODING 602
SWIDTH 576 0
DWIDTH 9 0
BBX 9 15 0 -3
BITMAP
0000
0000
0000
0000
0000
3800
0600
0500
7C00
4400
4400
3800
0000
0000
0000
ENDCHAR
STARTCHAR uni025B
ENCODING 603
SWIDTH 576 0
DWIDTH 9 0
BBX 9 15 0 -3
BITMAP
0000
0000
0000
0000
0000
3E00
4100
4000
3C00
4000
4100
3E00
0000
0000
0000
ENDCHAR
STARTCHAR uni025C
ENCODING 604
SWIDTH 576 0
DWIDTH 9 0
BBX 9 15 0 -3
BITMAP
0000
0000
0000
0000
0000
3E00
4100
0100
1E00
0100
4100
3E00
0000
0000
0000
ENDCHAR
STARTCHAR uni025D
ENCODING 605
SWIDTH 576 0
DWIDTH 9 0
BBX 9 15 0 -3
BITMAP
0000
0000
0000
0000
0000
3A00
4500
0400
3800
0400
4400
3800
0000
0000
0000
ENDCHAR
STARTCHAR uni025E
ENCODING 606
SWIDTH 576 0
DWIDTH 9 0
BBX 9 15 0 -3
BITMAP
0000
0000
0000
0000
0000
3E00
4100
4100
5E00
4100
4100
3E00
0000
0000
0000
ENDCHAR
STARTCHAR uni025F
ENCODING 607
SWIDTH 576 0
DWIDTH 9 0
BBX 9 15 0 -3
BITMAP
0000
0000
0000
0000
0000
0400
0400
0400
0400
1F00
0400
0400
4400
4400
3800
ENDCHAR
STARTCHAR uni0260
ENCODING 608
SWIDTH 576 0
DWIDTH 9 0
BBX 9 15 0 -3
BITMAP
0000
0000
0100
0200
0200
3E00
4200
4200
4200
4200
4600
3A00
0200
4200
3C00
ENDCHAR
STARTCHAR uni0261
ENCODING 609
SWIDTH 576 0
DWIDTH 9 0
BBX 9 15 0 -3
BITMAP
0000
0000
0000
0000
0000
3C00
4200
4200
4200
4200
4600
3A00
0200
4200
3C00
ENDCHAR
STARTCHAR uni0262
ENCODING 610
SWIDTH 576 0
DWIDTH 9 0
BBX 9 15 0 -3
BITMAP
0000
0000
0000
0000
0000
3E00
4100
4000
4700
4100
4100
3E00
0000
0000
0000
ENDCHAR
STARTCHAR uni0263
ENCODING 611
SWIDTH 576 0
DWIDTH 9 0
BBX 9 15 0 -3
BITMAP
0000
0000
0000
0000
0000
4100
4100
2200
1400
1400
0800
0800
1400
0800
0000
ENDCHAR
STARTCHAR uni0264
ENCODING 612
SWIDTH 576 0
DWIDTH 9 0
BBX 9 15 0 -3
BITMAP
0000
0000
0000
0000
0000
2200
5500
1400
0800
1400
1400
0800
0000
0000
0000
ENDCHAR
STARTCHAR uni0265
ENCODING 613
SWIDTH 576 0
DWIDTH 9 0
BBX 9 15 0 -3
BITMAP
0000
0000
0000
0000
0000
4100
4100
4100
4100
4100
4300
3D00
0100
0100
0100
ENDCHAR
STARTCHAR uni0266
ENCODING 614
SWIDTH 576 0
DWIDTH 9 0
BBX 9 15 0 -3
BITMAP
0000
0000
3000
4000
4000
5E00
6100
4100
4100
4100
4100
4100
0000
0000
0000
ENDCHAR
STARTCHAR uni0267
ENCODING 615
SWIDTH 576 0
DWIDTH 9 0
BBX 9 15 0 -3
BITMAP
0000
0000
3000
4000
4000
5E00
6100
4100
4100
4100
4100
4100
0900
0600
0000
ENDCHAR
STARTCHAR uni0268
ENCODING 616
SWIDTH 576 0
DWIDTH 9 0
BBX 9 15 0 -3
BITMAP
0000
0000
1800
0000
0000
3800
0800
0800
1C00
0800
0800
3E00
0000
0000
0000
ENDCHAR
STARTCHAR uni0269
ENCODING 617
SWIDTH 576 0
DWIDTH 9 0
BBX 9 15 0 -3
BITMAP
0000
0000
0000
0000
0000
1800
0800
0800
0800
0800
0A00
0400
0000
0000
0000
ENDCHAR
STARTCHAR uni026A
ENCODING 618
SWIDTH 576 0
DWIDTH 9 0
BBX 9 15 0 -3
BITMAP
0000
0000
0000
0000
0000
3E00
0800
0800
0800
0800
0800
3E00
0000
0000
0000
ENDCHAR
STARTCHAR uni026B
ENCODING 619
SWIDTH 576 0
DWIDTH 9 0
BBX 9 15 0 -3
BITMAP
0000
0000
3800
0800
0800
0800
1A00
2C00
0800
0800
0800
3E00
0000
0000
0000
ENDCHAR
STARTCHAR uni026C
ENCODING 620
SWIDTH 576 0
DWIDTH 9 0
BBX 9 15 0 -3
BITMAP
0000
0000
3800
0800
0800
1800
2800
1E00
0800
0800
0800
3E00
0000
0000
0000
ENDCHAR
STARTCHAR uni026D
ENCODING 621
SWIDTH 576 0
DWIDTH 9 0
BBX 9 15 0 -3
BITMAP
0000
0000
3800
0800
0800
0800
0800
0800
0800
0800
0800
0800
0900
0600
0000
ENDCHAR
STARTCHAR uni026E
ENCODING 622
SWIDTH 576 0
DWIDTH 9 0
BBX 9 15 0 -3
BITMAP
0000
0000
6000
2000
2000
2F00
2100
2200
2600
2100
2100
7100
0E00
0000
0000
ENDCHAR
STARTCHAR uni026F
ENCODING 623
SWIDTH 576 0
DWIDTH 9 0
BBX 9 15 0 -3
BITMAP
0000
0000
0000
0000
0000
4100
4900
4900
4900
4900
4900
3700
0000
0000
0000
ENDCHAR
STARTCHAR uni0270
ENCODING 624
SWIDTH 576 0
DWIDTH 9 0
BBX 9 15 0 -3
BITMAP
0000
0000
0000
0000
0000
4100
4900
4900
4900
4900
4900
3700
0100
0100
0000
ENDCHAR
STARTCHAR uni0271
ENCODING 625
SWIDTH 576 0
DWIDTH 9 0
BBX 9 15 0 -3
BITMAP
0000
0000
0000
0000
0000
7600
4900
4900
4900
4900
4900
4100
0900
0600
0000
ENDCHAR
STARTCHAR uni0272
ENCODING 626
SWIDTH 576 0
DWIDTH 9 0
BBX 9 15 0 -3
BITMAP
0000
0000
0000
0000
0000
5E00
6100
4100
4100
4100
4100
4100
4000
8000
0000
ENDCHAR
STARTCHAR uni0273
ENCODING 627
SWIDTH 576 0
DWIDTH 9 0
BBX 9 15 0 -3
BITMAP
0000
0000
0000
0000
0000
5C00
6200
4200
4200
4200
4200
4200
0280
0100
0000
ENDCHAR
STARTCHAR uni0274
ENCODING 628
SWIDTH 576 0
DWIDTH 9 0
BBX 9 15 0 -3
BITMAP
0000
0000
0000
0000
0000
4100
6100
5100
4900
4500
4300
4100
0000
0000
0000
ENDCHAR
STARTCHAR uni0275
ENCODING 629
SWIDTH 576 0
DWIDTH 9 0
BBX 9 15 0 -3
BITMAP
0000
0000
0000
0000
0000
3E00
4100
4100
7F00
4100
4100
3E00
0000
0000
0000
ENDCHAR
STARTCHAR uni0276
ENCODING 630
SWIDTH 576 0
DWIDTH 9 0
BBX 9 15 0 -3
BITMAP
0000
0000
0000
0000
0000
3F00
4800
4800
4E00
4800
4800
3F00
0000
0000
0000
ENDCHAR
STARTCHAR uni0277
ENCODING 631
SWIDTH 576 0
DWIDTH 9 0
BBX 9 15 0 -3
BITMAP
0000
0000
0000
0000
3E00
4100
4900
4900
4900
4900
4900
3600
0000
0000
0000
ENDCHAR
STARTCHAR uni0278
ENCODING 632
SWIDTH 576 0
DWIDTH 9 0
BBX 9 15 0 -3
BITMAP
0000
0000
0800
0800
0800
3E00
4900
4900
4900
4900
3E00
0800
0800
0800
0000
ENDCHAR
STARTCHAR uni0279
ENCODING 633
SWIDTH 576 0
DWIDTH 9 0
BBX 9 15 0 -3
BITMAP
0000
0000
0000
0000
0000
0200
0200
0200
0200
4200
4600
3900
0000
0000
0000
ENDCHAR
STARTCHAR uni027A
ENCODING 634
SWIDTH 576 0
DWIDTH 9 0
BBX 9 15 0 -3
BITMAP
0000
0000
0200
0200
0200
0200
0200
0200
0200
4200
4600
3900
0000
0000
0000
ENDCHAR
STARTCHAR uni027B
ENCODING 635
SWIDTH 576 0
DWIDTH 9 0
BBX 9 15 0 -3
BITMAP
0000
0000
0000
0000
0000
0200
0200
0200
0200
4200
4600
3A00
0200
0180
0000
ENDCHAR
STARTCHAR uni027C
ENCODING 636
SWIDTH 576 0
DWIDTH 9 0
BBX 9 15 0 -3
BITMAP
0000
0000
0000
0000
0000
4E00
3100
2100
2000
2000
2000
2000
2000
2000
2000
ENDCHAR
STARTCHAR uni027D
ENCODING 637
SWIDTH 576 0
DWIDTH 9 0
BBX 9 15 0 -3
BITMAP
0000
0000
0000
0000
0000
4E00
3100
2100
2000
2000
2000
2000
2400
1800
0000
ENDCHAR
STARTCHAR uni027E
ENCODING 638
SWIDTH 576 0
DWIDTH 9 0
BBX 9 15 0 -3
BITMAP
0000
0000
0000
0000
0000
0E00
1100
2100
2000
2000
2000
2000
0000
0000
0000
ENDCHAR
STARTCHAR uni027F
ENCODING 639
SWIDTH 576 0
DWIDTH 9 0
BBX 9 15 0 -3
BITMAP
0000
0000
0000
0000
0000
1C00
2200
2100
0100
0100
0100
0100
0000
0000
0000
ENDCHAR
STARTCHAR uni0280
ENCODING 640
SWIDTH 576 0
DWIDTH 9 0
BBX 9 15 0 -3
BITMAP
0000
0000
0000
0000
0000
7E00
4100
4100
7E00
4100
4100
4100
0000
0000
0000
ENDCHAR
STARTCHAR uni0281
ENCODING 641
SWIDTH 576 0
DWIDTH 9 0
BBX 9 15 0 -3
BITMAP
0000
0000
0000
0000
0000
4100
4100
4100
7E00
4100
4100
7E00
0000
0000
0000
ENDCHAR
STARTCHAR uni0282
ENCODING 642
SWIDTH 576 0
DWIDTH 9 0
BBX 9 15 0 -3
BITMAP
0000
0000
0000
0000
0000
3E00
4100
4000
3E00
0100
4100
7E00
4000
3800
0000
ENDCHAR
STARTCHAR uni0283
ENCODING 643
SWIDTH 576 0
DWIDTH 9 0
BBX 9 15 0 -3
BITMAP
0000
0000
0600
0900
0800
0800
0800
0800
0800
0800
0800
0800
4800
3000
0000
ENDCHAR
STARTCHAR uni0284
ENCODING 644
SWIDTH 576 0
DWIDTH 9 0
BBX 9 15 0 -3
BITMAP
0000
0000
0300
0400
0400
0400
0400
0400
0400
1F00
0400
0400
4400
4400
3800
ENDCHAR
STARTCHAR uni0285
ENCODING 645
SWIDTH 576 0
DWIDTH 9 0
BBX 9 15 0 -3
BITMAP
0000
0000
0000
0000
0000
3000
4800
0800
0800
0800
0800
0800
0900
0600
0000
ENDCHAR
STARTCHAR uni0286
ENCODING 646
SWIDTH 576 0
DWIDTH 9 0
BBX 9 15 0 -3
BITMAP
0000
0000
0600
0900
0800
0800
0800
0800
0800
0800
0800
3800
4C00
3200
0000
ENDCHAR
STARTCHAR uni0287
ENCODING 647
SWIDTH 576 0
DWIDTH 9 0
BBX 9 15 0 -3
BITMAP
0000
0000
0000
0000
0000
3800
4400
0400
0400
0400
0400
3F00
0400
0400
0000
ENDCHAR
STARTCHAR uni0288
ENCODING 648
SWIDTH 576 0
DWIDTH 9 0
BBX 9 15 0 -3
BITMAP
0000
0000
0000
1000
1000
7E00
1000
1000
1000
1000
1000
1000
1200
0C00
0000
ENDCHAR
STARTCHAR uni0289
ENCODING 649
SWIDTH 576 0
DWIDTH 9 0
BBX 9 15 0 -3
BITMAP
0000
0000
0000
0000
0000
2200
2200
2200
7F00
2200
2200
1D00
0000
0000
0000
ENDCHAR
STARTCHAR uni028A
ENCODING 650
SWIDTH 576 0
DWIDTH 9 0
BBX 9 15 0 -3
BITMAP
0000
0000
0000
0000
0000
7700
2200
4100
4100
4100
2200
1C00
0000
0000
0000
ENDCHAR
STARTCHAR uni028B
ENCODING 651
SWIDTH 576 0
DWIDTH 9 0
BBX 9 15 0 -3
BITMAP
0000
0000
0000
0000
0000
4800
4400
4200
4200
4200
4400
3800
0000
0000
0000
ENDCHAR
STARTCHAR uni028C
ENCODING 652
SWIDTH 576 0
DWIDTH 9 0
BBX 9 15 0 -3
BITMAP
0000
0000
0000
0000
0000
0800
1400
1400
2200
2200
4100
4100
0000
0000
0000
ENDCHAR
STARTCHAR uni028D
ENCODING 653
SWIDTH 576 0
DWIDTH 9 0
BBX 9 15 0 -3
BITMAP
0000
0000
0000
0000
0000
2200
5500
4900
4900
4900
4100
4100
0000
0000
0000
ENDCHAR
STARTCHAR uni028E
ENCODING 654
SWIDTH 576 0
DWIDTH 9 0
BBX 9 15 0 -3
BITMAP
0000
0000
0600
0900
0800
1000
1000
2800
2400
2400
4200
4200
0000
0000
0000
ENDCHAR
STARTCHAR uni028F
ENCODING 655
SWIDTH 576 0
DWIDTH 9 0
BBX 9 15 0 -3
BITMAP
0000
0000
0000
0000
0000
4100
2200
1400
0800
0800
0800
0800
0000
0000
0000
ENDCHAR
STARTCHAR uni0290
ENCODING 656
SWIDTH 576 0
DWIDTH 9 0
BBX 9 15 0 -3
BITMAP
0000
0000
0000
0000
0000
7F00
0200
0400
0800
1000
2000
7E00
0400
0300
0000
ENDCHAR
STARTCHAR uni0291
ENCODING 657
SWIDTH 576 0
DWIDTH 9 0
BBX 9 15 0 -3
BITMAP
0000
0000
0000
0000
0000
7F00
0200
0400
0800
1200
2500
7E00
0800
1000
0000
ENDCHAR
STARTCHAR uni0292
ENCODING 658
SWIDTH 576 0
DWIDTH 9 0
BBX 9 15 0 -3
BITMAP
0000
0000
0000
0000
0000
7E00
0400
0800
1000
3800
0400
0200
0200
4400
3800
ENDCHAR
STARTCHAR uni0293
ENCODING 659
SWIDTH 576 0
DWIDTH 9 0
BBX 9 15 0 -3
BITMAP
0000
0000
0000
0000
0000
3F00
0200
0400
0800
1C00
0200
1100
2D00
2200
1D00
ENDCHAR
STARTCHAR uni0294
ENCODING 660
SWIDTH 576 0
DWIDTH 9 0
BBX 9 15 0 -3
BITMAP
0000
0000
1C00
2200
2200
0200
0200
0C00
0800
0800
0800
0800
0000
0000
0000
ENDCHAR
STARTCHAR uni0295
ENCODING 661
SWIDTH 576 0
DWIDTH 9 0
BBX 9 15 0 -3
BITMAP
0000
0000
1C00
2200
2200
2000
2000
1800
0800
0800
0800
0800
0000
0000
0000
ENDCHAR
STARTCHAR uni0296
ENCODING 662
SWIDTH 576 0
DWIDTH 9 0
BBX 9 15 0 -3
BITMAP
0000
0000
0800
0800
0800
0800
0C00
0200
0200
2200
2200
1C00
0000
0000
0000
ENDCHAR
STARTCHAR uni0297
ENCODING 663
SWIDTH 576 0
DWIDTH 9 0
BBX 9 15 0 -3
BITMAP
0000
0000
0000
3E00
4100
4000
4000
4000
4000
4000
4000
4000
4100
3E00
0000
ENDCHAR
STARTCHAR uni0298
ENCODING 664
SWIDTH 576 0
DWIDTH 9 0
BBX 9 15 0 -3
BITMAP
0000
0000
0000
0000
0000
3E00
4100
4100
4900
4100
4100
3E00
0000
0000
0000
ENDCHAR
STARTCHAR uni0299
ENCODING 665
SWIDTH 576 0
DWIDTH 9 0
BBX 9 15 0 -3
BITMAP
0000
0000
0000
0000
0000
3E00
2100
2100
3E00
2100
2100
3E00
0000
0000
0000
ENDCHAR
STARTCHAR uni029A
ENCODING 666
SWIDTH 576 0
DWIDTH 9 0
BBX 9 15 0 -3
BITMAP
0000
0000
0000
0000
0000
3C00
4200
4100
3900
4100
4200
3C00
0000
0000
0000
ENDCHAR
STARTCHAR uni029B
ENCODING 667
SWIDTH 576 0
DWIDTH 9 0
BBX 9 15 0 -3
BITMAP
0000
0000
0000
0100
0200
3E00
4100
4000
4700
4100
4100
3E00
0000
0000
0000
ENDCHAR
STARTCHAR uni029C
ENCODING 668
SWIDTH 576 0
DWIDTH 9 0
BBX 9 15 0 -3
BITMAP
0000
0000
0000
0000
0000
4100
4100
4100
7F00
4100
4100
4100
0000
0000
0000
ENDCHAR
STARTCHAR uni029D
ENCODING 669
SWIDTH 576 0
DWIDTH 9 0
BBX 9 15 0 -3
BITMAP
0000
0000
0C00
0000
0000
1C00
0400
0400
0400
0400
0400
3C00
4600
4500
3800
ENDCHAR
STARTCHAR uni029E
ENCODING 670
SWIDTH 576 0
DWIDTH 9 0
BBX 9 15 0 -3
BITMAP
0000
0000
0000
0000
0000
4100
3100
0D00
0300
0D00
3100
4100
0100
0100
0100
ENDCHAR
STARTCHAR uni029F
ENCODING 671
SWIDTH 576 0
DWIDTH 9 0
BBX 9 15 0 -3
BITMAP
0000
0000
0000
0000
0000
4000
4000
4000
4000
4000
4000
7E00
0000
0000
0000
ENDCHAR
STARTCHAR uni02A0
ENCODING 672
SWIDTH 576 0
DWIDTH 9 0
BBX 9 15 0 -3
BITMAP
0000
0000
0180
0200
0200
3A00
4600
4200
4200
4200
4600
3A00
0200
0200
0200
ENDCHAR
STARTCHAR uni02A1
ENCODING 673
SWIDTH 576 0
DWIDTH 9 0
BBX 9 15 0 -3
BITMAP
0000
0000
1C00
2200
2200
0200
0200
0C00
0800
3E00
0800
0800
0000
0000
0000
ENDCHAR
STARTCHAR uni02A2
ENCODING 674
SWIDTH 576 0
DWIDTH 9 0
BBX 9 15 0 -3
BITMAP
0000
0000
1C00
2200
2200
2000
2000
1800
0800
3E00
0800
0800
0000
0000
0000
ENDCHAR
STARTCHAR uni02A3
ENCODING 675
SWIDTH 576 0
DWIDTH 9 0
BBX 9 15 0 -3
BITMAP
0000
0000
0800
0800
0800
2F80
5880
4900
4A00
4C00
5C00
2F80
0000
0000
0000
ENDCHAR
STARTCHAR uni02A4
ENCODING 676
SWIDTH 576 0
DWIDTH 9 0
BBX 9 15 0 -3
BITMAP
0000
0000
1000
1000
1000
5F00
B100
9200
9600
9100
B100
5100
0900
0600
0000
ENDCHAR
STARTCHAR uni02A5
ENCODING 677
SWIDTH 576 0
DWIDTH 9 0
BBX 9 15 0 -3
BITMAP
0000
0000
1000
1000
1000
5F00
B100
9200
9400
9400
BB00
5E00
0800
1000
0000
ENDCHAR
STARTCHAR uni02A6
ENCODING 678
SWIDTH 576 0
DWIDTH 9 0
BBX 9 15 0 -3
BITMAP
0000
0000
0000
2000
2000
7700
2800
2800
2600
2100
2100
1E00
0000
0000
0000
ENDCHAR
STARTCHAR uni02A7
ENCODING 679
SWIDTH 576 0
DWIDTH 9 0
BBX 9 15 0 -3
BITMAP
0000
0000
0200
2500
2400
7400
2400
2400
2400
2400
2400
1400
0400
1800
0000
ENDCHAR
STARTCHAR uni02A8
ENCODING 680
SWIDTH 576 0
DWIDTH 9 0
BBX 9 15 0 -3
BITMAP
0000
0000
0000
2000
2000
7700
2800
2800
2800
2A00
2D00
1600
0400
0000
0000
ENDCHAR
STARTCHAR uni02A9
ENCODING 681
SWIDTH 576 0
DWIDTH 9 0
BBX 9 15 0 -3
BITMAP
0000
0000
1C00
2200
2000
2A00
2D00
7900
2900
2900
2900
2900
0100
0600
0000
ENDCHAR
STARTCHAR uni02AA
ENCODING 682
SWIDTH 576 0
DWIDTH 9 0
BBX 9 15 0 -3
BITMAP
0000
0000
6000
2000
2000
2E00
3100
3000
2E00
2100
3100
7E00
0000
0000
0000
ENDCHAR
STARTCHAR uni02AB
ENCODING 683
SWIDTH 576 0
DWIDTH 9 0
BBX 9 15 0 -3
BITMAP
0000
0000
6000
2000
2000
3F00
2100
2200
2400
2800
3000
7F00
0000
0000
0000
ENDCHAR
STARTCHAR uni02AC
ENCODING 684
SWIDTH 576 0
DWIDTH 9 0
BBX 9 15 0 -3
BITMAP
0000
0000
0000
0000
0000
2A00
2A00
1400
0000
2A00
2A00
1400
0000
0000
0000
ENDCHAR
STARTCHAR uni02AD
ENCODING 685
SWIDTH 576 0
DWIDTH 9 0
BBX 9 15 0 -3
BITMAP
0000
0000
0000
0000
3E00
2200
2200
0000
3E00
2200
2200
0000
0000
0000
0000
ENDCHAR
STARTCHAR uni02B0
ENCODING 688
SWIDTH 576 0
DWIDTH 9 0
BBX 9 15 0 -3
BITMAP
0000
4000
4000
7000
4800
4800
4800
0000
0000
0000
0000
0000
0000
0000
0000
ENDCHAR
STARTCHAR uni02B1
ENCODING 689
SWIDTH 576 0
DWIDTH 9 0
BBX 9 15 0 -3
BITMAP
0000
3000
4000
7000
4800
4800
4800
0000
0000
0000
0000
0000
0000
0000
0000
ENDCHAR
STARTCHAR uni02B2
ENCODING 690
SWIDTH 576 0
DWIDTH 9 0
BBX 9 15 0 -3
BITMAP
0000
0000
1000
0000
1000
1000
1000
5000
2000
0000
0000
0000
0000
0000
0000
ENDCHAR
STARTCHAR uni02B3
ENCODING 691
SWIDTH 576 0
DWIDTH 9 0
BBX 9 15 0 -3
BITMAP
0000
0000
0000
5000
6800
4000
4000
4000
0000
0000
0000
0000
0000
0000
0000
ENDCHAR
STARTCHAR uni02B4
ENCODING 692
SWIDTH 576 0
DWIDTH 9 0
BBX 9 15 0 -3
BITMAP
0000
0000
0000
0800
0800
0800
5800
2800
0000
0000
0000
0000
0000
0000
0000
ENDCHAR
STARTCHAR uni02B5
ENCODING 693
SWIDTH 576 0
DWIDTH 9 0
BBX 9 15 0 -3
BITMAP
0000
0000
0000
0800
0800
0800
5800
2800
0A00
0400
0000
0000
0000
0000
0000
ENDCHAR
STARTCHAR uni02B6
ENCODING 694
SWIDTH 576 0
DWIDTH 9 0
BBX 9 15 0 -3
BITMAP
0000
0000
4800
5000
7000
4800
4800
7000
0000
0000
0000
0000
0000
0000
0000
ENDCHAR
STARTCHAR uni02B7
ENCODING 695
SWIDTH 576 0
DWIDTH 9 0
BBX 9 15 0 -3
BITMAP
0000
0000
0000
5400
5400
5400
2800
2800
0000
0000
0000
0000
0000
0000
0000
ENDCHAR
STARTCHAR uni02B8
ENCODING 696
SWIDTH 576 0
DWIDTH 9 0
BBX 9 15 0 -3
BITMAP
0000
0000
0000
4800
4800
4800
3800
0800
7000
0000
0000
0000
0000
0000
0000
ENDCHAR
STARTCHAR uni02B9
ENCODING 697
SWIDTH 576 0
DWIDTH 9 0
BBX 9 15 0 -3
BITMAP
0000
0800
0800
1000
1000
0000
0000
0000
0000
0000
0000
0000
0000
0000
0000
ENDCHAR
STARTCHAR uni02BA
ENCODING 698
SWIDTH 576 0
DWIDTH 9 0
BBX 9 15 0 -3
BITMAP
0000
1200
1200
2400
2400
0000
0000
0000
0000
0000
0000
0000
0000
0000
0000
ENDCHAR
STARTCHAR uni02BB
ENCODING 699
SWIDTH 576 0
DWIDTH 9 0
BBX 9 15 0 -3
BITMAP
0000
0000
0400
0800
0C00
0C00
0000
0000
0000
0000
0000
0000
0000
0000
0000
ENDCHAR
STARTCHAR afii57929
ENCODING 700
SWIDTH 576 0
DWIDTH 9 0
BBX 9 15 0 -3
BITMAP
0000
0000
0C00
0C00
0400
0800
0000
0000
0000
0000
0000
0000
0000
0000
0000
ENDCHAR
STARTCHAR afii64937
ENCODING 701
SWIDTH 576 0
DWIDTH 9 0
BBX 9 15 0 -3
BITMAP
0000
0000
0C00
0C00
0800
0400
0000
0000
0000
0000
0000
0000
0000
0000
0000
ENDCHAR
STARTCHAR uni02BE
ENCODING 702
SWIDTH 576 0
DWIDTH 9 0
BBX 9 15 0 -3
BITMAP
0000
0000
1800
0400
0400
0400
1800
0000
0000
0000
0000
0000
0000
0000
0000
ENDCHAR
STARTCHAR uni02BF
ENCODING 703
SWIDTH 576 0
DWIDTH 9 0
BBX 9 15 0 -3
BITMAP
0000
0000
1800
2000
2000
2000
1800
0000
0000
0000
0000
0000
0000
0000
0000
ENDCHAR
STARTCHAR uni02C0
ENCODING 704
SWIDTH 576 0
DWIDTH 9 0
BBX 9 15 0 -3
BITMAP
0000
0000
1000
2800
0800
1000
1000
0000
0000
0000
0000
0000
0000
0000
0000
ENDCHAR
STARTCHAR uni02C1
ENCODING 705
SWIDTH 576 0
DWIDTH 9 0
BBX 9 15 0 -3
BITMAP
0000
0000
1000
2800
2000
1000
1000
0000
0000
0000
0000
0000
0000
0000
0000
ENDCHAR
STARTCHAR uni02C2
ENCODING 706
SWIDTH 576 0
DWIDTH 9 0
BBX 9 15 0 -3
BITMAP
0000
0000
0400
0800
1000
0800
0400
0000
0000
0000
0000
0000
0000
0000
0000
ENDCHAR
STARTCHAR uni02C3
ENCODING 707
SWIDTH 576 0
DWIDTH 9 0
BBX 9 15 0 -3
BITMAP
0000
0000
1000
0800
0400
0800
1000
0000
0000
0000
0000
0000
0000
0000
0000
ENDCHAR
STARTCHAR uni02C4
ENCODING 708
SWIDTH 576 0
DWIDTH 9 0
BBX 9 15 0 -3
BITMAP
0000
0000
0800
1400
1400
2200
2200
0000
0000
0000
0000
0000
0000
0000
0000
ENDCHAR
STARTCHAR uni02C5
ENCODING 709
SWIDTH 576 0
DWIDTH 9 0
BBX 9 15 0 -3
BITMAP
0000
0000
2200
2200
1400
1400
0800
0000
0000
0000
0000
0000
0000
0000
0000
ENDCHAR
STARTCHAR circumflex
ENCODING 710
SWIDTH 576 0
DWIDTH 9 0
BBX 9 15 0 -3
BITMAP
0000
0000
0800
1400
2200
0000
0000
0000
0000
0000
0000
0000
0000
0000
0000
ENDCHAR
STARTCHAR caron
ENCODING 711
SWIDTH 576 0
DWIDTH 9 0
BBX 9 15 0 -3
BITMAP
0000
0000
2200
1400
0800
0000
0000
0000
0000
0000
0000
0000
0000
0000
0000
ENDCHAR
STARTCHAR uni02C8
ENCODING 712
SWIDTH 576 0
DWIDTH 9 0
BBX 9 15 0 -3
BITMAP
0000
0000
0800
0800
0800
0000
0000
0000
0000
0000
0000
0000
0000
0000
0000
ENDCHAR
STARTCHAR macron
ENCODING 713
SWIDTH 576 0
DWIDTH 9 0
BBX 9 15 0 -3
BITMAP
0000
0000
3E00
0000
0000
0000
0000
0000
0000
0000
0000
0000
0000
0000
0000
ENDCHAR
STARTCHAR uni02CA
ENCODING 714
SWIDTH 576 0
DWIDTH 9 0
BBX 9 15 0 -3
BITMAP
0000
0400
0800
1000
0000
0000
0000
0000
0000
0000
0000
0000
0000
0000
0000
ENDCHAR
STARTCHAR uni02CB
ENCODING 715
SWIDTH 576 0
DWIDTH 9 0
BBX 9 15 0 -3
BITMAP
0000
1000
0800
0400
0000
0000
0000
0000
0000
0000
0000
0000
0000
0000
0000
ENDCHAR
STARTCHAR uni02CC
ENCODING 716
SWIDTH 576 0
DWIDTH 9 0
BBX 9 15 0 -3
BITMAP
0000
0000
0000
0000
0000
0000
0000
0000
0000
0000
0000
0800
0800
0800
0000
ENDCHAR
STARTCHAR uni02CD
ENCODING 717
SWIDTH 576 0
DWIDTH 9 0
BBX 9 15 0 -3
BITMAP
0000
0000
0000
0000
0000
0000
0000
0000
0000
0000
0000
0000
0000
3E00
0000
ENDCHAR
STARTCHAR uni02CE
ENCODING 718
SWIDTH 576 0
DWIDTH 9 0
BBX 9 15 0 -3
BITMAP
0000
0000
0000
0000
0000
0000
0000
0000
0000
0000
0000
0000
1000
0800
0400
ENDCHAR
STARTCHAR uni02CF
ENCODING 719
SWIDTH 576 0
DWIDTH 9 0
BBX 9 15 0 -3
BITMAP
0000
0000
0000
0000
0000
0000
0000
0000
0000
0000
0000
0000
0400
0800
1000
ENDCHAR
STARTCHAR uni02D0
ENCODING 720
SWIDTH 576 0
DWIDTH 9 0
BBX 9 15 0 -3
BITMAP
0000
0000
0000
0000
0000
1C00
0800
0000
0000
0000
0800
1C00
0000
0000
0000
ENDCHAR
STARTCHAR uni02D1
ENCODING 721
SWIDTH 576 0
DWIDTH 9 0
BBX 9 15 0 -3
BITMAP
0000
0000
0000
0000
0000
1C00
0800
0000
0000
0000
0000
0000
0000
0000
0000
ENDCHAR
STARTCHAR uni02D2
ENCODING 722
SWIDTH 576 0
DWIDTH 9 0
BBX 9 15 0 -3
BITMAP
0000
0000
0000
0000
0000
0000
0000
1800
0400
0400
1800
0000
0000
0000
0000
ENDCHAR
STARTCHAR uni02D3
ENCODING 723
SWIDTH 576 0
DWIDTH 9 0
BBX 9 15 0 -3
BITMAP
0000
0000
0000
0000
0000
0000
0000
0C00
1000
1000
0C00
0000
0000
0000
0000
ENDCHAR
STARTCHAR uni02D4
ENCODING 724
SWIDTH 576 0
DWIDTH 9 0
BBX 9 15 0 -3
BITMAP
0000
0000
0000
0000
0000
0800
0800
3E00
0000
0000
0000
0000
0000
0000
0000
ENDCHAR
STARTCHAR uni02D5
ENCODING 725
SWIDTH 576 0
DWIDTH 9 0
BBX 9 15 0 -3
BITMAP
0000
0000
0000
0000
0000
0000
0000
3E00
0800
0800
0000
0000
0000
0000
0000
ENDCHAR
STARTCHAR uni02D6
ENCODING 726
SWIDTH 576 0
DWIDTH 9 0
BBX 9 15 0 -3
BITMAP
0000
0000
0000
0000
0000
0800
0800
3E00
0800
0800
0000
0000
0000
0000
0000
ENDCHAR
STARTCHAR uni02D7
ENCODING 727
SWIDTH 576 0
DWIDTH 9 0
BBX 9 15 0 -3
BITMAP
0000
0000
0000
0000
0000
0000
2100
3F00
2100
0000
0000
0000
0000
0000
0000
ENDCHAR
STARTCHAR breve
ENCODING 728
SWIDTH 576 0
DWIDTH 9 0
BBX 9 15 0 -3
BITMAP
0000
2200
1C00
0000
0000
0000
0000
0000
0000
0000
0000
0000
0000
0000
0000
ENDCHAR
STARTCHAR dotaccent
ENCODING 729
SWIDTH 576 0
DWIDTH 9 0
BBX 9 15 0 -3
BITMAP
0000
0800
0800
0000
0000
0000
0000
0000
0000
0000
0000
0000
0000
0000
0000
ENDCHAR
STARTCHAR ring
ENCODING 730
SWIDTH 576 0
DWIDTH 9 0
BBX 9 15 0 -3
BITMAP
0000
1800
2400
1800
0000
0000
0000
0000
0000
0000
0000
0000
0000
0000
0000
ENDCHAR
STARTCHAR ogonek
ENCODING 731
SWIDTH 576 0
DWIDTH 9 0
BBX 9 15 0 -3
BITMAP
0000
0000
0000
0000
0000
0000
0000
0000
0000
0000
0000
0000
1000
2000
1C00
ENDCHAR
STARTCHAR tilde
ENCODING 732
SWIDTH 576 0
DWIDTH 9 0
BBX 9 15 0 -3
BITMAP
0000
3900
4E00
0000
0000
0000
0000
0000
0000
0000
0000
0000
0000
0000
0000
ENDCHAR
STARTCHAR hungarumlaut
ENCODING 733
SWIDTH 576 0
DWIDTH 9 0
BBX 9 15 0 -3
BITMAP
0000
1100
2200
4400
0000
0000
0000
0000
0000
0000
0000
0000
0000
0000
0000
ENDCHAR
STARTCHAR uni02DE
ENCODING 734
SWIDTH 576 0
DWIDTH 9 0
BBX 9 15 0 -3
BITMAP
0000
0000
0000
0000
0000
1000
3200
5200
0C00
0000
0000
0000
0000
0000
0000
ENDCHAR
STARTCHAR uni02DF
ENCODING 735
SWIDTH 576 0
DWIDTH 9 0
BBX 9 15 0 -3
BITMAP
0000
1400
0800
1400
0000
0000
0000
0000
0000
0000
0000
0000
0000
0000
0000
ENDCHAR
STARTCHAR uni02E0
ENCODING 736
SWIDTH 576 0
DWIDTH 9 0
BBX 9 15 0 -3
BITMAP
0000
0000
0000
4800
4800
3000
3000
4800
3000
0000
0000
0000
0000
0000
0000
ENDCHAR
STARTCHAR uni02E1
ENCODING 737
SWIDTH 576 0
DWIDTH 9 0
BBX 9 15 0 -3
BITMAP
0000
0000
3000
1000
1000
1000
1000
3800
0000
0000
0000
0000
0000
0000
0000
ENDCHAR
STARTCHAR uni02E2
ENCODING 738
SWIDTH 576 0
DWIDTH 9 0
BBX 9 15 0 -3
BITMAP
0000
0000
0000
3800
4000
3000
0800
7000
0000
0000
0000
0000
0000
0000
0000
ENDCHAR
STARTCHAR uni02E3
ENCODING 739
SWIDTH 576 0
DWIDTH 9 0
BBX 9 15 0 -3
BITMAP
0000
0000
0000
4800
4800
3000
4800
4800
0000
0000
0000
0000
0000
0000
0000
ENDCHAR
STARTCHAR uni02E4
ENCODING 740
SWIDTH 576 0
DWIDTH 9 0
BBX 9 15 0 -3
BITMAP
0000
3800
4400
4000
3000
1000
1000
1000
0000
0000
0000
0000
0000
0000
0000
ENDCHAR
STARTCHAR uni02E5
ENCODING 741
SWIDTH 576 0
DWIDTH 9 0
BBX 9 15 0 -3
BITMAP
0000
3C00
0400
0400
0400
0400
0400
0400
0400
0400
0400
0400
0400
0400
0000
ENDCHAR
STARTCHAR uni02E6
ENCODING 742
SWIDTH 576 0
DWIDTH 9 0
BBX 9 15 0 -3
BITMAP
0000
0400
0400
0400
3C00
0400
0400
0400
0400
0400
0400
0400
0400
0400
0000
ENDCHAR
STARTCHAR uni02E7
ENCODING 743
SWIDTH 576 0
DWIDTH 9 0
BBX 9 15 0 -3
BITMAP
0000
0400
0400
0400
0400
0400
0400
3C00
0400
0400
0400
0400
0400
0400
0000
ENDCHAR
STARTCHAR uni02E8
ENCODING 744
SWIDTH 576 0
DWIDTH 9 0
BBX 9 15 0 -3
BITMAP
0000
0400
0400
0400
0400
0400
0400
0400
0400
0400
3C00
0400
0400
0400
0000
ENDCHAR
STARTCHAR uni02E9
ENCODING 745
SWIDTH 576 0
DWIDTH 9 0
BBX 9 15 0 -3
BITMAP
0000
0400
0400
0400
0400
0400
0400
0400
0400
0400
0400
0400
0400
3C00
0000
ENDCHAR
STARTCHAR uni02EA
ENCODING 746
SWIDTH 576 0
DWIDTH 9 0
BBX 9 15 0 -3
BITMAP
0000
0000
0000
0000
0000
0000
0000
0000
0000
0000
3C00
0400
0400
0400
0000
ENDCHAR
STARTCHAR uni02EB
ENCODING 747
SWIDTH 576 0
DWIDTH 9 0
BBX 9 15 0 -3
BITMAP
0000
0000
0000
0000
0000
0000
0000
1000
1000
1000
1E00
1000
1000
1000
0000
ENDCHAR
STARTCHAR uni02EC
ENCODING 748
SWIDTH 576 0
DWIDTH 9 0
BBX 9 15 0 -3
BITMAP
0000
0000
0000
0000
0000
0000
0000
0000
0000
0000
0000
2200
1400
0800
0000
ENDCHAR
STARTCHAR uni02ED
ENCODING 749
SWIDTH 576 0
DWIDTH 9 0
BBX 9 15 0 -3
BITMAP
0000
0000
0000
0000
0000
0000
3C00
0000
3C00
0000
0000
0000
0000
0000
0000
ENDCHAR
STARTCHAR uni02EE
ENCODING 750
SWIDTH 576 0
DWIDTH 9 0
BBX 9 15 0 -3
BITMAP
0000
0000
3600
3600
1200
2400
0000
0000
0000
0000
0000
0000
0000
0000
0000
ENDCHAR
STARTCHAR gravecomb
ENCODING 768
SWIDTH 576 0
DWIDTH 9 0
BBX 9 15 0 -3
BITMAP
2000
1000
0800
0000
0000
0000
0000
0000
0000
0000
0000
0000
0000
0000
0000
ENDCHAR
STARTCHAR acutecomb
ENCODING 769
SWIDTH 576 0
DWIDTH 9 0
BBX 9 15 0 -3
BITMAP
0200
0400
0800
0000
0000
0000
0000
0000
0000
0000
0000
0000
0000
0000
0000
ENDCHAR
STARTCHAR uni0302
ENCODING 770
SWIDTH 576 0
DWIDTH 9 0
BBX 9 15 0 -3
BITMAP
0800
1400
2200
0000
0000
0000
0000
0000
0000
0000
0000
0000
0000
0000
0000
ENDCHAR
STARTCHAR tildecomb
ENCODING 771
SWIDTH 576 0
DWIDTH 9 0
BBX 9 15 0 -3
BITMAP
0000
3900
4E00
0000
0000
0000
0000
0000
0000
0000
0000
0000
0000
0000
0000
ENDCHAR
STARTCHAR uni0304
ENCODING 772
SWIDTH 576 0
DWIDTH 9 0
BBX 9 15 0 -3
BITMAP
0000
0000
7E00
0000
0000
0000
0000
0000
0000
0000
0000
0000
0000
0000
0000
ENDCHAR
STARTCHAR uni0305
ENCODING 773
SWIDTH 576 0
DWIDTH 9 0
BBX 9 15 0 -3
BITMAP
0000
FF80
0000
0000
0000
0000
0000
0000
0000
0000
0000
0000
0000
0000
0000
ENDCHAR
STARTCHAR uni0306
ENCODING 774
SWIDTH 576 0
DWIDTH 9 0
BBX 9 15 0 -3
BITMAP
0000
2200
1C00
0000
0000
0000
0000
0000
0000
0000
0000
0000
0000
0000
0000
ENDCHAR
STARTCHAR uni0307
ENCODING 775
SWIDTH 576 0
DWIDTH 9 0
BBX 9 15 0 -3
BITMAP
0000
0800
0800
0000
0000
0000
0000
0000
0000
0000
0000
0000
0000
0000
0000
ENDCHAR
STARTCHAR uni0308
ENCODING 776
SWIDTH 576 0
DWIDTH 9 0
BBX 9 15 0 -3
BITMAP
0000
2200
2200
0000
0000
0000
0000
0000
0000
0000
0000
0000
0000
0000
0000
ENDCHAR
STARTCHAR hookabovecomb
ENCODING 777
SWIDTH 576 0
DWIDTH 9 0
BBX 9 15 0 -3
BITMAP
0000
1800
0400
0800
0000
0000
0000
0000
0000
0000
0000
0000
0000
0000
0000
ENDCHAR
STARTCHAR uni030A
ENCODING 778
SWIDTH 576 0
DWIDTH 9 0
BBX 9 15 0 -3
BITMAP
0C00
1200
0C00
0000
0000
0000
0000
0000
0000
0000
0000
0000
0000
0000
0000
ENDCHAR
STARTCHAR uni030B
ENCODING 779
SWIDTH 576 0
DWIDTH 9 0
BBX 9 15 0 -3
BITMAP
0000
1200
2400
0000
0000
0000
0000
0000
0000
0000
0000
0000
0000
0000
0000
ENDCHAR
STARTCHAR uni030C
ENCODING 780
SWIDTH 576 0
DWIDTH 9 0
BBX 9 15 0 -3
BITMAP
2200
1400
0800
0000
0000
0000
0000
0000
0000
0000
0000
0000
0000
0000
0000
ENDCHAR
STARTCHAR uni030D
ENCODING 781
SWIDTH 576 0
DWIDTH 9 0
BBX 9 15 0 -3
BITMAP
0800
0800
0800
0000
0000
0000
0000
0000
0000
0000
0000
0000
0000
0000
0000
ENDCHAR
STARTCHAR uni030E
ENCODING 782
SWIDTH 576 0
DWIDTH 9 0
BBX 9 15 0 -3
BITMAP
2200
2200
2200
0000
0000
0000
0000
0000
0000
0000
0000
0000
0000
0000
0000
ENDCHAR
STARTCHAR uni030F
ENCODING 783
SWIDTH 576 0
DWIDTH 9 0
BBX 9 15 0 -3
BITMAP
0000
2400
1200
0000
0000
0000
0000
0000
0000
0000
0000
0000
0000
0000
0000
ENDCHAR
STARTCHAR uni0310
ENCODING 784
SWIDTH 576 0
DWIDTH 9 0
BBX 9 15 0 -3
BITMAP
0800
2200
1C00
0000
0000
0000
0000
0000
0000
0000
0000
0000
0000
0000
0000
ENDCHAR
STARTCHAR uni0311
ENCODING 785
SWIDTH 576 0
DWIDTH 9 0
BBX 9 15 0 -3
BITMAP
0000
1C00
2200
0000
0000
0000
0000
0000
0000
0000
0000
0000
0000
0000
0000
ENDCHAR
STARTCHAR uni0312
ENCODING 786
SWIDTH 576 0
DWIDTH 9 0
BBX 9 15 0 -3
BITMAP
0800
1000
1800
1800
0000
0000
0000
0000
0000
0000
0000
0000
0000
0000
0000
ENDCHAR
STARTCHAR uni0313
ENCODING 787
SWIDTH 576 0
DWIDTH 9 0
BBX 9 15 0 -3
BITMAP
0C00
0C00
0400
0800
0000
0000
0000
0000
0000
0000
0000
0000
0000
0000
0000
ENDCHAR
STARTCHAR uni0314
ENCODING 788
SWIDTH 576 0
DWIDTH 9 0
BBX 9 15 0 -3
BITMAP
0C00
0C00
0800
0400
0000
0000
0000
0000
0000
0000
0000
0000
0000
0000
0000
ENDCHAR
STARTCHAR uni0315
ENCODING 789
SWIDTH 576 0
DWIDTH 9 0
BBX 9 15 0 -3
BITMAP
0300
0300
0100
0200
0000
0000
0000
0000
0000
0000
0000
0000
0000
0000
0000
ENDCHAR
STARTCHAR uni0316
ENCODING 790
SWIDTH 576 0
DWIDTH 9 0
BBX 9 15 0 -3
BITMAP
0000
0000
0000
0000
0000
0000
0000
0000
0000
0000
0000
0000
0000
0800
0400
ENDCHAR
STARTCHAR uni0317
ENCODING 791
SWIDTH 576 0
DWIDTH 9 0
BBX 9 15 0 -3
BITMAP
0000
0000
0000
0000
0000
0000
0000
0000
0000
0000
0000
0000
0000
0800
1000
ENDCHAR
STARTCHAR uni0318
ENCODING 792
SWIDTH 576 0
DWIDTH 9 0
BBX 9 15 0 -3
BITMAP
0000
0000
0000
0000
0000
0000
0000
0000
0000
0000
0000
0000
0200
1E00
0200
ENDCHAR
STARTCHAR uni0319
ENCODING 793
SWIDTH 576 0
DWIDTH 9 0
BBX 9 15 0 -3
BITMAP
0000
0000
0000
0000
0000
0000
0000
0000
0000
0000
0000
0000
2000
3C00
2000
ENDCHAR
STARTCHAR uni031A
ENCODING 794
SWIDTH 576 0
DWIDTH 9 0
BBX 9 15 0 -3
BITMAP
0000
0380
0080
0080
0000
0000
0000
0000
0000
0000
0000
0000
0000
0000
0000
ENDCHAR
STARTCHAR uni031B
ENCODING 795
SWIDTH 576 0
DWIDTH 9 0
BBX 9 15 0 -3
BITMAP
0000
0000
0080
0080
0100
0000
0000
0000
0000
0000
0000
0000
0000
0000
0000
ENDCHAR
STARTCHAR uni031C
ENCODING 796
SWIDTH 576 0
DWIDTH 9 0
BBX 9 15 0 -3
BITMAP
0000
0000
0000
0000
0000
0000
0000
0000
0000
0000
0000
0000
0800
1000
0800
ENDCHAR
STARTCHAR uni031D
ENCODING 797
SWIDTH 576 0
DWIDTH 9 0
BBX 9 15 0 -3
BITMAP
0000
0000
0000
0000
0000
0000
0000
0000
0000
0000
0000
0000
0800
0800
1C00
ENDCHAR
STARTCHAR uni031E
ENCODING 798
SWIDTH 576 0
DWIDTH 9 0
BBX 9 15 0 -3
BITMAP
0000
0000
0000
0000
0000
0000
0000
0000
0000
0000
0000
0000
1C00
0800
0800
ENDCHAR
STARTCHAR uni031F
ENCODING 799
SWIDTH 576 0
DWIDTH 9 0
BBX 9 15 0 -3
BITMAP
0000
0000
0000
0000
0000
0000
0000
0000
0000
0000
0000
0000
0800
1C00
0800
ENDCHAR
STARTCHAR uni0320
ENCODING 800
SWIDTH 576 0
DWIDTH 9 0
BBX 9 15 0 -3
BITMAP
0000
0000
0000
0000
0000
0000
0000
0000
0000
0000
0000
0000
0000
7F00
0000
ENDCHAR
STARTCHAR uni0321
ENCODING 801
SWIDTH 576 0
DWIDTH 9 0
BBX 9 15 0 -3
BITMAP
0000
0000
0000
0000
0000
0000
0000
0000
0000
0000
0000
0000
0100
0900
0600
ENDCHAR
STARTCHAR uni0322
ENCODING 802
SWIDTH 576 0
DWIDTH 9 0
BBX 9 15 0 -3
BITMAP
0000
0000
0000
0000
0000
0000
0000
0000
0000
0000
0000
0000
0100
0100
0080
ENDCHAR
STARTCHAR dotbelowcomb
ENCODING 803
SWIDTH 576 0
DWIDTH 9 0
BBX 9 15 0 -3
BITMAP
0000
0000
0000
0000
0000
0000
0000
0000
0000
0000
0000
0000
0000
0800
0800
ENDCHAR
STARTCHAR uni0324
ENCODING 804
SWIDTH 576 0
DWIDTH 9 0
BBX 9 15 0 -3
BITMAP
0000
0000
0000
0000
0000
0000
0000
0000
0000
0000
0000
0000
0000
2200
2200
ENDCHAR
STARTCHAR uni0325
ENCODING 805
SWIDTH 576 0
DWIDTH 9 0
BBX 9 15 0 -3
BITMAP
0000
0000
0000
0000
0000
0000
0000
0000
0000
0000
0000
0000
0C00
1200
0C00
ENDCHAR
STARTCHAR uni0326
ENCODING 806
SWIDTH 576 0
DWIDTH 9 0
BBX 9 15 0 -3
BITMAP
0000
0000
0000
0000
0000
0000
0000
0000
0000
0000
0000
0000
0C00
0400
0800
ENDCHAR
STARTCHAR uni0327
ENCODING 807
SWIDTH 576 0
DWIDTH 9 0
BBX 9 15 0 -3
BITMAP
0000
0000
0000
0000
0000
0000
0000
0000
0000
0000
0000
0000
0C00
2400
1800
ENDCHAR
STARTCHAR uni0328
ENCODING 808
SWIDTH 576 0
DWIDTH 9 0
BBX 9 15 0 -3
BITMAP
0000
0000
0000
0000
0000
0000
0000
0000
0000
0000
0000
0000
1000
1800
0000
ENDCHAR
STARTCHAR uni0329
ENCODING 809
SWIDTH 576 0
DWIDTH 9 0
BBX 9 15 0 -3
BITMAP
0000
0000
0000
0000
0000
0000
0000
0000
0000
0000
0000
0000
0800
0800
0800
ENDCHAR
STARTCHAR uni032A
ENCODING 810
SWIDTH 576 0
DWIDTH 9 0
BBX 9 15 0 -3
BITMAP
0000
0000
0000
0000
0000
0000
0000
0000
0000
0000
0000
0000
0000
3E00
2200
ENDCHAR
STARTCHAR uni032B
ENCODING 811
SWIDTH 576 0
DWIDTH 9 0
BBX 9 15 0 -3
BITMAP
0000
0000
0000
0000
0000
0000
0000
0000
0000
0000
0000
0000
2A00
2A00
1400
ENDCHAR
STARTCHAR uni032C
ENCODING 812
SWIDTH 576 0
DWIDTH 9 0
BBX 9 15 0 -3
BITMAP
0000
0000
0000
0000
0000
0000
0000
0000
0000
0000
0000
0000
2200
1400
0800
ENDCHAR
STARTCHAR uni032D
ENCODING 813
SWIDTH 576 0
DWIDTH 9 0
BBX 9 15 0 -3
BITMAP
0000
0000
0000
0000
0000
0000
0000
0000
0000
0000
0000
0000
0800
1400
2200
ENDCHAR
STARTCHAR uni032E
ENCODING 814
SWIDTH 576 0
DWIDTH 9 0
BBX 9 15 0 -3
BITMAP
0000
0000
0000
0000
0000
0000
0000
0000
0000
0000
0000
0000
0000
2200
1C00
ENDCHAR
STARTCHAR uni032F
ENCODING 815
SWIDTH 576 0
DWIDTH 9 0
BBX 9 15 0 -3
BITMAP
0000
0000
0000
0000
0000
0000
0000
0000
0000
0000
0000
0000
0000
1C00
2200
ENDCHAR
STARTCHAR uni0330
ENCODING 816
SWIDTH 576 0
DWIDTH 9 0
BBX 9 15 0 -3
BITMAP
0000
0000
0000
0000
0000
0000
0000
0000
0000
0000
0000
0000
0000
3900
4E00
ENDCHAR
STARTCHAR uni0331
ENCODING 817
SWIDTH 576 0
DWIDTH 9 0
BBX 9 15 0 -3
BITMAP
0000
0000
0000
0000
0000
0000
0000
0000
0000
0000
0000
0000
0000
7F00
0000
ENDCHAR
STARTCHAR uni0332
ENCODING 818
SWIDTH 576 0
DWIDTH 9 0
BBX 9 15 0 -3
BITMAP
0000
0000
0000
0000
0000
0000
0000
0000
0000
0000
0000
0000
0000
FF80
0000
ENDCHAR
STARTCHAR uni0333
ENCODING 819
SWIDTH 576 0
DWIDTH 9 0
BBX 9 15 0 -3
BITMAP
0000
0000
0000
0000
0000
0000
0000
0000
0000
0000
0000
0000
FF80
0000
FF80
ENDCHAR
STARTCHAR uni0334
ENCODING 820
SWIDTH 576 0
DWIDTH 9 0
BBX 9 15 0 -3
BITMAP
0000
0000
0000
0000
0000
0000
0000
1A00
2C00
0000
0000
0000
0000
0000
0000
ENDCHAR
STARTCHAR uni0335
ENCODING 821
SWIDTH 576 0
DWIDTH 9 0
BBX 9 15 0 -3
BITMAP
0000
0000
0000
0000
0000
0000
0000
3E00
0000
0000
0000
0000
0000
0000
0000
ENDCHAR
STARTCHAR uni0336
ENCODING 822
SWIDTH 576 0
DWIDTH 9 0
BBX 9 15 0 -3
BITMAP
0000
0000
0000
0000
0000
0000
0000
7F00
0000
0000
0000
0000
0000
0000
0000
ENDCHAR
STARTCHAR uni0337
ENCODING 823
SWIDTH 576 0
DWIDTH 9 0
BBX 9 15 0 -3
BITMAP
0000
0000
0000
0000
0100
0200
0400
0800
1000
2000
4000
0000
0000
0000
0000
ENDCHAR
STARTCHAR uni0338
ENCODING 824
SWIDTH 576 0
DWIDTH 9 0
BBX 9 15 0 -3
BITMAP
0000
0100
0100
0200
0200
0400
0400
0800
1000
1000
2000
2000
4000
4000
0000
ENDCHAR
STARTCHAR uni0339
ENCODING 825
SWIDTH 576 0
DWIDTH 9 0
BBX 9 15 0 -3
BITMAP
0000
0000
0000
0000
0000
0000
0000
0000
0000
0000
0000
0000
0800
0400
0800
ENDCHAR
STARTCHAR uni033A
ENCODING 826
SWIDTH 576 0
DWIDTH 9 0
BBX 9 15 0 -3
BITMAP
0000
0000
0000
0000
0000
0000
0000
0000
0000
0000
0000
0000
0000
2200
3E00
ENDCHAR
STARTCHAR uni033B
ENCODING 827
SWIDTH 576 0
DWIDTH 9 0
BBX 9 15 0 -3
BITMAP
0000
0000
0000
0000
0000
0000
0000
0000
0000
0000
0000
0000
1C00
1400
1C00
ENDCHAR
STARTCHAR uni033C
ENCODING 828
SWIDTH 576 0
DWIDTH 9 0
BBX 9 15 0 -3
BITMAP
0000
0000
0000
0000
0000
0000
0000
0000
0000
0000
0000
0000
0000
3600
4900
ENDCHAR
STARTCHAR uni033D
ENCODING 829
SWIDTH 576 0
DWIDTH 9 0
BBX 9 15 0 -3
BITMAP
3600
0800
3600
0000
0000
0000
0000
0000
0000
0000
0000
0000
0000
0000
0000
ENDCHAR
STARTCHAR uni033E
ENCODING 830
SWIDTH 576 0
DWIDTH 9 0
BBX 9 15 0 -3
BITMAP
0800
1000
0800
1000
0000
0000
0000
0000
0000
0000
0000
0000
0000
0000
0000
ENDCHAR
STARTCHAR uni033F
ENCODING 831
SWIDTH 576 0
DWIDTH 9 0
BBX 9 15 0 -3
BITMAP
FF80
0000
FF80
0000
0000
0000
0000
0000
0000
0000
0000
0000
0000
0000
0000
ENDCHAR
STARTCHAR uni0340
ENCODING 832
SWIDTH 576 0
DWIDTH 9 0
BBX 9 15 0 -3
BITMAP
4000
2000
0000
0000
0000
0000
0000
0000
0000
0000
0000
0000
0000
0000
0000
ENDCHAR
STARTCHAR uni0341
ENCODING 833
SWIDTH 576 0
DWIDTH 9 0
BBX 9 15 0 -3
BITMAP
0100
0200
0000
0000
0000
0000
0000
0000
0000
0000
0000
0000
0000
0000
0000
ENDCHAR
STARTCHAR uni0342
ENCODING 834
SWIDTH 576 0
DWIDTH 9 0
BBX 9 15 0 -3
BITMAP
0000
1A00
2C00
0000
0000
0000
0000
0000
0000
0000
0000
0000
0000
0000
0000
ENDCHAR
STARTCHAR uni0343
ENCODING 835
SWIDTH 576 0
DWIDTH 9 0
BBX 9 15 0 -3
BITMAP
0000
0C00
0400
0800
0000
0000
0000
0000
0000
0000
0000
0000
0000
0000
0000
ENDCHAR
STARTCHAR uni0344
ENCODING 836
SWIDTH 576 0
DWIDTH 9 0
BBX 9 15 0 -3
BITMAP
0000
0400
4900
5100
0000
0000
0000
0000
0000
0000
0000
0000
0000
0000
0000
ENDCHAR
STARTCHAR uni0345
ENCODING 837
SWIDTH 576 0
DWIDTH 9 0
BBX 9 15 0 -3
BITMAP
0000
0000
0000
0000
0000
0000
0000
0000
0000
0000
0000
0000
0000
0800
0C00
ENDCHAR
STARTCHAR uni0346
ENCODING 838
SWIDTH 576 0
DWIDTH 9 0
BBX 9 15 0 -3
BITMAP
3E00
2200
0000
0000
0000
0000
0000
0000
0000
0000
0000
0000
0000
0000
0000
ENDCHAR
STARTCHAR uni0347
ENCODING 839
SWIDTH 576 0
DWIDTH 9 0
BBX 9 15 0 -3
BITMAP
0000
0000
0000
0000
0000
0000
0000
0000
0000
0000
0000
0000
3E00
0000
3E00
ENDCHAR
STARTCHAR uni0348
ENCODING 840
SWIDTH 576 0
DWIDTH 9 0
BBX 9 15 0 -3
BITMAP
0000
0000
0000
0000
0000
0000
0000
0000
0000
0000
0000
0000
1400
1400
1400
ENDCHAR
STARTCHAR uni0349
ENCODING 841
SWIDTH 576 0
DWIDTH 9 0
BBX 9 15 0 -3
BITMAP
0000
0000
0000
0000
0000
0000
0000
0000
0000
0000
0000
0000
1C00
0400
0400
ENDCHAR
STARTCHAR uni034A
ENCODING 842
SWIDTH 576 0
DWIDTH 9 0
BBX 9 15 0 -3
BITMAP
0400
3900
4E00
1000
0000
0000
0000
0000
0000
0000
0000
0000
0000
0000
0000
ENDCHAR
STARTCHAR uni034B
ENCODING 843
SWIDTH 576 0
DWIDTH 9 0
BBX 9 15 0 -3
BITMAP
0400
7100
8E00
2000
0000
0000
0000
0000
0000
0000
0000
0000
0000
0000
0000
ENDCHAR
STARTCHAR uni034C
ENCODING 844
SWIDTH 576 0
DWIDTH 9 0
BBX 9 15 0 -3
BITMAP
3900
4E00
0000
3900
4E00
0000
0000
0000
0000
0000
0000
0000
0000
0000
0000
ENDCHAR
STARTCHAR uni034D
ENCODING 845
SWIDTH 576 0
DWIDTH 9 0
BBX 9 15 0 -3
BITMAP
0000
0000
0000
0000
0000
0000
0000
0000
0000
0000
0000
0000
2200
7F00
2200
ENDCHAR
STARTCHAR uni034E
ENCODING 846
SWIDTH 576 0
DWIDTH 9 0
BBX 9 15 0 -3
BITMAP
0000
0000
0000
0000
0000
0000
0000
0000
0000
0000
0000
0800
1C00
0800
0800
ENDCHAR
STARTCHAR uni034F
ENCODING 847
SWIDTH 576 0
DWIDTH 9 0
BBX 9 15 0 -3
BITMAP
0000
0000
0000
0000
0000
0000
0000
0000
0000
0000
0000
0000
0000
0000
0000
ENDCHAR
STARTCHAR uni0360
ENCODING 864
SWIDTH 576 0
DWIDTH 9 0
BBX 9 15 0 -3
BITMAP
1C80
2700
0000
0000
0000
0000
0000
0000
0000
0000
0000
0000
0000
0000
0000
ENDCHAR
STARTCHAR uni0361
ENCODING 865
SWIDTH 576 0
DWIDTH 9 0
BBX 9 15 0 -3
BITMAP
1F00
2080
0000
0000
0000
0000
0000
0000
0000
0000
0000
0000
0000
0000
0000
ENDCHAR
STARTCHAR uni0362
ENCODING 866
SWIDTH 576 0
DWIDTH 9 0
BBX 9 15 0 -3
BITMAP
0000
0000
0000
0000
0000
0000
0000
0000
0000
0000
0000
0000
0100
1F80
0100
ENDCHAR
STARTCHAR uni0363
ENCODING 867
SWIDTH 576 0
DWIDTH 9 0
BBX 9 15 0 -3
BITMAP
1800
0400
1C00
2400
1C00
0000
0000
0000
0000
0000
0000
0000
0000
0000
0000
ENDCHAR
STARTCHAR uni0364
ENCODING 868
SWIDTH 576 0
DWIDTH 9 0
BBX 9 15 0 -3
BITMAP
1800
2400
3C00
2000
1800
0000
0000
0000
0000
0000
0000
0000
0000
0000
0000
ENDCHAR
STARTCHAR uni0365
ENCODING 869
SWIDTH 576 0
DWIDTH 9 0
BBX 9 15 0 -3
BITMAP
0800
0000
0800
0800
0000
0000
0000
0000
0000
0000
0000
0000
0000
0000
0000
ENDCHAR
STARTCHAR uni0366
ENCODING 870
SWIDTH 576 0
DWIDTH 9 0
BBX 9 15 0 -3
BITMAP
1800
2400
2400
1800
0000
0000
0000
0000
0000
0000
0000
0000
0000
0000
0000
ENDCHAR
STARTCHAR uni0367
ENCODING 871
SWIDTH 576 0
DWIDTH 9 0
BBX 9 15 0 -3
BITMAP
2400
2400
2400
1C00
0000
0000
0000
0000
0000
0000
0000
0000
0000
0000
0000
ENDCHAR
STARTCHAR uni0368
ENCODING 872
SWIDTH 576 0
DWIDTH 9 0
BBX 9 15 0 -3
BITMAP
1C00
2000
2000
1C00
0000
0000
0000
0000
0000
0000
0000
0000
0000
0000
0000
ENDCHAR
STARTCHAR uni0369
ENCODING 873
SWIDTH 576 0
DWIDTH 9 0
BBX 9 15 0 -3
BITMAP
0400
1C00
2400
1C00
0000
0000
0000
0000
0000
0000
0000
0000
0000
0000
0000
ENDCHAR
STARTCHAR uni036A
ENCODING 874
SWIDTH 576 0
DWIDTH 9 0
BBX 9 15 0 -3
BITMAP
2000
3800
2400
2400
0000
0000
0000
0000
0000
0000
0000
0000
0000
0000
0000
ENDCHAR
STARTCHAR uni036B
ENCODING 875
SWIDTH 576 0
DWIDTH 9 0
BBX 9 15 0 -3
BITMAP
3400
2A00
2A00
2A00
0000
0000
0000
0000
0000
0000
0000
0000
0000
0000
0000
ENDCHAR
STARTCHAR uni036C
ENCODING 876
SWIDTH 576 0
DWIDTH 9 0
BBX 9 15 0 -3
BITMAP
1400
1800
1000
1000
0000
0000
0000
0000
0000
0000
0000
0000
0000
0000
0000
ENDCHAR
STARTCHAR uni036D
ENCODING 877
SWIDTH 576 0
DWIDTH 9 0
BBX 9 15 0 -3
BITMAP
1000
3800
1000
0C00
0000
0000
0000
0000
0000
0000
0000
0000
0000
0000
0000
ENDCHAR
STARTCHAR uni036E
ENCODING 878
SWIDTH 576 0
DWIDTH 9 0
BBX 9 15 0 -3
BITMAP
1400
1400
0800
0800
0000
0000
0000
0000
0000
0000
0000
0000
0000
0000
0000
ENDCHAR
STARTCHAR uni036F
ENCODING 879
SWIDTH 576 0
DWIDTH 9 0
BBX 9 15 0 -3
BITMAP
1400
0800
0800
1400
0000
0000
0000
0000
0000
0000
0000
0000
0000
0000
0000
ENDCHAR
STARTCHAR uni0374
ENCODING 884
SWIDTH 576 0
DWIDTH 9 0
BBX 9 15 0 -3
BITMAP
0000
0400
0800
1000
0000
0000
0000
0000
0000
0000
0000
0000
0000
0000
0000
ENDCHAR
STARTCHAR uni0375
ENCODING 885
SWIDTH 576 0
DWIDTH 9 0
BBX 9 15 0 -3
BITMAP
0000
0000
0000
0000
0000
0000
0000
0000
0000
0000
0000
0000
0400
0800
1000
ENDCHAR
STARTCHAR uni037A
ENCODING 890
SWIDTH 576 0
DWIDTH 9 0
BBX 9 15 0 -3
BITMAP
0000
0000
0000
0000
0000
0000
0000
0000
0000
0000
0000
0000
0000
0800
0C00
ENDCHAR
STARTCHAR uni037E
ENCODING 894
SWIDTH 576 0
DWIDTH 9 0
BBX 9 15 0 -3
BITMAP
0000
0000
0000
0000
0000
0C00
0C00
0000
0000
0000
0C00
0C00
0400
0400
0800
ENDCHAR
STARTCHAR tonos
ENCODING 900
SWIDTH 576 0
DWIDTH 9 0
BBX 9 15 0 -3
BITMAP
0000
0400
0800
1000
0000
0000
0000
0000
0000
0000
0000
0000
0000
0000
0000
ENDCHAR
STARTCHAR dieresistonos
ENCODING 901
SWIDTH 576 0
DWIDTH 9 0
BBX 9 15 0 -3
BITMAP
0000
0400
4900
5100
0000
0000
0000
0000
0000
0000
0000
0000
0000
0000
0000
ENDCHAR
STARTCHAR Alphatonos
ENCODING 902
SWIDTH 576 0
DWIDTH 9 0
BBX 9 15 0 -3
BITMAP
0000
0000
2400
4A00
9100
1100
1100
1100
1F00
1100
1100
1100
0000
0000
0000
ENDCHAR
STARTCHAR anoteleia
ENCODING 903
SWIDTH 576 0
DWIDTH 9 0
BBX 9 15 0 -3
BITMAP
0000
0000
0000
0000
0000
1800
1800
0000
0000
0000
0000
0000
0000
0000
0000
ENDCHAR
STARTCHAR Epsilontonos
ENCODING 904
SWIDTH 576 0
DWIDTH 9 0
BBX 9 15 0 -3
BITMAP
0000
0000
3F00
5000
9000
1000
1C00
1000
1000
1000
1000
1F00
0000
0000
0000
ENDCHAR
STARTCHAR Etatonos
ENCODING 905
SWIDTH 576 0
DWIDTH 9 0
BBX 9 15 0 -3
BITMAP
0000
0000
3100
5100
9100
1100
1F00
1100
1100
1100
1100
1100
0000
0000
0000
ENDCHAR
STARTCHAR Iotatonos
ENCODING 906
SWIDTH 576 0
DWIDTH 9 0
BBX 9 15 0 -3
BITMAP
0000
0000
3F00
4400
8400
0400
0400
0400
0400
0400
0400
1F00
0000
0000
0000
ENDCHAR
STARTCHAR Omicrontonos
ENCODING 908
SWIDTH 576 0
DWIDTH 9 0
BBX 9 15 0 -3
BITMAP
0000
0000
2E00
5100
9100
1100
1100
1100
1100
1100
1100
0E00
0000
0000
0000
ENDCHAR
STARTCHAR Upsilontonos
ENCODING 910
SWIDTH 576 0
DWIDTH 9 0
BBX 9 15 0 -3
BITMAP
0000
0000
3100
5100
8A00
0A00
0400
0400
0400
0400
0400
0400
0000
0000
0000
ENDCHAR
STARTCHAR Omegatonos
ENCODING 911
SWIDTH 576 0
DWIDTH 9 0
BBX 9 15 0 -3
BITMAP
0000
0000
2E00
5100
9100
1100
1100
1100
1100
0A00
0A00
1B00
0000
0000
0000
ENDCHAR
STARTCHAR iotadieresistonos
ENCODING 912
SWIDTH 576 0
DWIDTH 9 0
BBX 9 15 0 -3
BITMAP
0000
0400
4900
5100
0000
1000
1000
1000
1000
1000
1200
0C00
0000
0000
0000
ENDCHAR
STARTCHAR Alpha
ENCODING 913
SWIDTH 576 0
DWIDTH 9 0
BBX 9 15 0 -3
BITMAP
0000
0000
0800
1400
2200
4100
4100
4100
7F00
4100
4100
4100
0000
0000
0000
ENDCHAR
STARTCHAR Beta
ENCODING 914
SWIDTH 576 0
DWIDTH 9 0
BBX 9 15 0 -3
BITMAP
0000
0000
7E00
4100
4100
4100
7E00
4100
4100
4100
4100
7E00
0000
0000
0000
ENDCHAR
STARTCHAR Gamma
ENCODING 915
SWIDTH 576 0
DWIDTH 9 0
BBX 9 15 0 -3
BITMAP
0000
0000
7F00
4000
4000
4000
4000
4000
4000
4000
4000
4000
0000
0000
0000
ENDCHAR
STARTCHAR Delta
ENCODING 916
SWIDTH 576 0
DWIDTH 9 0
BBX 9 15 0 -3
BITMAP
0000
0000
0800
1400
1400
1400
2200
2200
2200
4100
4100
7F00
0000
0000
0000
ENDCHAR
STARTCHAR Epsilon
ENCODING 917
SWIDTH 576 0
DWIDTH 9 0
BBX 9 15 0 -3
BITMAP
0000
0000
7F00
4000
4000
4000
7C00
4000
4000
4000
4000
7F00
0000
0000
0000
ENDCHAR
STARTCHAR Zeta
ENCODING 918
SWIDTH 576 0
DWIDTH 9 0
BBX 9 15 0 -3
BITMAP
0000
0000
7F00
0100
0200
0400
0800
1000
2000
4000
4000
7F00
0000
0000
0000
ENDCHAR
STARTCHAR Eta
ENCODING 919
SWIDTH 576 0
DWIDTH 9 0
BBX 9 15 0 -3
BITMAP
0000
0000
4100
4100
4100
4100
7F00
4100
4100
4100
4100
4100
0000
0000
0000
ENDCHAR
STARTCHAR Theta
ENCODING 920
SWIDTH 576 0
DWIDTH 9 0
BBX 9 15 0 -3
BITMAP
0000
0000
3E00
4100
4100
4100
7F00
4100
4100
4100
4100
3E00
0000
0000
0000
ENDCHAR
STARTCHAR Iota
ENCODING 921
SWIDTH 576 0
DWIDTH 9 0
BBX 9 15 0 -3
BITMAP
0000
0000
3E00
0800
0800
0800
0800
0800
0800
0800
0800
3E00
0000
0000
0000
ENDCHAR
STARTCHAR Kappa
ENCODING 922
SWIDTH 576 0
DWIDTH 9 0
BBX 9 15 0 -3
BITMAP
0000
0000
4100
4200
4400
4800
7000
5000
4800
4400
4200
4100
0000
0000
0000
ENDCHAR
STARTCHAR Lambda
ENCODING 923
SWIDTH 576 0
DWIDTH 9 0
BBX 9 15 0 -3
BITMAP
0000
0000
0800
1400
1400
1400
2200
2200
2200
4100
4100
4100
0000
0000
0000
ENDCHAR
STARTCHAR Mu
ENCODING 924
SWIDTH 576 0
DWIDTH 9 0
BBX 9 15 0 -3
BITMAP
0000
0000
4100
4100
6300
5500
5500
4900
4900
4100
4100
4100
0000
0000
0000
ENDCHAR
STARTCHAR Nu
ENCODING 925
SWIDTH 576 0
DWIDTH 9 0
BBX 9 15 0 -3
BITMAP
0000
0000
4100
4100
6100
5100
4900
4500
4300
4100
4100
4100
0000
0000
0000
ENDCHAR
STARTCHAR Xi
ENCODING 926
SWIDTH 576 0
DWIDTH 9 0
BBX 9 15 0 -3
BITMAP
0000
0000
7F00
0000
0000
0000
3E00
0000
0000
0000
0000
7F00
0000
0000
0000
ENDCHAR
STARTCHAR Omicron
ENCODING 927
SWIDTH 576 0
DWIDTH 9 0
BBX 9 15 0 -3
BITMAP
0000
0000
3E00
4100
4100
4100
4100
4100
4100
4100
4100
3E00
0000
0000
0000
ENDCHAR
STARTCHAR Pi
ENCODING 928
SWIDTH 576 0
DWIDTH 9 0
BBX 9 15 0 -3
BITMAP
0000
0000
7F00
2200
2200
2200
2200
2200
2200
2200
2200
2200
0000
0000
0000
ENDCHAR
STARTCHAR Rho
ENCODING 929
SWIDTH 576 0
DWIDTH 9 0
BBX 9 15 0 -3
BITMAP
0000
0000
7E00
4100
4100
4100
7E00
4000
4000
4000
4000
4000
0000
0000
0000
ENDCHAR
STARTCHAR Sigma
ENCODING 931
SWIDTH 576 0
DWIDTH 9 0
BBX 9 15 0 -3
BITMAP
0000
0000
7F00
4000
2000
1000
0800
0800
1000
2000
4000
7F00
0000
0000
0000
ENDCHAR
STARTCHAR Tau
ENCODING 932
SWIDTH 576 0
DWIDTH 9 0
BBX 9 15 0 -3
BITMAP
0000
0000
7F00
0800
0800
0800
0800
0800
0800
0800
0800
0800
0000
0000
0000
ENDCHAR
STARTCHAR Upsilon
ENCODING 933
SWIDTH 576 0
DWIDTH 9 0
BBX 9 15 0 -3
BITMAP
0000
0000
4100
4100
2200
1400
0800
0800
0800
0800
0800
0800
0000
0000
0000
ENDCHAR
STARTCHAR Phi
ENCODING 934
SWIDTH 576 0
DWIDTH 9 0
BBX 9 15 0 -3
BITMAP
0000
0000
0800
3E00
4900
4900
4900
4900
4900
4900
3E00
0800
0000
0000
0000
ENDCHAR
STARTCHAR Chi
ENCODING 935
SWIDTH 576 0
DWIDTH 9 0
BBX 9 15 0 -3
BITMAP
0000
0000
4100
4100
2200
1400
0800
0800
1400
2200
4100
4100
0000
0000
0000
ENDCHAR
STARTCHAR Psi
ENCODING 936
SWIDTH 576 0
DWIDTH 9 0
BBX 9 15 0 -3
BITMAP
0000
0000
4900
4900
4900
4900
4900
4900
3E00
0800
0800
0800
0000
0000
0000
ENDCHAR
STARTCHAR Omega
ENCODING 937
SWIDTH 576 0
DWIDTH 9 0
BBX 9 15 0 -3
BITMAP
0000
0000
3E00
4100
4100
4100
4100
4100
4100
3600
1400
7700
0000
0000
0000
ENDCHAR
STARTCHAR Iotadieresis
ENCODING 938
SWIDTH 576 0
DWIDTH 9 0
BBX 9 15 0 -3
BITMAP
0000
2200
2200
0000
3E00
0800
0800
0800
0800
0800
0800
3E00
0000
0000
0000
ENDCHAR
STARTCHAR Upsilondieresis
ENCODING 939
SWIDTH 576 0
DWIDTH 9 0
BBX 9 15 0 -3
BITMAP
0000
4100
4100
0000
4100
4100
2200
1400
0800
0800
0800
0800
0000
0000
0000
ENDCHAR
STARTCHAR alphatonos
ENCODING 940
SWIDTH 576 0
DWIDTH 9 0
BBX 9 15 0 -3
BITMAP
0000
0200
0400
0800
0000
3D00
4300
4100
4100
4300
4500
3900
0000
0000
0000
ENDCHAR
STARTCHAR epsilontonos
ENCODING 941
SWIDTH 576 0
DWIDTH 9 0
BBX 9 15 0 -3
BITMAP
0000
0200
0400
0800
0000
3E00
4100
4000
3C00
4000
4100
3E00
0000
0000
0000
ENDCHAR
STARTCHAR etatonos
ENCODING 942
SWIDTH 576 0
DWIDTH 9 0
BBX 9 15 0 -3
BITMAP
0000
0200
0400
0800
0000
5E00
6100
4100
4100
4100
4100
4100
0100
0100
0100
ENDCHAR
STARTCHAR iotatonos
ENCODING 943
SWIDTH 576 0
DWIDTH 9 0
BBX 9 15 0 -3
BITMAP
0000
0400
0800
1000
0000
1000
1000
1000
1000
1000
1200
0C00
0000
0000
0000
ENDCHAR
STARTCHAR upsilondieresistonos
ENCODING 944
SWIDTH 576 0
DWIDTH 9 0
BBX 9 15 0 -3
BITMAP
0000
0400
4900
5100
0000
4100
4100
4100
4100
4100
4100
3E00
0000
0000
0000
ENDCHAR
STARTCHAR alpha
ENCODING 945
SWIDTH 576 0
DWIDTH 9 0
BBX 9 15 0 -3
BITMAP
0000
0000
0000
0000
0000
3D00
4300
4100
4100
4300
4500
3900
0000
0000
0000
ENDCHAR
STARTCHAR beta
ENCODING 946
SWIDTH 576 0
DWIDTH 9 0
BBX 9 15 0 -3
BITMAP
0000
0000
3800
4400
4400
4400
7E00
4100
4100
4100
6100
5E00
4000
4000
4000
ENDCHAR
STARTCHAR gamma
ENCODING 947
SWIDTH 576 0
DWIDTH 9 0
BBX 9 15 0 -3
BITMAP
0000
0000
0000
0000
0000
4100
4100
2200
2200
1400
1400
0800
0800
0800
0800
ENDCHAR
STARTCHAR delta
ENCODING 948
SWIDTH 576 0
DWIDTH 9 0
BBX 9 15 0 -3
BITMAP
0000
0000
3E00
4100
2000
3E00
4100
4100
4100
4100
4100
3E00
0000
0000
0000
ENDCHAR
STARTCHAR epsilon
ENCODING 949
SWIDTH 576 0
DWIDTH 9 0
BBX 9 15 0 -3
BITMAP
0000
0000
0000
0000
0000
3E00
4100
4000
3C00
4000
4100
3E00
0000
0000
0000
ENDCHAR
STARTCHAR zeta
ENCODING 950
SWIDTH 576 0
DWIDTH 9 0
BBX 9 15 0 -3
BITMAP
0000
0000
7F00
0800
1000
2000
4000
4000
4000
4000
4000
3E00
0100
0100
0600
ENDCHAR
STARTCHAR eta
ENCODING 951
SWIDTH 576 0
DWIDTH 9 0
BBX 9 15 0 -3
BITMAP
0000
0000
0000
0000
0000
5E00
6100
4100
4100
4100
4100
4100
0100
0100
0100
ENDCHAR
STARTCHAR theta
ENCODING 952
SWIDTH 576 0
DWIDTH 9 0
BBX 9 15 0 -3
BITMAP
0000
0000
3C00
4200
4200
4200
7E00
4200
4200
4200
4200
3C00
0000
0000
0000
ENDCHAR
STARTCHAR iota
ENCODING 953
SWIDTH 576 0
DWIDTH 9 0
BBX 9 15 0 -3
BITMAP
0000
0000
0000
0000
0000
1000
1000
1000
1000
1000
1200
0C00
0000
0000
0000
ENDCHAR
STARTCHAR kappa
ENCODING 954
SWIDTH 576 0
DWIDTH 9 0
BBX 9 15 0 -3
BITMAP
0000
0000
0000
0000
0000
4200
4400
4800
5000
6800
4400
4200
0000
0000
0000
ENDCHAR
STARTCHAR lambda
ENCODING 955
SWIDTH 576 0
DWIDTH 9 0
BBX 9 15 0 -3
BITMAP
0000
0000
3C00
4200
0200
3A00
4600
4200
4200
4200
4200
4200
0000
0000
0000
ENDCHAR
STARTCHAR mu
ENCODING 956
SWIDTH 576 0
DWIDTH 9 0
BBX 9 15 0 -3
BITMAP
0000
0000
0000
0000
0000
4100
4100
4100
4100
4100
6300
5D00
4000
4000
4000
ENDCHAR
STARTCHAR nu
ENCODING 957
SWIDTH 576 0
DWIDTH 9 0
BBX 9 15 0 -3
BITMAP
0000
0000
0000
0000
0000
4100
4100
2200
2200
1400
1400
0800
0000
0000
0000
ENDCHAR
STARTCHAR xi
ENCODING 958
SWIDTH 576 0
DWIDTH 9 0
BBX 9 15 0 -3
BITMAP
0000
0000
7F00
1000
2000
2000
1C00
2000
4000
4000
4000
3E00
0100
0100
0600
ENDCHAR
STARTCHAR omicron
ENCODING 959
SWIDTH 576 0
DWIDTH 9 0
BBX 9 15 0 -3
BITMAP
0000
0000
0000
0000
0000
3E00
4100
4100
4100
4100
4100
3E00
0000
0000
0000
ENDCHAR
STARTCHAR pi
ENCODING 960
SWIDTH 576 0
DWIDTH 9 0
BBX 9 15 0 -3
BITMAP
0000
0000
0000
0000
0000
7F00
2200
2200
2200
2200
2200
2200
0000
0000
0000
ENDCHAR
STARTCHAR rho
ENCODING 961
SWIDTH 576 0
DWIDTH 9 0
BBX 9 15 0 -3
BITMAP
0000
0000
0000
0000
0000
3E00
4100
4100
4100
4100
6100
5E00
4000
4000
4000
ENDCHAR
STARTCHAR sigma1
ENCODING 962
SWIDTH 576 0
DWIDTH 9 0
BBX 9 15 0 -3
BITMAP
0000
0000
0000
0000
0000
3E00
4100
4000
4000
4000
4000
3E00
0100
0100
0E00
ENDCHAR
STARTCHAR sigma
ENCODING 963
SWIDTH 576 0
DWIDTH 9 0
BBX 9 15 0 -3
BITMAP
0000
0000
0000
0000
0000
3F00
4400
4200
4100
4100
4100
3E00
0000
0000
0000
ENDCHAR
STARTCHAR tau
ENCODING 964
SWIDTH 576 0
DWIDTH 9 0
BBX 9 15 0 -3
BITMAP
0000
0000
0000
0000
0000
7F00
0800
0800
0800
0800
0900
0600
0000
0000
0000
ENDCHAR
STARTCHAR upsilon
ENCODING 965
SWIDTH 576 0
DWIDTH 9 0
BBX 9 15 0 -3
BITMAP
0000
0000
0000
0000
0000
4100
4100
4100
4100
4100
4100
3E00
0000
0000
0000
ENDCHAR
STARTCHAR phi
ENCODING 966
SWIDTH 576 0
DWIDTH 9 0
BBX 9 15 0 -3
BITMAP
0000
0000
0000
0000
0000
2600
4900
4900
4900
4900
4900
3E00
0800
0800
0800
ENDCHAR
STARTCHAR chi
ENCODING 967
SWIDTH 576 0
DWIDTH 9 0
BBX 9 15 0 -3
BITMAP
0000
0000
0000
0000
0000
4100
4100
2200
1400
0800
0800
1400
2200
4100
4100
ENDCHAR
STARTCHAR psi
ENCODING 968
SWIDTH 576 0
DWIDTH 9 0
BBX 9 15 0 -3
BITMAP
0000
0000
0000
0000
0000
4900
4900
4900
4900
4900
4900
3E00
0800
0800
0800
ENDCHAR
STARTCHAR omega
ENCODING 969
SWIDTH 576 0
DWIDTH 9 0
BBX 9 15 0 -3
BITMAP
0000
0000
0000
0000
0000
4100
4900
4900
4900
4900
4900
3600
0000
0000
0000
ENDCHAR
STARTCHAR iotadieresis
ENCODING 970
SWIDTH 576 0
DWIDTH 9 0
BBX 9 15 0 -3
BITMAP
0000
0000
4100
4100
0000
0800
0800
0800
0800
0800
0900
0600
0000
0000
0000
ENDCHAR
STARTCHAR upsilondieresis
ENCODING 971
SWIDTH 576 0
DWIDTH 9 0
BBX 9 15 0 -3
BITMAP
0000
0000
4100
4100
0000
4100
4100
4100
4100
4100
4100
3E00
0000
0000
0000
ENDCHAR
STARTCHAR omicrontonos
ENCODING 972
SWIDTH 576 0
DWIDTH 9 0
BBX 9 15 0 -3
BITMAP
0000
0200
0400
0800
0000
3E00
4100
4100
4100
4100
4100
3E00
0000
0000
0000
ENDCHAR
STARTCHAR upsilontonos
ENCODING 973
SWIDTH 576 0
DWIDTH 9 0
BBX 9 15 0 -3
BITMAP
0000
0200
0400
0800
0000
4100
4100
4100
4100
4100
4100
3E00
0000
0000
0000
ENDCHAR
STARTCHAR omegatonos
ENCODING 974
SWIDTH 576 0
DWIDTH 9 0
BBX 9 15 0 -3
BITMAP
0000
0200
0400
0800
0000
4100
4900
4900
4900
4900
4900
3600
0000
0000
0000
ENDCHAR
STARTCHAR uni03D0
ENCODING 976
SWIDTH 576 0
DWIDTH 9 0
BBX 9 15 0 -3
BITMAP
0000
0000
1C00
2200
4200
4400
5E00
6100
4100
4100
2200
1C00
0000
0000
0000
ENDCHAR
STARTCHAR theta1
ENCODING 977
SWIDTH 576 0
DWIDTH 9 0
BBX 9 15 0 -3
BITMAP
0000
0000
1C00
2200
2200
1F00
0200
6200
2200
2200
2200
1C00
0000
0000
0000
ENDCHAR
STARTCHAR Upsilon1
ENCODING 978
SWIDTH 576 0
DWIDTH 9 0
BBX 9 15 0 -3
BITMAP
0000
0000
2200
5500
1400
1400
0800
0800
0800
0800
0800
0800
0000
0000
0000
ENDCHAR
STARTCHAR uni03D3
ENCODING 979
SWIDTH 576 0
DWIDTH 9 0
BBX 9 15 0 -3
BITMAP
0000
0000
4A00
5500
8400
0400
0400
0400
0400
0400
0400
0400
0000
0000
0000
ENDCHAR
STARTCHAR uni03D4
ENCODING 980
SWIDTH 576 0
DWIDTH 9 0
BBX 9 15 0 -3
BITMAP
0000
4100
4100
0000
2200
5500
1400
0800
0800
0800
0800
0800
0000
0000
0000
ENDCHAR
STARTCHAR phi1
ENCODING 981
SWIDTH 576 0
DWIDTH 9 0
BBX 9 15 0 -3
BITMAP
0000
0000
0800
0800
0800
3E00
4900
4900
4900
4900
4900
3E00
0800
0800
0800
ENDCHAR
STARTCHAR omega1
ENCODING 982
SWIDTH 576 0
DWIDTH 9 0
BBX 9 15 0 -3
BITMAP
0000
0000
0000
0000
0000
7F00
2200
4900
4900
4900
4900
3600
0000
0000
0000
ENDCHAR
STARTCHAR uni03D7
ENCODING 983
SWIDTH 576 0
DWIDTH 9 0
BBX 9 15 0 -3
BITMAP
0000
2000
1000
0800
0000
6100
1200
1400
1800
1400
2500
4300
0100
0200
3C00
ENDCHAR
STARTCHAR uni03D8
ENCODING 984
SWIDTH 576 0
DWIDTH 9 0
BBX 9 15 0 -3
BITMAP
0000
0000
3E00
4100
4100
4100
4100
4100
4100
4100
4100
3E00
0800
0800
0800
ENDCHAR
STARTCHAR uni03D9
ENCODING 985
SWIDTH 576 0
DWIDTH 9 0
BBX 9 15 0 -3
BITMAP
0000
0000
0000
0000
0000
3E00
4100
4100
4100
4100
4100
3E00
0800
0800
0800
ENDCHAR
STARTCHAR uni03DA
ENCODING 986
SWIDTH 576 0
DWIDTH 9 0
BBX 9 15 0 -3
BITMAP
0000
0000
1E00
2100
4000
4000
4000
4000
4000
4000
3E00
0100
0100
0600
0000
ENDCHAR
STARTCHAR uni03DB
ENCODING 987
SWIDTH 576 0
DWIDTH 9 0
BBX 9 15 0 -3
BITMAP
0000
0000
0000
0000
0100
3E00
4000
4000
4000
4000
4000
3E00
0100
0100
0600
ENDCHAR
STARTCHAR uni03DC
ENCODING 988
SWIDTH 576 0
DWIDTH 9 0
BBX 9 15 0 -3
BITMAP
0000
0000
7F00
4000
4000
4000
7C00
4000
4000
4000
4000
4000
0000
0000
0000
ENDCHAR
STARTCHAR uni03DD
ENCODING 989
SWIDTH 576 0
DWIDTH 9 0
BBX 9 15 0 -3
BITMAP
0000
0000
0000
0000
0000
3E00
2000
2000
2000
3C00
2000
2000
2000
2000
2000
ENDCHAR
STARTCHAR uni03DE
ENCODING 990
SWIDTH 576 0
DWIDTH 9 0
BBX 9 15 0 -3
BITMAP
0000
0000
8000
4000
4200
4600
4A00
5200
6200
4200
0200
0100
0000
0000
0000
ENDCHAR
STARTCHAR uni03DF
ENCODING 991
SWIDTH 576 0
DWIDTH 9 0
BBX 9 15 0 -3
BITMAP
0000
0000
1000
1000
2000
2000
2000
4000
7E00
0200
0400
0400
0400
0800
0800
ENDCHAR
STARTCHAR uni03E0
ENCODING 992
SWIDTH 576 0
DWIDTH 9 0
BBX 9 15 0 -3
BITMAP
0000
0000
0800
1400
1400
1400
2200
2600
2600
4900
4900
4900
0000
0000
0000
ENDCHAR
STARTCHAR uni03E1
ENCODING 993
SWIDTH 576 0
DWIDTH 9 0
BBX 9 15 0 -3
BITMAP
0000
0000
6000
1800
0400
0400
0A00
1200
2500
0900
1100
0100
0100
0100
0100
ENDCHAR
STARTCHAR uni03E2
ENCODING 994
SWIDTH 576 0
DWIDTH 9 0
BBX 9 15 0 -3
BITMAP
0000
0000
4900
4900
4900
4900
4900
4900
4900
3700
0100
3E00
0000
0000
0000
ENDCHAR
STARTCHAR uni03E3
ENCODING 995
SWIDTH 576 0
DWIDTH 9 0
BBX 9 15 0 -3
BITMAP
0000
0000
0000
0000
0000
4900
4900
4900
4900
4900
4900
3700
0100
3E00
0000
ENDCHAR
STARTCHAR uni03E4
ENCODING 996
SWIDTH 576 0
DWIDTH 9 0
BBX 9 15 0 -3
BITMAP
0000
0000
3100
4900
4100
4100
4100
4100
3F00
0100
0100
0100
0000
0000
0000
ENDCHAR
STARTCHAR uni03E5
ENCODING 997
SWIDTH 576 0
DWIDTH 9 0
BBX 9 15 0 -3
BITMAP
0000
0000
1400
2400
2400
2400
2400
1C00
0400
0400
0400
0400
0000
0000
0000
ENDCHAR
STARTCHAR uni03E6
ENCODING 998
SWIDTH 576 0
DWIDTH 9 0
BBX 9 15 0 -3
BITMAP
0000
0000
7000
2000
2000
2000
3C00
2200
2100
2100
2100
7100
0200
1C00
0000
ENDCHAR
STARTCHAR uni03E7
ENCODING 999
SWIDTH 576 0
DWIDTH 9 0
BBX 9 15 0 -3
BITMAP
0000
0000
0000
0000
1000
1000
3E00
5100
2100
0100
4100
3E00
0000
0000
0000
ENDCHAR
STARTCHAR uni03E8
ENCODING 1000
SWIDTH 576 0
DWIDTH 9 0
BBX 9 15 0 -3
BITMAP
0000
0000
3E00
4100
4100
2100
0200
1C00
2000
4100
4100
3E00
0000
0000
0000
ENDCHAR
STARTCHAR uni03E9
ENCODING 1001
SWIDTH 576 0
DWIDTH 9 0
BBX 9 15 0 -3
BITMAP
0000
0000
3C00
4200
4200
4200
2400
1800
3000
4000
4000
3E00
0000
0000
0000
ENDCHAR
STARTCHAR uni03EA
ENCODING 1002
SWIDTH 576 0
DWIDTH 9 0
BBX 9 15 0 -3
BITMAP
0000
0000
6300
1400
0800
0800
1400
1400
2200
2200
4100
7F00
0000
0000
0000
ENDCHAR
STARTCHAR uni03EB
ENCODING 1003
SWIDTH 576 0
DWIDTH 9 0
BBX 9 15 0 -3
BITMAP
0000
0000
0000
0000
6300
1400
0800
0800
1400
1400
2200
3E00
0000
0000
0000
ENDCHAR
STARTCHAR uni03EC
ENCODING 1004
SWIDTH 576 0
DWIDTH 9 0
BBX 9 15 0 -3
BITMAP
0000
0000
3E00
4000
5E00
6100
4100
4100
4100
4100
2100
1E00
0000
0000
0000
ENDCHAR
STARTCHAR uni03ED
ENCODING 1005
SWIDTH 576 0
DWIDTH 9 0
BBX 9 15 0 -3
BITMAP
0000
0000
0000
0000
0000
3F00
4000
5E00
4100
4100
4100
3E00
0000
0000
0000
ENDCHAR
STARTCHAR uni03EE
ENCODING 1006
SWIDTH 576 0
DWIDTH 9 0
BBX 9 15 0 -3
BITMAP
0000
0000
1C00
0800
7F00
4900
0800
0800
0800
0800
0800
0800
0000
0000
0000
ENDCHAR
STARTCHAR uni03EF
ENCODING 1007
SWIDTH 576 0
DWIDTH 9 0
BBX 9 15 0 -3
BITMAP
0000
0000
0000
0000
0800
0900
7F00
4800
0800
0800
0800
0800
0000
0000
0000
ENDCHAR
STARTCHAR uni03F0
ENCODING 1008
SWIDTH 576 0
DWIDTH 9 0
BBX 9 15 0 -3
BITMAP
0000
0000
0000
0000
0000
6100
1200
1400
1800
1400
2400
4300
0000
0000
0000
ENDCHAR
STARTCHAR uni03F1
ENCODING 1009
SWIDTH 576 0
DWIDTH 9 0
BBX 9 15 0 -3
BITMAP
0000
0000
0000
0000
0000
3E00
4100
4100
4100
4100
6100
5E00
4000
2000
1E00
ENDCHAR
STARTCHAR uni03F2
ENCODING 1010
SWIDTH 576 0
DWIDTH 9 0
BBX 9 15 0 -3
BITMAP
0000
0000
0000
0000
0000
3E00
4100
4000
4000
4000
4100
3E00
0000
0000
0000
ENDCHAR
STARTCHAR uni03F3
ENCODING 1011
SWIDTH 576 0
DWIDTH 9 0
BBX 9 15 0 -3
BITMAP
0000
0000
0600
0000
0000
0E00
0200
0200
0200
0200
0200
4200
4200
4200
3C00
ENDCHAR
STARTCHAR uni03F4
ENCODING 1012
SWIDTH 576 0
DWIDTH 9 0
BBX 9 15 0 -3
BITMAP
0000
0000
3E00
4100
4100
4100
7F00
4100
4100
4100
4100
3E00
0000
0000
0000
ENDCHAR
STARTCHAR uni03F5
ENCODING 1013
SWIDTH 576 0
DWIDTH 9 0
BBX 9 15 0 -3
BITMAP
0000
0000
0000
0000
0000
3E00
4000
4000
7C00
4000
4000
3E00
0000
0000
0000
ENDCHAR
STARTCHAR uni03F6
ENCODING 1014
SWIDTH 576 0
DWIDTH 9 0
BBX 9 15 0 -3
BITMAP
0000
0000
0000
0000
0000
7C00
0200
0200
3E00
0200
0200
7C00
0000
0000
0000
ENDCHAR
STARTCHAR uni0400
ENCODING 1024
SWIDTH 576 0
DWIDTH 9 0
BBX 9 15 0 -3
BITMAP
1000
0800
0400
0000
7F00
4000
4000
7C00
4000
4000
4000
7F00
0000
0000
0000
ENDCHAR
STARTCHAR afii10023
ENCODING 1025
SWIDTH 576 0
DWIDTH 9 0
BBX 9 15 0 -3
BITMAP
0000
2200
2200
0000
7F00
4000
4000
7C00
4000
4000
4000
7F00
0000
0000
0000
ENDCHAR
STARTCHAR afii10051
ENCODING 1026
SWIDTH 576 0
DWIDTH 9 0
BBX 9 15 0 -3
BITMAP
0000
0000
7E00
1000
1000
1000
1E00
1100
1100
1100
1100
1100
0100
0600
0000
ENDCHAR
STARTCHAR afii10052
ENCODING 1027
SWIDTH 576 0
DWIDTH 9 0
BBX 9 15 0 -3
BITMAP
0200
0400
0800
0000
7F00
4000
4000
4000
4000
4000
4000
4000
0000
0000
0000
ENDCHAR
STARTCHAR afii10053
ENCODING 1028
SWIDTH 576 0
DWIDTH 9 0
BBX 9 15 0 -3
BITMAP
0000
0000
0000
1E00
2100
4000
4000
7800
4000
4000
2100
1E00
0000
0000
0000
ENDCHAR
STARTCHAR afii10054
ENCODING 1029
SWIDTH 576 0
DWIDTH 9 0
BBX 9 15 0 -3
BITMAP
0000
0000
3E00
4100
4100
4000
3800
0600
0100
4100
4100
3E00
0000
0000
0000
ENDCHAR
STARTCHAR afii10055
ENCODING 1030
SWIDTH 576 0
DWIDTH 9 0
BBX 9 15 0 -3
BITMAP
0000
0000
3E00
0800
0800
0800
0800
0800
0800
0800
0800
3E00
0000
0000
0000
ENDCHAR
STARTCHAR afii10056
ENCODING 1031
SWIDTH 576 0
DWIDTH 9 0
BBX 9 15 0 -3
BITMAP
0000
2200
2200
0000
3E00
0800
0800
0800
0800
0800
0800
3E00
0000
0000
0000
ENDCHAR
STARTCHAR afii10057
ENCODING 1032
SWIDTH 576 0
DWIDTH 9 0
BBX 9 15 0 -3
BITMAP
0000
0000
0F00
0200
0200
0200
0200
0200
0200
0200
4200
3C00
0000
0000
0000
ENDCHAR
STARTCHAR afii10058
ENCODING 1033
SWIDTH 576 0
DWIDTH 9 0
BBX 9 15 0 -3
BITMAP
0000
0000
F800
4800
4800
4800
4E00
8900
8900
8900
8900
8E00
0000
0000
0000
ENDCHAR
STARTCHAR afii10059
ENCODING 1034
SWIDTH 576 0
DWIDTH 9 0
BBX 9 15 0 -3
BITMAP
0000
0000
8800
8800
8800
8800
FE00
8900
8900
8900
8900
8E00
0000
0000
0000
ENDCHAR
STARTCHAR afii10060
ENCODING 1035
SWIDTH 576 0
DWIDTH 9 0
BBX 9 15 0 -3
BITMAP
0000
0000
7E00
1000
1000
1000
1E00
1100
1100
1100
1100
1100
0000
0000
0000
ENDCHAR
STARTCHAR afii10061
ENCODING 1036
SWIDTH 576 0
DWIDTH 9 0
BBX 9 15 0 -3
BITMAP
0400
0800
1000
0000
4200
4400
4800
7000
5000
4800
4400
4200
0000
0000
0000
ENDCHAR
STARTCHAR uni040D
ENCODING 1037
SWIDTH 576 0
DWIDTH 9 0
BBX 9 15 0 -3
BITMAP
0000
2000
1000
0800
4100
4300
4500
4900
5100
6100
4100
4100
0000
0000
0000
ENDCHAR
STARTCHAR afii10062
ENCODING 1038
SWIDTH 576 0
DWIDTH 9 0
BBX 9 15 0 -3
BITMAP
0000
2200
1C00
0000
4100
4100
4100
4300
3D00
0100
4100
3E00
0000
0000
0000
ENDCHAR
STARTCHAR afii10145
ENCODING 1039
SWIDTH 576 0
DWIDTH 9 0
BBX 9 15 0 -3
BITMAP
0000
0000
4100
4100
4100
4100
4100
4100
4100
4100
4100
7F00
0800
0800
0000
ENDCHAR
STARTCHAR afii10017
ENCODING 1040
SWIDTH 576 0
DWIDTH 9 0
BBX 9 15 0 -3
BITMAP
0000
0000
0800
1400
2200
4100
4100
4100
7F00
4100
4100
4100
0000
0000
0000
ENDCHAR
STARTCHAR afii10018
ENCODING 1041
SWIDTH 576 0
DWIDTH 9 0
BBX 9 15 0 -3
BITMAP
0000
0000
7E00
4000
4000
4000
7E00
4100
4100
4100
4100
7E00
0000
0000
0000
ENDCHAR
STARTCHAR afii10019
ENCODING 1042
SWIDTH 576 0
DWIDTH 9 0
BBX 9 15 0 -3
BITMAP
0000
0000
7C00
4200
4100
4200
7C00
4200
4100
4100
4200
7C00
0000
0000
0000
ENDCHAR
STARTCHAR afii10020
ENCODING 1043
SWIDTH 576 0
DWIDTH 9 0
BBX 9 15 0 -3
BITMAP
0000
0000
7F00
4000
4000
4000
4000
4000
4000
4000
4000
4000
0000
0000
0000
ENDCHAR
STARTCHAR afii10021
ENCODING 1044
SWIDTH 576 0
DWIDTH 9 0
BBX 9 15 0 -3
BITMAP
0000
0000
1E00
1200
1200
1200
1200
2200
2200
2200
2200
7F00
4100
0000
0000
ENDCHAR
STARTCHAR afii10022
ENCODING 1045
SWIDTH 576 0
DWIDTH 9 0
BBX 9 15 0 -3
BITMAP
0000
0000
7F00
4000
4000
4000
7C00
4000
4000
4000
4000
7F00
0000
0000
0000
ENDCHAR
STARTCHAR afii10024
ENCODING 1046
SWIDTH 576 0
DWIDTH 9 0
BBX 9 15 0 -3
BITMAP
0000
0000
4900
4900
2A00
2A00
1C00
2A00
2A00
4900
4900
4900
0000
0000
0000
ENDCHAR
STARTCHAR afii10025
ENCODING 1047
SWIDTH 576 0
DWIDTH 9 0
BBX 9 15 0 -3
BITMAP
0000
0000
3E00
4100
0100
0100
0E00
0100
0100
0100
4100
3E00
0000
0000
0000
ENDCHAR
STARTCHAR afii10026
ENCODING 1048
SWIDTH 576 0
DWIDTH 9 0
BBX 9 15 0 -3
BITMAP
0000
0000
4100
4100
4300
4500
4900
5100
6100
4100
4100
4100
0000
0000
0000
ENDCHAR
STARTCHAR afii10027
ENCODING 1049
SWIDTH 576 0
DWIDTH 9 0
BBX 9 15 0 -3
BITMAP
0000
2200
1C00
0000
4100
4300
4500
4900
5100
6100
4100
4100
0000
0000
0000
ENDCHAR
STARTCHAR afii10028
ENCODING 1050
SWIDTH 576 0
DWIDTH 9 0
BBX 9 15 0 -3
BITMAP
0000
0000
4100
4200
4400
4800
7000
5000
4800
4400
4200
4100
0000
0000
0000
ENDCHAR
STARTCHAR afii10029
ENCODING 1051
SWIDTH 576 0
DWIDTH 9 0
BBX 9 15 0 -3
BITMAP
0000
0000
3F00
2100
2100
2100
2100
2100
2100
2100
2100
4100
0000
0000
0000
ENDCHAR
STARTCHAR afii10030
ENCODING 1052
SWIDTH 576 0
DWIDTH 9 0
BBX 9 15 0 -3
BITMAP
0000
0000
4100
4100
6300
5500
5500
4900
4900
4100
4100
4100
0000
0000
0000
ENDCHAR
STARTCHAR afii10031
ENCODING 1053
SWIDTH 576 0
DWIDTH 9 0
BBX 9 15 0 -3
BITMAP
0000
0000
4100
4100
4100
4100
7F00
4100
4100
4100
4100
4100
0000
0000
0000
ENDCHAR
STARTCHAR afii10032
ENCODING 1054
SWIDTH 576 0
DWIDTH 9 0
BBX 9 15 0 -3
BITMAP
0000
0000
3E00
4100
4100
4100
4100
4100
4100
4100
4100
3E00
0000
0000
0000
ENDCHAR
STARTCHAR afii10033
ENCODING 1055
SWIDTH 576 0
DWIDTH 9 0
BBX 9 15 0 -3
BITMAP
0000
0000
7F00
4100
4100
4100
4100
4100
4100
4100
4100
4100
0000
0000
0000
ENDCHAR
STARTCHAR afii10034
ENCODING 1056
SWIDTH 576 0
DWIDTH 9 0
BBX 9 15 0 -3
BITMAP
0000
0000
7E00
4100
4100
4100
7E00
4000
4000
4000
4000
4000
0000
0000
0000
ENDCHAR
STARTCHAR afii10035
ENCODING 1057
SWIDTH 576 0
DWIDTH 9 0
BBX 9 15 0 -3
BITMAP
0000
0000
3E00
4100
4000
4000
4000
4000
4000
4000
4100
3E00
0000
0000
0000
ENDCHAR
STARTCHAR afii10036
ENCODING 1058
SWIDTH 576 0
DWIDTH 9 0
BBX 9 15 0 -3
BITMAP
0000
0000
7F00
0800
0800
0800
0800
0800
0800
0800
0800
0800
0000
0000
0000
ENDCHAR
STARTCHAR afii10037
ENCODING 1059
SWIDTH 576 0
DWIDTH 9 0
BBX 9 15 0 -3
BITMAP
0000
0000
4100
4100
4100
4100
4100
4300
3D00
0100
4100
3E00
0000
0000
0000
ENDCHAR
STARTCHAR afii10038
ENCODING 1060
SWIDTH 576 0
DWIDTH 9 0
BBX 9 15 0 -3
BITMAP
0000
0000
0800
3E00
4900
4900
4900
4900
4900
4900
3E00
0800
0000
0000
0000
ENDCHAR
STARTCHAR afii10039
ENCODING 1061
SWIDTH 576 0
DWIDTH 9 0
BBX 9 15 0 -3
BITMAP
0000
0000
4100
4100
2200
1400
0800
0800
1400
2200
4100
4100
0000
0000
0000
ENDCHAR
STARTCHAR afii10040
ENCODING 1062
SWIDTH 576 0
DWIDTH 9 0
BBX 9 15 0 -3
BITMAP
0000
0000
4200
4200
4200
4200
4200
4200
4200
4200
4200
7F00
0100
0100
0000
ENDCHAR
STARTCHAR afii10041
ENCODING 1063
SWIDTH 576 0
DWIDTH 9 0
BBX 9 15 0 -3
BITMAP
0000
0000
4100
4100
4100
4100
4100
3F00
0100
0100
0100
0100
0000
0000
0000
ENDCHAR
STARTCHAR afii10042
ENCODING 1064
SWIDTH 576 0
DWIDTH 9 0
BBX 9 15 0 -3
BITMAP
0000
0000
4900
4900
4900
4900
4900
4900
4900
4900
4900
7F00
0000
0000
0000
ENDCHAR
STARTCHAR afii10043
ENCODING 1065
SWIDTH 576 0
DWIDTH 9 0
BBX 9 15 0 -3
BITMAP
0000
0000
4900
4900
4900
4900
4900
4900
4900
4900
4900
7F00
0100
0100
0000
ENDCHAR
STARTCHAR afii10044
ENCODING 1066
SWIDTH 576 0
DWIDTH 9 0
BBX 9 15 0 -3
BITMAP
0000
0000
7000
1000
1000
1000
1E00
1100
1100
1100
1100
1E00
0000
0000
0000
ENDCHAR
STARTCHAR afii10045
ENCODING 1067
SWIDTH 576 0
DWIDTH 9 0
BBX 9 15 0 -3
BITMAP
0000
0000
4100
4100
4100
4100
7900
4500
4500
4500
4500
7900
0000
0000
0000
ENDCHAR
STARTCHAR afii10046
ENCODING 1068
SWIDTH 576 0
DWIDTH 9 0
BBX 9 15 0 -3
BITMAP
0000
0000
4000
4000
4000
4000
7E00
4100
4100
4100
4100
7E00
0000
0000
0000
ENDCHAR
STARTCHAR afii10047
ENCODING 1069
SWIDTH 576 0
DWIDTH 9 0
BBX 9 15 0 -3
BITMAP
0000
0000
0000
3C00
4200
0100
0100
0F00
0100
0100
4200
3C00
0000
0000
0000
ENDCHAR
STARTCHAR afii10048
ENCODING 1070
SWIDTH 576 0
DWIDTH 9 0
BBX 9 15 0 -3
BITMAP
0000
0000
4E00
5100
5100
5100
7100
5100
5100
5100
5100
4E00
0000
0000
0000
ENDCHAR
STARTCHAR afii10049
ENCODING 1071
SWIDTH 576 0
DWIDTH 9 0
BBX 9 15 0 -3
BITMAP
0000
0000
3F00
4100
4100
4100
3F00
0900
1100
2100
4100
4100
0000
0000
0000
ENDCHAR
STARTCHAR afii10065
ENCODING 1072
SWIDTH 576 0
DWIDTH 9 0
BBX 9 15 0 -3
BITMAP
0000
0000
0000
0000
0000
3E00
0100
0100
3F00
4100
4300
3D00
0000
0000
0000
ENDCHAR
STARTCHAR afii10066
ENCODING 1073
SWIDTH 576 0
DWIDTH 9 0
BBX 9 15 0 -3
BITMAP
0000
0000
0100
3E00
4000
5E00
6100
4100
4100
4100
4100
3E00
0000
0000
0000
ENDCHAR
STARTCHAR afii10067
ENCODING 1074
SWIDTH 576 0
DWIDTH 9 0
BBX 9 15 0 -3
BITMAP
0000
0000
0000
0000
0000
7E00
4100
4100
7E00
4100
4100
7E00
0000
0000
0000
ENDCHAR
STARTCHAR afii10068
ENCODING 1075
SWIDTH 576 0
DWIDTH 9 0
BBX 9 15 0 -3
BITMAP
0000
0000
0000
0000
0000
7F00
4000
4000
4000
4000
4000
4000
0000
0000
0000
ENDCHAR
STARTCHAR afii10069
ENCODING 1076
SWIDTH 576 0
DWIDTH 9 0
BBX 9 15 0 -3
BITMAP
0000
0000
0000
0000
0000
1E00
1200
1200
1200
2200
2200
7F00
4100
0000
0000
ENDCHAR
STARTCHAR afii10070
ENCODING 1077
SWIDTH 576 0
DWIDTH 9 0
BBX 9 15 0 -3
BITMAP
0000
0000
0000
0000
0000
3E00
4100
4100
7F00
4000
4000
3E00
0000
0000
0000
ENDCHAR
STARTCHAR afii10072
ENCODING 1078
SWIDTH 576 0
DWIDTH 9 0
BBX 9 15 0 -3
BITMAP
0000
0000
0000
0000
0000
4900
4900
2A00
1C00
2A00
4900
4900
0000
0000
0000
ENDCHAR
STARTCHAR afii10073
ENCODING 1079
SWIDTH 576 0
DWIDTH 9 0
BBX 9 15 0 -3
BITMAP
0000
0000
0000
0000
0000
3E00
4100
0100
0E00
0100
4100
3E00
0000
0000
0000
ENDCHAR
STARTCHAR afii10074
ENCODING 1080
SWIDTH 576 0
DWIDTH 9 0
BBX 9 15 0 -3
BITMAP
0000
0000
0000
0000
0000
4100
4300
4500
4900
5100
6100
4100
0000
0000
0000
ENDCHAR
STARTCHAR afii10075
ENCODING 1081
SWIDTH 576 0
DWIDTH 9 0
BBX 9 15 0 -3
BITMAP
0000
0000
2200
1C00
0000
4100
4300
4500
4900
5100
6100
4100
0000
0000
0000
ENDCHAR
STARTCHAR afii10076
ENCODING 1082
SWIDTH 576 0
DWIDTH 9 0
BBX 9 15 0 -3
BITMAP
0000
0000
0000
0000
0000
4100
4200
4400
7800
4400
4200
4100
0000
0000
0000
ENDCHAR
STARTCHAR afii10077
ENCODING 1083
SWIDTH 576 0
DWIDTH 9 0
BBX 9 15 0 -3
BITMAP
0000
0000
0000
0000
0000
1F00
1100
1100
1100
1100
1100
6100
0000
0000
0000
ENDCHAR
STARTCHAR afii10078
ENCODING 1084
SWIDTH 576 0
DWIDTH 9 0
BBX 9 15 0 -3
BITMAP
0000
0000
0000
0000
0000
4100
6300
5500
4900
4100
4100
4100
0000
0000
0000
ENDCHAR
STARTCHAR afii10079
ENCODING 1085
SWIDTH 576 0
DWIDTH 9 0
BBX 9 15 0 -3
BITMAP
0000
0000
0000
0000
0000
4100
4100
4100
7F00
4100
4100
4100
0000
0000
0000
ENDCHAR
STARTCHAR afii10080
ENCODING 1086
SWIDTH 576 0
DWIDTH 9 0
BBX 9 15 0 -3
BITMAP
0000
0000
0000
0000
0000
3E00
4100
4100
4100
4100
4100
3E00
0000
0000
0000
ENDCHAR
STARTCHAR afii10081
ENCODING 1087
SWIDTH 576 0
DWIDTH 9 0
BBX 9 15 0 -3
BITMAP
0000
0000
0000
0000
0000
7F00
4100
4100
4100
4100
4100
4100
0000
0000
0000
ENDCHAR
STARTCHAR afii10082
ENCODING 1088
SWIDTH 576 0
DWIDTH 9 0
BBX 9 15 0 -3
BITMAP
0000
0000
0000
0000
0000
5E00
6100
4100
4100
4100
6100
5E00
4000
4000
4000
ENDCHAR
STARTCHAR afii10083
ENCODING 1089
SWIDTH 576 0
DWIDTH 9 0
BBX 9 15 0 -3
BITMAP
0000
0000
0000
0000
0000
3E00
4100
4000
4000
4000
4100
3E00
0000
0000
0000
ENDCHAR
STARTCHAR afii10084
ENCODING 1090
SWIDTH 576 0
DWIDTH 9 0
BBX 9 15 0 -3
BITMAP
0000
0000
0000
0000
0000
7F00
0800
0800
0800
0800
0800
0800
0000
0000
0000
ENDCHAR
STARTCHAR afii10085
ENCODING 1091
SWIDTH 576 0
DWIDTH 9 0
BBX 9 15 0 -3
BITMAP
0000
0000
0000
0000
0000
4100
4100
4100
4100
4100
4300
3D00
0100
4100
3E00
ENDCHAR
STARTCHAR afii10086
ENCODING 1092
SWIDTH 576 0
DWIDTH 9 0
BBX 9 15 0 -3
BITMAP
0000
0000
0800
0800
0800
3E00
4900
4900
4900
4900
4900
3E00
0800
0800
0800
ENDCHAR
STARTCHAR afii10087
ENCODING 1093
SWIDTH 576 0
DWIDTH 9 0
BBX 9 15 0 -3
BITMAP
0000
0000
0000
0000
0000
4100
2200
1400
0800
1400
2200
4100
0000
0000
0000
ENDCHAR
STARTCHAR afii10088
ENCODING 1094
SWIDTH 576 0
DWIDTH 9 0
BBX 9 15 0 -3
BITMAP
0000
0000
0000
0000
0000
4200
4200
4200
4200
4200
4200
7F00
0100
0100
0000
ENDCHAR
STARTCHAR afii10089
ENCODING 1095
SWIDTH 576 0
DWIDTH 9 0
BBX 9 15 0 -3
BITMAP
0000
0000
0000
0000
0000
4100
4100
4100
3F00
0100
0100
0100
0000
0000
0000
ENDCHAR
STARTCHAR afii10090
ENCODING 1096
SWIDTH 576 0
DWIDTH 9 0
BBX 9 15 0 -3
BITMAP
0000
0000
0000
0000
0000
4900
4900
4900
4900
4900
4900
7F00
0000
0000
0000
ENDCHAR
STARTCHAR afii10091
ENCODING 1097
SWIDTH 576 0
DWIDTH 9 0
BBX 9 15 0 -3
BITMAP
0000
0000
0000
0000
0000
4900
4900
4900
4900
4900
4900
7F00
0100
0100
0000
ENDCHAR
STARTCHAR afii10092
ENCODING 1098
SWIDTH 576 0
DWIDTH 9 0
BBX 9 15 0 -3
BITMAP
0000
0000
0000
0000
0000
7000
1000
1000
1E00
1100
1100
1E00
0000
0000
0000
ENDCHAR
STARTCHAR afii10093
ENCODING 1099
SWIDTH 576 0
DWIDTH 9 0
BBX 9 15 0 -3
BITMAP
0000
0000
0000
0000
0000
4100
4100
4100
7900
4500
4500
7900
0000
0000
0000
ENDCHAR
STARTCHAR afii10094
ENCODING 1100
SWIDTH 576 0
DWIDTH 9 0
BBX 9 15 0 -3
BITMAP
0000
0000
0000
0000
0000
4000
4000
4000
7E00
4100
4100
7E00
0000
0000
0000
ENDCHAR
STARTCHAR afii10095
ENCODING 1101
SWIDTH 576 0
DWIDTH 9 0
BBX 9 15 0 -3
BITMAP
0000
0000
0000
0000
0000
3E00
4100
0100
0F00
0100
4100
3E00
0000
0000
0000
ENDCHAR
STARTCHAR afii10096
ENCODING 1102
SWIDTH 576 0
DWIDTH 9 0
BBX 9 15 0 -3
BITMAP
0000
0000
0000
0000
0000
4E00
5100
5100
7100
5100
5100
4E00
0000
0000
0000
ENDCHAR
STARTCHAR afii10097
ENCODING 1103
SWIDTH 576 0
DWIDTH 9 0
BBX 9 15 0 -3
BITMAP
0000
0000
0000
0000
0000
3F00
4100
4100
3F00
1100
2100
4100
0000
0000
0000
ENDCHAR
STARTCHAR uni0450
ENCODING 1104
SWIDTH 576 0
DWIDTH 9 0
BBX 9 15 0 -3
BITMAP
0000
2000
1000
0800
0000
3E00
4100
4100
7F00
4000
4000
3E00
0000
0000
0000
ENDCHAR
STARTCHAR afii10071
ENCODING 1105
SWIDTH 576 0
DWIDTH 9 0
BBX 9 15 0 -3
BITMAP
0000
0000
2200
2200
0000
3E00
4100
4100
7F00
4000
4000
3E00
0000
0000
0000
ENDCHAR
STARTCHAR afii10099
ENCODING 1106
SWIDTH 576 0
DWIDTH 9 0
BBX 9 15 0 -3
BITMAP
0000
0000
2000
7C00
2000
2E00
3100
2100
2100
2100
2100
2100
0100
0E00
0000
ENDCHAR
STARTCHAR afii10100
ENCODING 1107
SWIDTH 576 0
DWIDTH 9 0
BBX 9 15 0 -3
BITMAP
0000
0200
0400
0800
0000
7F00
4000
4000
4000
4000
4000
4000
0000
0000
0000
ENDCHAR
STARTCHAR afii10101
ENCODING 1108
SWIDTH 576 0
DWIDTH 9 0
BBX 9 15 0 -3
BITMAP
0000
0000
0000
0000
0000
3E00
4100
4000
7800
4000
4100
3E00
0000
0000
0000
ENDCHAR
STARTCHAR afii10102
ENCODING 1109
SWIDTH 576 0
DWIDTH 9 0
BBX 9 15 0 -3
BITMAP
0000
0000
0000
0000
0000
3E00
4100
4000
3E00
0100
4100
3E00
0000
0000
0000
ENDCHAR
STARTCHAR afii10103
ENCODING 1110
SWIDTH 576 0
DWIDTH 9 0
BBX 9 15 0 -3
BITMAP
0000
0000
0000
1800
0000
3800
0800
0800
0800
0800
0800
3E00
0000
0000
0000
ENDCHAR
STARTCHAR afii10104
ENCODING 1111
SWIDTH 576 0
DWIDTH 9 0
BBX 9 15 0 -3
BITMAP
0000
0000
2400
2400
0000
3800
0800
0800
0800
0800
0800
3E00
0000
0000
0000
ENDCHAR
STARTCHAR afii10105
ENCODING 1112
SWIDTH 576 0
DWIDTH 9 0
BBX 9 15 0 -3
BITMAP
0000
0000
0000
0600
0000
0E00
0200
0200
0200
0200
0200
4200
4200
4200
3C00
ENDCHAR
STARTCHAR afii10106
ENCODING 1113
SWIDTH 576 0
DWIDTH 9 0
BBX 9 15 0 -3
BITMAP
0000
0000
0000
0000
0000
7800
4800
4800
4E00
4900
4900
8E00
0000
0000
0000
ENDCHAR
STARTCHAR afii10107
ENCODING 1114
SWIDTH 576 0
DWIDTH 9 0
BBX 9 15 0 -3
BITMAP
0000
0000
0000
0000
0000
4800
4800
4800
7E00
4900
4900
4E00
0000
0000
0000
ENDCHAR
STARTCHAR afii10108
ENCODING 1115
SWIDTH 576 0
DWIDTH 9 0
BBX 9 15 0 -3
BITMAP
0000
0000
2000
7C00
2000
2E00
3100
2100
2100
2100
2100
2100
0000
0000
0000
ENDCHAR
STARTCHAR afii10109
ENCODING 1116
SWIDTH 576 0
DWIDTH 9 0
BBX 9 15 0 -3
BITMAP
0000
0000
0200
0400
0800
4100
4200
4400
7800
4400
4200
4100
0000
0000
0000
ENDCHAR
STARTCHAR uni045D
ENCODING 1117
SWIDTH 576 0
DWIDTH 9 0
BBX 9 15 0 -3
BITMAP
0000
0000
2000
1000
0800
4100
4300
4500
4900
5100
6100
4100
0000
0000
0000
ENDCHAR
STARTCHAR afii10110
ENCODING 1118
SWIDTH 576 0
DWIDTH 9 0
BBX 9 15 0 -3
BITMAP
0000
0000
2200
1C00
0000
4100
4100
4100
4100
4100
4300
3D00
0100
4100
3E00
ENDCHAR
STARTCHAR afii10193
ENCODING 1119
SWIDTH 576 0
DWIDTH 9 0
BBX 9 15 0 -3
BITMAP
0000
0000
0000
0000
0000
4100
4100
4100
4100
4100
4100
7F00
0800
0800
0000
ENDCHAR
STARTCHAR uni0460
ENCODING 1120
SWIDTH 576 0
DWIDTH 9 0
BBX 9 15 0 -3
BITMAP
0000
0000
3600
4100
4100
4900
4900
4900
4900
4900
4900
3600
0000
0000
0000
ENDCHAR
STARTCHAR uni0461
ENCODING 1121
SWIDTH 576 0
DWIDTH 9 0
BBX 9 15 0 -3
BITMAP
0000
0000
0000
0000
0000
3600
4100
4100
4900
4900
4900
3600
0000
0000
0000
ENDCHAR
STARTCHAR afii10146
ENCODING 1122
SWIDTH 576 0
DWIDTH 9 0
BBX 9 15 0 -3
BITMAP
0000
0000
1000
7C00
1000
1000
1E00
1100
1100
1100
1100
1E00
0000
0000
0000
ENDCHAR
STARTCHAR afii10194
ENCODING 1123
SWIDTH 576 0
DWIDTH 9 0
BBX 9 15 0 -3
BITMAP
0000
0000
1000
1000
1000
7C00
1000
1000
1E00
1100
1100
1E00
0000
0000
0000
ENDCHAR
STARTCHAR uni0464
ENCODING 1124
SWIDTH 576 0
DWIDTH 9 0
BBX 9 15 0 -3
BITMAP
0000
0000
4E00
5100
5000
5000
7C00
5000
5000
5000
5100
4E00
0000
0000
0000
ENDCHAR
STARTCHAR uni0465
ENCODING 1125
SWIDTH 576 0
DWIDTH 9 0
BBX 9 15 0 -3
BITMAP
0000
0000
0000
0000
0000
4E00
5100
5000
7C00
5000
5100
4E00
0000
0000
0000
ENDCHAR
STARTCHAR uni0466
ENCODING 1126
SWIDTH 576 0
DWIDTH 9 0
BBX 9 15 0 -3
BITMAP
0000
0000
0800
1400
1400
1400
2200
3E00
2A00
4900
4900
5D00
0000
0000
0000
ENDCHAR
STARTCHAR uni0467
ENCODING 1127
SWIDTH 576 0
DWIDTH 9 0
BBX 9 15 0 -3
BITMAP
0000
0000
0000
0000
0000
0800
1400
1400
2200
3E00
2A00
5D00
0000
0000
0000
ENDCHAR
STARTCHAR uni0468
ENCODING 1128
SWIDTH 576 0
DWIDTH 9 0
BBX 9 15 0 -3
BITMAP
0000
0000
4400
4A00
4A00
4A00
5100
7F00
5500
5500
5500
5500
0000
0000
0000
ENDCHAR
STARTCHAR uni0469
ENCODING 1129
SWIDTH 576 0
DWIDTH 9 0
BBX 9 15 0 -3
BITMAP
0000
0000
0000
0000
0000
4400
4A00
4A00
5100
7F00
5500
5500
0000
0000
0000
ENDCHAR
STARTCHAR uni046A
ENCODING 1130
SWIDTH 576 0
DWIDTH 9 0
BBX 9 15 0 -3
BITMAP
0000
0000
7F00
2200
1400
1400
0800
3E00
4900
4900
4900
4900
0000
0000
0000
ENDCHAR
STARTCHAR uni046B
ENCODING 1131
SWIDTH 576 0
DWIDTH 9 0
BBX 9 15 0 -3
BITMAP
0000
0000
0000
0000
0000
7F00
2200
1400
0800
3E00
4900
4900
0000
0000
0000
ENDCHAR
STARTCHAR uni046C
ENCODING 1132
SWIDTH 576 0
DWIDTH 9 0
BBX 9 15 0 -3
BITMAP
0000
0000
5F00
5100
4A00
4A00
7C00
4E00
5500
5500
5500
5500
0000
0000
0000
ENDCHAR
STARTCHAR uni046D
ENCODING 1133
SWIDTH 576 0
DWIDTH 9 0
BBX 9 15 0 -3
BITMAP
0000
0000
0000
0000
0000
5F00
5100
4A00
7C00
4E00
5500
5500
0000
0000
0000
ENDCHAR
STARTCHAR uni046E
ENCODING 1134
SWIDTH 576 0
DWIDTH 9 0
BBX 9 15 0 -3
BITMAP
2200
1400
0800
0000
3E00
4100
0100
0100
0E00
0100
0100
3E00
4000
4000
3E00
ENDCHAR
STARTCHAR uni046F
ENCODING 1135
SWIDTH 576 0
DWIDTH 9 0
BBX 9 15 0 -3
BITMAP
0000
2200
1400
0800
0000
3E00
4100
0100
0E00
0100
0100
3E00
4000
4000
3E00
ENDCHAR
STARTCHAR uni0470
ENCODING 1136
SWIDTH 576 0
DWIDTH 9 0
BBX 9 15 0 -3
BITMAP
0000
0000
4900
4900
4900
4900
4900
4900
3E00
0800
0800
0800
0000
0000
0000
ENDCHAR
STARTCHAR uni0471
ENCODING 1137
SWIDTH 576 0
DWIDTH 9 0
BBX 9 15 0 -3
BITMAP
0000
0000
0000
0000
0000
4900
4900
4900
4900
4900
4900
3E00
0800
0800
0800
ENDCHAR
STARTCHAR afii10147
ENCODING 1138
SWIDTH 576 0
DWIDTH 9 0
BBX 9 15 0 -3
BITMAP
0000
0000
3E00
4100
4100
4100
7F00
4100
4100
4100
4100
3E00
0000
0000
0000
ENDCHAR
STARTCHAR afii10195
ENCODING 1139
SWIDTH 576 0
DWIDTH 9 0
BBX 9 15 0 -3
BITMAP
0000
0000
0000
0000
0000
3E00
4100
4100
7F00
4100
4100
3E00
0000
0000
0000
ENDCHAR
STARTCHAR afii10148
ENCODING 1140
SWIDTH 576 0
DWIDTH 9 0
BBX 9 15 0 -3
BITMAP
0000
0000
4100
4200
4200
2400
2400
2400
1400
1400
1400
0800
0000
0000
0000
ENDCHAR
STARTCHAR afii10196
ENCODING 1141
SWIDTH 576 0
DWIDTH 9 0
BBX 9 15 0 -3
BITMAP
0000
0000
0000
0000
0000
4100
4200
2400
2400
1400
1400
0800
0000
0000
0000
ENDCHAR
STARTCHAR uni0476
ENCODING 1142
SWIDTH 576 0
DWIDTH 9 0
BBX 9 15 0 -3
BITMAP
0000
2400
1200
0000
4100
4200
2200
2400
2400
1400
1400
0800
0000
0000
0000
ENDCHAR
STARTCHAR uni0477
ENCODING 1143
SWIDTH 576 0
DWIDTH 9 0
BBX 9 15 0 -3
BITMAP
0000
0000
2400
1200
0000
4100
4200
2400
2400
1400
1400
0800
0000
0000
0000
ENDCHAR
STARTCHAR uni0478
ENCODING 1144
SWIDTH 576 0
DWIDTH 9 0
BBX 9 15 0 -3
BITMAP
0000
0000
2000
5000
5000
5500
5500
5500
5500
5500
5500
2300
0100
0500
0200
ENDCHAR
STARTCHAR uni0479
ENCODING 1145
SWIDTH 576 0
DWIDTH 9 0
BBX 9 15 0 -3
BITMAP
0000
0000
0000
0000
0000
2500
5500
5500
5500
5500
5500
2300
0100
0500
0200
ENDCHAR
STARTCHAR uni047A
ENCODING 1146
SWIDTH 576 0
DWIDTH 9 0
BBX 9 15 0 -3
BITMAP
0000
0800
3E00
4900
4100
4100
4100
4100
4100
4100
4900
3E00
0800
0000
0000
ENDCHAR
STARTCHAR uni047B
ENCODING 1147
SWIDTH 576 0
DWIDTH 9 0
BBX 9 15 0 -3
BITMAP
0000
0000
0000
0000
0800
3E00
4900
4100
4100
4100
4900
3E00
0800
0000
0000
ENDCHAR
STARTCHAR uni047C
ENCODING 1148
SWIDTH 576 0
DWIDTH 9 0
BBX 9 15 0 -3
BITMAP
0200
3E00
2000
0000
3600
4100
4100
4900
4900
4900
4900
3E00
0000
0000
0000
ENDCHAR
STARTCHAR uni047D
ENCODING 1149
SWIDTH 576 0
DWIDTH 9 0
BBX 9 15 0 -3
BITMAP
0000
0200
3E00
2000
0000
3600
4100
4100
4900
4900
4900
3E00
0000
0000
0000
ENDCHAR
STARTCHAR uni047E
ENCODING 1150
SWIDTH 576 0
DWIDTH 9 0
BBX 9 15 0 -3
BITMAP
0000
3E00
2A00
0000
3600
4100
4100
4900
4900
4900
4900
3E00
0000
0000
0000
ENDCHAR
STARTCHAR uni047F
ENCODING 1151
SWIDTH 576 0
DWIDTH 9 0
BBX 9 15 0 -3
BITMAP
0000
0000
3E00
2A00
0000
3600
4100
4100
4900
4900
4900
3E00
0000
0000
0000
ENDCHAR
STARTCHAR uni0480
ENCODING 1152
SWIDTH 576 0
DWIDTH 9 0
BBX 9 15 0 -3
BITMAP
0000
0000
3E00
4100
4000
4000
4000
4000
4000
4000
4000
3000
0800
0800
0000
ENDCHAR
STARTCHAR uni0481
ENCODING 1153
SWIDTH 576 0
DWIDTH 9 0
BBX 9 15 0 -3
BITMAP
0000
0000
0000
0000
0000
3E00
4100
4000
4000
4000
4000
3000
0800
0800
0000
ENDCHAR
STARTCHAR uni0482
ENCODING 1154
SWIDTH 576 0
DWIDTH 9 0
BBX 9 15 0 -3
BITMAP
0000
0200
0200
1C00
0700
0800
0800
7000
1C00
2000
2000
0000
0000
0000
0000
ENDCHAR
STARTCHAR uni0483
ENCODING 1155
SWIDTH 576 0
DWIDTH 9 0
BBX 9 15 0 -3
BITMAP
0200
3E00
2000
0000
0000
0000
0000
0000
0000
0000
0000
0000
0000
0000
0000
ENDCHAR
STARTCHAR uni0484
ENCODING 1156
SWIDTH 576 0
DWIDTH 9 0
BBX 9 15 0 -3
BITMAP
3800
4700
0000
0000
0000
0000
0000
0000
0000
0000
0000
0000
0000
0000
0000
ENDCHAR
STARTCHAR uni0485
ENCODING 1157
SWIDTH 576 0
DWIDTH 9 0
BBX 9 15 0 -3
BITMAP
3C00
7300
2000
0000
0000
0000
0000
0000
0000
0000
0000
0000
0000
0000
0000
ENDCHAR
STARTCHAR uni0486
ENCODING 1158
SWIDTH 576 0
DWIDTH 9 0
BBX 9 15 0 -3
BITMAP
1E00
6700
0200
0000
0000
0000
0000
0000
0000
0000
0000
0000
0000
0000
0000
ENDCHAR
STARTCHAR uni0488
ENCODING 1160
SWIDTH 576 0
DWIDTH 9 0
BBX 9 15 0 -3
BITMAP
2000
5200
0500
0000
0000
0000
0000
0000
0000
0000
0000
0000
2000
5200
0500
ENDCHAR
STARTCHAR uni0489
ENCODING 1161
SWIDTH 576 0
DWIDTH 9 0
BBX 9 15 0 -3
BITMAP
2000
4200
6400
0600
0000
0000
0000
0000
0000
0000
0000
2000
4200
6400
0600
ENDCHAR
STARTCHAR uni048A
ENCODING 1162
SWIDTH 576 0
DWIDTH 9 0
BBX 9 15 0 -3
BITMAP
2200
1C00
0000
4100
4100
4300
4500
4900
5100
6100
4100
4100
0080
0100
0000
ENDCHAR
STARTCHAR uni048B
ENCODING 1163
SWIDTH 576 0
DWIDTH 9 0
BBX 9 15 0 -3
BITMAP
0000
0000
2200
1C00
0000
4100
4300
4500
4900
5100
6100
4100
0080
0100
0000
ENDCHAR
STARTCHAR uni048C
ENCODING 1164
SWIDTH 576 0
DWIDTH 9 0
BBX 9 15 0 -3
BITMAP
0000
0000
4000
F800
4000
4000
7E00
4100
4100
4100
4100
7E00
0000
0000
0000
ENDCHAR
STARTCHAR uni048D
ENCODING 1165
SWIDTH 576 0
DWIDTH 9 0
BBX 9 15 0 -3
BITMAP
0000
0000
0000
0000
0000
4000
F800
4000
7E00
4100
4100
7E00
0000
0000
0000
ENDCHAR
STARTCHAR uni048E
ENCODING 1166
SWIDTH 576 0
DWIDTH 9 0
BBX 9 15 0 -3
BITMAP
0000
0000
7E00
4100
4100
4500
7E00
4100
4000
4000
4000
4000
0000
0000
0000
ENDCHAR
STARTCHAR uni048F
ENCODING 1167
SWIDTH 576 0
DWIDTH 9 0
BBX 9 15 0 -3
BITMAP
0000
0000
0000
0000
0000
5E00
6100
4100
4100
4900
6500
5E00
4200
4000
4000
ENDCHAR
STARTCHAR afii10050
ENCODING 1168
SWIDTH 576 0
DWIDTH 9 0
BBX 9 15 0 -3
BITMAP
0000
0100
7F00
4000
4000
4000
4000
4000
4000
4000
4000
4000
0000
0000
0000
ENDCHAR
STARTCHAR afii10098
ENCODING 1169
SWIDTH 576 0
DWIDTH 9 0
BBX 9 15 0 -3
BITMAP
0000
0000
0000
0000
0100
7F00
4000
4000
4000
4000
4000
4000
0000
0000
0000
ENDCHAR
STARTCHAR uni0492
ENCODING 1170
SWIDTH 576 0
DWIDTH 9 0
BBX 9 15 0 -3
BITMAP
0000
0000
3F00
2100
2000
2000
7000
2000
2000
2000
2000
2000
0000
0000
0000
ENDCHAR
STARTCHAR uni0493
ENCODING 1171
SWIDTH 576 0
DWIDTH 9 0
BBX 9 15 0 -3
BITMAP
0000
0000
0000
0000
0000
3F00
2100
2000
7000
2000
2000
2000
0000
0000
0000
ENDCHAR
STARTCHAR uni0494
ENCODING 1172
SWIDTH 576 0
DWIDTH 9 0
BBX 9 15 0 -3
BITMAP
0000
0000
7E00
1000
1000
1000
1E00
1100
1100
1100
1100
1100
0100
1E00
0000
ENDCHAR
STARTCHAR uni0495
ENCODING 1173
SWIDTH 576 0
DWIDTH 9 0
BBX 9 15 0 -3
BITMAP
0000
0000
0000
0000
0000
7E00
1000
1000
1E00
1100
1100
1100
0100
1E00
0000
ENDCHAR
STARTCHAR uni0496
ENCODING 1174
SWIDTH 576 0
DWIDTH 9 0
BBX 9 15 0 -3
BITMAP
0000
0000
4900
4900
2A00
2A00
1C00
2A00
2A00
4A00
4A00
4B00
0100
0100
0000
ENDCHAR
STARTCHAR uni0497
ENCODING 1175
SWIDTH 576 0
DWIDTH 9 0
BBX 9 15 0 -3
BITMAP
0000
0000
0000
0000
0000
4900
4900
2A00
1C00
2A00
4A00
4B00
0100
0100
0000
ENDCHAR
STARTCHAR uni0498
ENCODING 1176
SWIDTH 576 0
DWIDTH 9 0
BBX 9 15 0 -3
BITMAP
0000
0000
3E00
4100
0100
0100
0E00
0100
0100
0100
4100
3E00
0800
0400
1800
ENDCHAR
STARTCHAR uni0499
ENCODING 1177
SWIDTH 576 0
DWIDTH 9 0
BBX 9 15 0 -3
BITMAP
0000
0000
0000
0000
0000
3E00
4100
0100
0E00
0100
4100
3E00
0800
0400
1800
ENDCHAR
STARTCHAR uni049A
ENCODING 1178
SWIDTH 576 0
DWIDTH 9 0
BBX 9 15 0 -3
BITMAP
0000
0000
4100
4200
4400
4800
7000
5000
4800
4400
4200
4300
0100
0100
0000
ENDCHAR
STARTCHAR uni049B
ENCODING 1179
SWIDTH 576 0
DWIDTH 9 0
BBX 9 15 0 -3
BITMAP
0000
0000
0000
0000
0000
4100
4200
4400
7800
4400
4200
4300
0100
0100
0000
ENDCHAR
STARTCHAR uni049C
ENCODING 1180
SWIDTH 576 0
DWIDTH 9 0
BBX 9 15 0 -3
BITMAP
0000
0000
4100
4100
5200
5400
7800
5400
5200
4100
4100
4100
0000
0000
0000
ENDCHAR
STARTCHAR uni049D
ENCODING 1181
SWIDTH 576 0
DWIDTH 9 0
BBX 9 15 0 -3
BITMAP
0000
0000
0000
0000
0000
4100
4200
5400
7800
5400
4200
4100
0000
0000
0000
ENDCHAR
STARTCHAR uni049E
ENCODING 1182
SWIDTH 576 0
DWIDTH 9 0
BBX 9 15 0 -3
BITMAP
0000
0000
4100
F200
4400
4800
7000
5000
4800
4400
4200
4100
0000
0000
0000
ENDCHAR
STARTCHAR uni049F
ENCODING 1183
SWIDTH 576 0
DWIDTH 9 0
BBX 9 15 0 -3
BITMAP
0000
0000
2000
2000
7800
2100
2200
2400
3800
2400
2200
2100
0000
0000
0000
ENDCHAR
STARTCHAR uni04A0
ENCODING 1184
SWIDTH 576 0
DWIDTH 9 0
BBX 9 15 0 -3
BITMAP
0000
0000
7100
1100
1200
1200
1C00
1200
1200
1100
1100
1100
0000
0000
0000
ENDCHAR
STARTCHAR uni04A1
ENCODING 1185
SWIDTH 576 0
DWIDTH 9 0
BBX 9 15 0 -3
BITMAP
0000
0000
0000
0000
0000
7100
1200
1400
1800
1400
1200
1100
0000
0000
0000
ENDCHAR
STARTCHAR uni04A2
ENCODING 1186
SWIDTH 576 0
DWIDTH 9 0
BBX 9 15 0 -3
BITMAP
0000
0000
4200
4200
4200
4200
7E00
4200
4200
4200
4200
4300
0100
0100
0000
ENDCHAR
STARTCHAR uni04A3
ENCODING 1187
SWIDTH 576 0
DWIDTH 9 0
BBX 9 15 0 -3
BITMAP
0000
0000
0000
0000
0000
4200
4200
4200
7E00
4200
4200
4300
0100
0100
0000
ENDCHAR
STARTCHAR uni04A4
ENCODING 1188
SWIDTH 576 0
DWIDTH 9 0
BBX 9 15 0 -3
BITMAP
0000
0000
4700
4400
4400
4400
7C00
4400
4400
4400
4400
4400
0000
0000
0000
ENDCHAR
STARTCHAR uni04A5
ENCODING 1189
SWIDTH 576 0
DWIDTH 9 0
BBX 9 15 0 -3
BITMAP
0000
0000
0000
0000
0000
4700
4400
4400
7C00
4400
4400
4400
0000
0000
0000
ENDCHAR
STARTCHAR uni04A6
ENCODING 1190
SWIDTH 576 0
DWIDTH 9 0
BBX 9 15 0 -3
BITMAP
0000
0000
7800
4800
4800
4800
4E00
4900
4900
4900
4900
4900
0100
0E00
0000
ENDCHAR
STARTCHAR uni04A7
ENCODING 1191
SWIDTH 576 0
DWIDTH 9 0
BBX 9 15 0 -3
BITMAP
0000
0000
0000
0000
0000
7800
4800
4800
4E00
4900
4900
4900
0100
0E00
0000
ENDCHAR
STARTCHAR uni04A8
ENCODING 1192
SWIDTH 576 0
DWIDTH 9 0
BBX 9 15 0 -3
BITMAP
0000
0000
3F00
4000
4000
4E00
5100
5100
5100
5100
5100
3E00
1000
0F00
0000
ENDCHAR
STARTCHAR uni04A9
ENCODING 1193
SWIDTH 576 0
DWIDTH 9 0
BBX 9 15 0 -3
BITMAP
0000
0000
0000
0000
0000
3F00
4000
4E00
5100
5100
5100
3E00
1000
0F00
0000
ENDCHAR
STARTCHAR uni04AA
ENCODING 1194
SWIDTH 576 0
DWIDTH 9 0
BBX 9 15 0 -3
BITMAP
0000
0000
3E00
4100
4000
4000
4000
4000
4000
4000
4100
3E00
1000
0C00
0000
ENDCHAR
STARTCHAR uni04AB
ENCODING 1195
SWIDTH 576 0
DWIDTH 9 0
BBX 9 15 0 -3
BITMAP
0000
0000
0000
0000
0000
3E00
4100
4000
4000
4000
4100
3E00
1000
0C00
0000
ENDCHAR
STARTCHAR uni04AC
ENCODING 1196
SWIDTH 576 0
DWIDTH 9 0
BBX 9 15 0 -3
BITMAP
0000
0000
7F00
0800
0800
0800
0800
0800
0800
0800
0800
0C00
0400
0400
0000
ENDCHAR
STARTCHAR uni04AD
ENCODING 1197
SWIDTH 576 0
DWIDTH 9 0
BBX 9 15 0 -3
BITMAP
0000
0000
0000
0000
0000
7F00
0800
0800
0800
0800
0800
0C00
0400
0400
0000
ENDCHAR
STARTCHAR uni04AE
ENCODING 1198
SWIDTH 576 0
DWIDTH 9 0
BBX 9 15 0 -3
BITMAP
0000
0000
4100
2200
1400
0800
0800
0800
0800
0800
0800
0800
0000
0000
0000
ENDCHAR
STARTCHAR uni04AF
ENCODING 1199
SWIDTH 576 0
DWIDTH 9 0
BBX 9 15 0 -3
BITMAP
0000
0000
0000
0000
0000
4100
2200
1400
0800
0800
0800
0800
0800
0800
0800
ENDCHAR
STARTCHAR uni04B0
ENCODING 1200
SWIDTH 576 0
DWIDTH 9 0
BBX 9 15 0 -3
BITMAP
0000
0000
4100
2200
1400
0800
0800
0800
3E00
0800
0800
0800
0000
0000
0000
ENDCHAR
STARTCHAR uni04B1
ENCODING 1201
SWIDTH 576 0
DWIDTH 9 0
BBX 9 15 0 -3
BITMAP
0000
0000
0000
0000
0000
4100
2200
1400
0800
0800
0800
3E00
0800
0800
0800
ENDCHAR
STARTCHAR uni04B2
ENCODING 1202
SWIDTH 576 0
DWIDTH 9 0
BBX 9 15 0 -3
BITMAP
0000
0000
4100
4100
2200
1400
0800
0800
1400
2200
4200
4300
0100
0100
0000
ENDCHAR
STARTCHAR uni04B3
ENCODING 1203
SWIDTH 576 0
DWIDTH 9 0
BBX 9 15 0 -3
BITMAP
0000
0000
0000
0000
0000
4100
2200
1400
0800
1400
2200
4300
0100
0100
0000
ENDCHAR
STARTCHAR uni04B4
ENCODING 1204
SWIDTH 576 0
DWIDTH 9 0
BBX 9 15 0 -3
BITMAP
0000
0000
7D00
1100
1100
1100
1100
1100
1100
1100
1100
1F00
0100
0100
0000
ENDCHAR
STARTCHAR uni04B5
ENCODING 1205
SWIDTH 576 0
DWIDTH 9 0
BBX 9 15 0 -3
BITMAP
0000
0000
0000
0000
0000
7D00
1100
1100
1100
1100
1100
1F00
0100
0100
0000
ENDCHAR
STARTCHAR uni04B6
ENCODING 1206
SWIDTH 576 0
DWIDTH 9 0
BBX 9 15 0 -3
BITMAP
0000
0000
4200
4200
4200
4200
4200
3E00
0200
0200
0200
0300
0100
0100
0000
ENDCHAR
STARTCHAR uni04B7
ENCODING 1207
SWIDTH 576 0
DWIDTH 9 0
BBX 9 15 0 -3
BITMAP
0000
0000
0000
0000
0000
4200
4200
4200
3E00
0200
0200
0300
0100
0100
0000
ENDCHAR
STARTCHAR uni04B8
ENCODING 1208
SWIDTH 576 0
DWIDTH 9 0
BBX 9 15 0 -3
BITMAP
0000
0000
4100
4100
4100
4900
4900
3F00
0900
0900
0100
0100
0000
0000
0000
ENDCHAR
STARTCHAR uni04B9
ENCODING 1209
SWIDTH 576 0
DWIDTH 9 0
BBX 9 15 0 -3
BITMAP
0000
0000
0000
0000
0000
4100
4900
4900
3F00
0900
0900
0100
0000
0000
0000
ENDCHAR
STARTCHAR uni04BA
ENCODING 1210
SWIDTH 576 0
DWIDTH 9 0
BBX 9 15 0 -3
BITMAP
0000
0000
4000
4000
4000
5E00
6100
4100
4100
4100
4100
4100
0000
0000
0000
ENDCHAR
STARTCHAR uni04BB
ENCODING 1211
SWIDTH 576 0
DWIDTH 9 0
BBX 9 15 0 -3
BITMAP
0000
0000
2000
2000
2000
2000
2C00
3200
2200
2200
2200
2200
0000
0000
0000
ENDCHAR
STARTCHAR uni04BC
ENCODING 1212
SWIDTH 576 0
DWIDTH 9 0
BBX 9 15 0 -3
BITMAP
0000
0000
0E00
1100
5100
5100
3F00
1000
1000
1000
1100
0E00
0000
0000
0000
ENDCHAR
STARTCHAR uni04BD
ENCODING 1213
SWIDTH 576 0
DWIDTH 9 0
BBX 9 15 0 -3
BITMAP
0000
0000
0000
0000
0000
0E00
5100
5100
3F00
1000
1100
0E00
0000
0000
0000
ENDCHAR
STARTCHAR uni04BE
ENCODING 1214
SWIDTH 576 0
DWIDTH 9 0
BBX 9 15 0 -3
BITMAP
0000
0000
0E00
1100
5100
5100
3F00
1000
1000
1000
1100
0E00
0800
0600
0000
ENDCHAR
STARTCHAR uni04BF
ENCODING 1215
SWIDTH 576 0
DWIDTH 9 0
BBX 9 15 0 -3
BITMAP
0000
0000
0000
0000
0000
0E00
5100
5100
3F00
1000
1100
0E00
0800
0600
0000
ENDCHAR
STARTCHAR uni04C0
ENCODING 1216
SWIDTH 576 0
DWIDTH 9 0
BBX 9 15 0 -3
BITMAP
0000
0000
1C00
0800
0800
0800
0800
0800
0800
0800
0800
1C00
0000
0000
0000
ENDCHAR
STARTCHAR uni04C1
ENCODING 1217
SWIDTH 576 0
DWIDTH 9 0
BBX 9 15 0 -3
BITMAP
0000
2200
1C00
0000
4900
4900
2A00
1C00
2A00
2A00
4900
4900
0000
0000
0000
ENDCHAR
STARTCHAR uni04C2
ENCODING 1218
SWIDTH 576 0
DWIDTH 9 0
BBX 9 15 0 -3
BITMAP
0000
0000
2200
1C00
0000
4900
4900
2A00
1C00
2A00
4900
4900
0000
0000
0000
ENDCHAR
STARTCHAR uni04C3
ENCODING 1219
SWIDTH 576 0
DWIDTH 9 0
BBX 9 15 0 -3
BITMAP
0000
0000
4100
4200
4400
4800
7000
5000
4800
4400
4200
4100
0100
0600
0000
ENDCHAR
STARTCHAR uni04C4
ENCODING 1220
SWIDTH 576 0
DWIDTH 9 0
BBX 9 15 0 -3
BITMAP
0000
0000
0000
0000
0000
4100
4200
4400
7800
4400
4200
4100
0100
0600
0000
ENDCHAR
STARTCHAR uni04C5
ENCODING 1221
SWIDTH 576 0
DWIDTH 9 0
BBX 9 15 0 -3
BITMAP
0000
0000
3F00
2100
2100
2100
2100
2100
2100
2100
2100
4100
0080
0100
0000
ENDCHAR
STARTCHAR uni04C6
ENCODING 1222
SWIDTH 576 0
DWIDTH 9 0
BBX 9 15 0 -3
BITMAP
0000
0000
0000
0000
0000
1F00
1100
1100
1100
1100
1100
6100
0080
0100
0000
ENDCHAR
STARTCHAR uni04C7
ENCODING 1223
SWIDTH 576 0
DWIDTH 9 0
BBX 9 15 0 -3
BITMAP
0000
0000
4100
4100
4100
4100
7F00
4100
4100
4100
4100
4100
0100
0600
0000
ENDCHAR
STARTCHAR uni04C8
ENCODING 1224
SWIDTH 576 0
DWIDTH 9 0
BBX 9 15 0 -3
BITMAP
0000
0000
0000
0000
0000
4100
4100
4100
7F00
4100
4100
4100
0100
0600
0000
ENDCHAR
STARTCHAR uni04C9
ENCODING 1225
SWIDTH 576 0
DWIDTH 9 0
BBX 9 15 0 -3
BITMAP
0000
0000
4100
4100
4100
4100
7F00
4100
4100
4100
4100
4100
0080
0100
0000
ENDCHAR
STARTCHAR uni04CA
ENCODING 1226
SWIDTH 576 0
DWIDTH 9 0
BBX 9 15 0 -3
BITMAP
0000
0000
0000
0000
0000
4100
4100
4100
7F00
4100
4100
4100
0080
0100
0000
ENDCHAR
STARTCHAR uni04CB
ENCODING 1227
SWIDTH 576 0
DWIDTH 9 0
BBX 9 15 0 -3
BITMAP
0000
0000
4100
4100
4100
4100
4100
3F00
0100
0100
0100
0300
0200
0200
0000
ENDCHAR
STARTCHAR uni04CC
ENCODING 1228
SWIDTH 576 0
DWIDTH 9 0
BBX 9 15 0 -3
BITMAP
0000
0000
0000
0000
0000
4100
4100
4100
3F00
0100
0100
0300
0200
0200
0000
ENDCHAR
STARTCHAR uni04CD
ENCODING 1229
SWIDTH 576 0
DWIDTH 9 0
BBX 9 15 0 -3
BITMAP
0000
0000
4100
4100
6300
5500
5500
4900
4900
4100
4100
4100
0080
0100
0000
ENDCHAR
STARTCHAR uni04CE
ENCODING 1230
SWIDTH 576 0
DWIDTH 9 0
BBX 9 15 0 -3
BITMAP
0000
0000
0000
0000
0000
4100
6300
5500
4900
4100
4100
4100
0080
0100
0000
ENDCHAR
STARTCHAR uni04D0
ENCODING 1232
SWIDTH 576 0
DWIDTH 9 0
BBX 9 15 0 -3
BITMAP
0000
2200
1C00
0000
1C00
2200
4100
4100
7F00
4100
4100
4100
0000
0000
0000
ENDCHAR
STARTCHAR uni04D1
ENCODING 1233
SWIDTH 576 0
DWIDTH 9 0
BBX 9 15 0 -3
BITMAP
0000
0000
2200
1C00
0000
3E00
0100
0100
3F00
4100
4300
3D00
0000
0000
0000
ENDCHAR
STARTCHAR uni04D2
ENCODING 1234
SWIDTH 576 0
DWIDTH 9 0
BBX 9 15 0 -3
BITMAP
0000
2200
2200
0000
1C00
2200
4100
4100
7F00
4100
4100
4100
0000
0000
0000
ENDCHAR
STARTCHAR uni04D3
ENCODING 1235
SWIDTH 576 0
DWIDTH 9 0
BBX 9 15 0 -3
BITMAP
0000
0000
2200
2200
0000
3E00
0100
0100
3F00
4100
4300
3D00
0000
0000
0000
ENDCHAR
STARTCHAR uni04D4
ENCODING 1236
SWIDTH 576 0
DWIDTH 9 0
BBX 9 15 0 -3
BITMAP
0000
0000
3700
4800
4800
4800
4800
7E00
4800
4800
4800
4F00
0000
0000
0000
ENDCHAR
STARTCHAR uni04D5
ENCODING 1237
SWIDTH 576 0
DWIDTH 9 0
BBX 9 15 0 -3
BITMAP
0000
0000
0000
0000
0000
3600
4900
0900
3E00
4800
4900
3700
0000
0000
0000
ENDCHAR
STARTCHAR uni04D6
ENCODING 1238
SWIDTH 576 0
DWIDTH 9 0
BBX 9 15 0 -3
BITMAP
0000
2200
1C00
0000
7F00
2000
2000
3C00
2000
2000
2000
7F00
0000
0000
0000
ENDCHAR
STARTCHAR uni04D7
ENCODING 1239
SWIDTH 576 0
DWIDTH 9 0
BBX 9 15 0 -3
BITMAP
0000
0000
2200
1C00
0000
3E00
4100
4100
7F00
4000
4000
3E00
0000
0000
0000
ENDCHAR
STARTCHAR uni04D8
ENCODING 1240
SWIDTH 576 0
DWIDTH 9 0
BBX 9 15 0 -3
BITMAP
0000
0000
3E00
0100
0100
0100
0100
7F00
4100
4100
4100
3E00
0000
0000
0000
ENDCHAR
STARTCHAR afii10846
ENCODING 1241
SWIDTH 576 0
DWIDTH 9 0
BBX 9 15 0 -3
BITMAP
0000
0000
0000
0000
0000
3E00
0100
0100
7F00
4100
4100
3E00
0000
0000
0000
ENDCHAR
STARTCHAR uni04DA
ENCODING 1242
SWIDTH 576 0
DWIDTH 9 0
BBX 9 15 0 -3
BITMAP
0000
2200
2200
0000
3E00
0100
0100
7F00
4100
4100
4100
3E00
0000
0000
0000
ENDCHAR
STARTCHAR uni04DB
ENCODING 1243
SWIDTH 576 0
DWIDTH 9 0
BBX 9 15 0 -3
BITMAP
0000
0000
2200
2200
0000
3E00
0100
0100
7F00
4100
4100
3E00
0000
0000
0000
ENDCHAR
STARTCHAR uni04DC
ENCODING 1244
SWIDTH 576 0
DWIDTH 9 0
BBX 9 15 0 -3
BITMAP
0000
2200
2200
0000
4900
4900
2A00
1C00
2A00
2A00
4900
4900
0000
0000
0000
ENDCHAR
STARTCHAR uni04DD
ENCODING 1245
SWIDTH 576 0
DWIDTH 9 0
BBX 9 15 0 -3
BITMAP
0000
0000
2200
2200
0000
4900
4900
2A00
1C00
2A00
4900
4900
0000
0000
0000
ENDCHAR
STARTCHAR uni04DE
ENCODING 1246
SWIDTH 576 0
DWIDTH 9 0
BBX 9 15 0 -3
BITMAP
0000
2200
2200
0000
3E00
4100
0100
0100
0E00
0100
4100
3E00
0000
0000
0000
ENDCHAR
STARTCHAR uni04DF
ENCODING 1247
SWIDTH 576 0
DWIDTH 9 0
BBX 9 15 0 -3
BITMAP
0000
0000
2200
2200
0000
3E00
4100
0100
0E00
0100
4100
3E00
0000
0000
0000
ENDCHAR
STARTCHAR uni04E0
ENCODING 1248
SWIDTH 576 0
DWIDTH 9 0
BBX 9 15 0 -3
BITMAP
0000
0000
0000
7F00
0100
0200
0400
0E00
0100
0100
4100
3E00
0000
0000
0000
ENDCHAR
STARTCHAR uni04E1
ENCODING 1249
SWIDTH 576 0
DWIDTH 9 0
BBX 9 15 0 -3
BITMAP
0000
0000
0000
0000
0000
7F00
0200
0400
0800
1E00
0100
0100
4100
3E00
0000
ENDCHAR
STARTCHAR uni04E2
ENCODING 1250
SWIDTH 576 0
DWIDTH 9 0
BBX 9 15 0 -3
BITMAP
0000
3E00
0000
4100
4100
4300
4500
4900
5100
6100
4100
4100
0000
0000
0000
ENDCHAR
STARTCHAR uni04E3
ENCODING 1251
SWIDTH 576 0
DWIDTH 9 0
BBX 9 15 0 -3
BITMAP
0000
0000
0000
3E00
0000
4100
4300
4500
4900
5100
6100
4100
0000
0000
0000
ENDCHAR
STARTCHAR uni04E4
ENCODING 1252
SWIDTH 576 0
DWIDTH 9 0
BBX 9 15 0 -3
BITMAP
0000
2200
2200
0000
4100
4300
4500
4900
5100
6100
4100
4100
0000
0000
0000
ENDCHAR
STARTCHAR uni04E5
ENCODING 1253
SWIDTH 576 0
DWIDTH 9 0
BBX 9 15 0 -3
BITMAP
0000
0000
2200
2200
0000
4100
4300
4500
4900
5100
6100
4100
0000
0000
0000
ENDCHAR
STARTCHAR uni04E6
ENCODING 1254
SWIDTH 576 0
DWIDTH 9 0
BBX 9 15 0 -3
BITMAP
0000
2200
2200
0000
3E00
4100
4100
4100
4100
4100
4100
3E00
0000
0000
0000
ENDCHAR
STARTCHAR uni04E7
ENCODING 1255
SWIDTH 576 0
DWIDTH 9 0
BBX 9 15 0 -3
BITMAP
0000
0000
2200
2200
0000
3E00
4100
4100
4100
4100
4100
3E00
0000
0000
0000
ENDCHAR
STARTCHAR uni04E8
ENCODING 1256
SWIDTH 576 0
DWIDTH 9 0
BBX 9 15 0 -3
BITMAP
0000
0000
3E00
4100
4100
5100
6B00
4500
4100
4100
4100
3E00
0000
0000
0000
ENDCHAR
STARTCHAR uni04E9
ENCODING 1257
SWIDTH 576 0
DWIDTH 9 0
BBX 9 15 0 -3
BITMAP
0000
0000
0000
0000
0000
3E00
4100
5100
6B00
4500
4100
3E00
0000
0000
0000
ENDCHAR
STARTCHAR uni04EA
ENCODING 1258
SWIDTH 576 0
DWIDTH 9 0
BBX 9 15 0 -3
BITMAP
0000
2200
2200
0000
3E00
4100
5100
6B00
4500
4100
4100
3E00
0000
0000
0000
ENDCHAR
STARTCHAR uni04EB
ENCODING 1259
SWIDTH 576 0
DWIDTH 9 0
BBX 9 15 0 -3
BITMAP
0000
0000
2200
2200
0000
3E00
4100
5100
6B00
4500
4100
3E00
0000
0000
0000
ENDCHAR
STARTCHAR uni04EC
ENCODING 1260
SWIDTH 576 0
DWIDTH 9 0
BBX 9 15 0 -3
BITMAP
1400
1400
0000
3C00
4200
0100
0100
0F00
0100
0100
4200
3C00
0000
0000
0000
ENDCHAR
STARTCHAR uni04ED
ENCODING 1261
SWIDTH 576 0
DWIDTH 9 0
BBX 9 15 0 -3
BITMAP
0000
0000
1400
1400
0000
3E00
4100
0100
0F00
0100
4100
3E00
0000
0000
0000
ENDCHAR
STARTCHAR uni04EE
ENCODING 1262
SWIDTH 576 0
DWIDTH 9 0
BBX 9 15 0 -3
BITMAP
0000
3E00
0000
4100
4100
4100
4100
4300
3D00
0100
4100
3E00
0000
0000
0000
ENDCHAR
STARTCHAR uni04EF
ENCODING 1263
SWIDTH 576 0
DWIDTH 9 0
BBX 9 15 0 -3
BITMAP
0000
0000
0000
3E00
0000
4100
4100
4100
4100
4100
4300
3D00
0100
4100
3E00
ENDCHAR
STARTCHAR uni04F0
ENCODING 1264
SWIDTH 576 0
DWIDTH 9 0
BBX 9 15 0 -3
BITMAP
0000
2200
2200
0000
4100
4100
4100
4300
3D00
0100
4100
3E00
0000
0000
0000
ENDCHAR
STARTCHAR uni04F1
ENCODING 1265
SWIDTH 576 0
DWIDTH 9 0
BBX 9 15 0 -3
BITMAP
0000
0000
2200
2200
0000
4100
4100
4100
4100
4100
4300
3D00
0100
4100
3E00
ENDCHAR
STARTCHAR uni04F2
ENCODING 1266
SWIDTH 576 0
DWIDTH 9 0
BBX 9 15 0 -3
BITMAP
0000
1200
2400
0000
4100
4100
4100
4300
3D00
0100
4100
3E00
0000
0000
0000
ENDCHAR
STARTCHAR uni04F3
ENCODING 1267
SWIDTH 576 0
DWIDTH 9 0
BBX 9 15 0 -3
BITMAP
0000
0000
1200
2400
0000
4100
4100
4100
4100
4100
4300
3D00
0100
4100
3E00
ENDCHAR
STARTCHAR uni04F4
ENCODING 1268
SWIDTH 576 0
DWIDTH 9 0
BBX 9 15 0 -3
BITMAP
0000
2200
2200
0000
4100
4100
4100
4100
3F00
0100
0100
0100
0000
0000
0000
ENDCHAR
STARTCHAR uni04F5
ENCODING 1269
SWIDTH 576 0
DWIDTH 9 0
BBX 9 15 0 -3
BITMAP
0000
0000
2200
2200
0000
4100
4100
4100
3F00
0100
0100
0100
0000
0000
0000
ENDCHAR
STARTCHAR uni04F8
ENCODING 1272
SWIDTH 576 0
DWIDTH 9 0
BBX 9 15 0 -3
BITMAP
0000
2200
2200
0000
4100
4100
4100
7900
4500
4500
4500
7900
0000
0000
0000
ENDCHAR
STARTCHAR uni04F9
ENCODING 1273
SWIDTH 576 0
DWIDTH 9 0
BBX 9 15 0 -3
BITMAP
0000
0000
2200
2200
0000
4100
4100
4100
7900
4500
4500
7900
0000
0000
0000
ENDCHAR
STARTCHAR uni0500
ENCODING 1280
SWIDTH 576 0
DWIDTH 9 0
BBX 9 15 0 -3
BITMAP
0000
0000
0100
0100
0100
7F00
8100
8100
8100
8100
8100
7F00
0000
0000
0000
ENDCHAR
STARTCHAR uni0501
ENCODING 1281
SWIDTH 576 0
DWIDTH 9 0
BBX 9 15 0 -3
BITMAP
0000
0000
0100
0100
0100
3D00
4300
4100
4100
4100
4300
3D00
0000
0000
0000
ENDCHAR
STARTCHAR uni0502
ENCODING 1282
SWIDTH 576 0
DWIDTH 9 0
BBX 9 15 0 -3
BITMAP
0000
0000
0400
0400
0400
7C00
8400
8500
8500
8500
8500
7E00
0000
0000
0000
ENDCHAR
STARTCHAR uni0503
ENCODING 1283
SWIDTH 576 0
DWIDTH 9 0
BBX 9 15 0 -3
BITMAP
0000
0000
0400
0400
0400
3400
4C00
4400
4500
4500
4D00
3200
0000
0000
0000
ENDCHAR
STARTCHAR uni0504
ENCODING 1284
SWIDTH 576 0
DWIDTH 9 0
BBX 9 15 0 -3
BITMAP
0000
0000
3800
4400
0400
0400
1800
0500
0500
0500
0500
0200
0000
0000
0000
ENDCHAR
STARTCHAR uni0505
ENCODING 1285
SWIDTH 576 0
DWIDTH 9 0
BBX 9 15 0 -3
BITMAP
0000
0000
0000
0000
0000
3800
4400
0400
1800
0500
0500
0200
0000
0000
0000
ENDCHAR
STARTCHAR uni0506
ENCODING 1286
SWIDTH 576 0
DWIDTH 9 0
BBX 9 15 0 -3
BITMAP
0000
0000
3800
4400
0400
0400
1800
0400
0400
0400
0400
0600
0200
0200
0000
ENDCHAR
STARTCHAR uni0507
ENCODING 1287
SWIDTH 576 0
DWIDTH 9 0
BBX 9 15 0 -3
BITMAP
0000
0000
0000
0000
0000
3800
4400
0400
1800
0400
0400
0600
0200
0200
0000
ENDCHAR
STARTCHAR uni0508
ENCODING 1288
SWIDTH 576 0
DWIDTH 9 0
BBX 9 15 0 -3
BITMAP
0000
0000
3C00
2400
2400
2400
2400
2500
2500
2500
2500
4200
0000
0000
0000
ENDCHAR
STARTCHAR uni0509
ENCODING 1289
SWIDTH 576 0
DWIDTH 9 0
BBX 9 15 0 -3
BITMAP
0000
0000
0000
0000
0000
3C00
2400
2400
2400
2500
2500
4200
0000
0000
0000
ENDCHAR
STARTCHAR uni050A
ENCODING 1290
SWIDTH 576 0
DWIDTH 9 0
BBX 9 15 0 -3
BITMAP
0000
0000
4400
4400
4400
4400
7C00
4500
4500
4500
4500
4200
0000
0000
0000
ENDCHAR
STARTCHAR uni050B
ENCODING 1291
SWIDTH 576 0
DWIDTH 9 0
BBX 9 15 0 -3
BITMAP
0000
0000
0000
0000
0000
4400
4400
4400
7C00
4500
4500
4200
0000
0000
0000
ENDCHAR
STARTCHAR uni050C
ENCODING 1292
SWIDTH 576 0
DWIDTH 9 0
BBX 9 15 0 -3
BITMAP
0000
0000
3E00
4100
4000
4000
4000
4700
4100
4100
4100
3E00
0000
0000
0000
ENDCHAR
STARTCHAR uni050D
ENCODING 1293
SWIDTH 576 0
DWIDTH 9 0
BBX 9 15 0 -3
BITMAP
0000
0000
0000
0000
0000
3E00
4100
4000
4700
4100
4100
3E00
0000
0000
0000
ENDCHAR
STARTCHAR uni050E
ENCODING 1294
SWIDTH 576 0
DWIDTH 9 0
BBX 9 15 0 -3
BITMAP
0000
0000
7F00
0800
0800
0800
0800
0A00
0A00
0A00
0A00
0400
0000
0000
0000
ENDCHAR
STARTCHAR uni050F
ENCODING 1295
SWIDTH 576 0
DWIDTH 9 0
BBX 9 15 0 -3
BITMAP
0000
0000
0000
0000
0000
7F00
0800
0800
0800
0A00
0A00
0400
0000
0000
0000
ENDCHAR
STARTCHAR uni0531
ENCODING 1329
SWIDTH 576 0
DWIDTH 9 0
BBX 9 15 0 -3
BITMAP
0000
0000
8400
8400
8400
8400
8400
8400
8400
8E00
8500
7900
0000
0000
0000
ENDCHAR
STARTCHAR uni0532
ENCODING 1330
SWIDTH 576 0
DWIDTH 9 0
BBX 9 15 0 -3
BITMAP
0000
0000
1C00
2200
4100
4100
4000
4000
7E00
4100
4000
4000
0000
0000
0000
ENDCHAR
STARTCHAR uni0533
ENCODING 1331
SWIDTH 576 0
DWIDTH 9 0
BBX 9 15 0 -3
BITMAP
0000
0000
7800
8400
8400
8400
8400
7E00
0500
0400
0400
0400
0000
0000
0000
ENDCHAR
STARTCHAR uni0534
ENCODING 1332
SWIDTH 576 0
DWIDTH 9 0
BBX 9 15 0 -3
BITMAP
0000
0000
7800
8400
8400
8400
0600
0500
0400
0400
0400
0400
0000
0000
0000
ENDCHAR
STARTCHAR uni0535
ENCODING 1333
SWIDTH 576 0
DWIDTH 9 0
BBX 9 15 0 -3
BITMAP
0000
0000
4000
4000
4000
7E00
4100
4000
4000
4100
4100
3E00
0000
0000
0000
ENDCHAR
STARTCHAR uni0536
ENCODING 1334
SWIDTH 576 0
DWIDTH 9 0
BBX 9 15 0 -3
BITMAP
0000
0000
3E00
4100
4100
4100
4100
3E00
0400
4800
7C00
4300
0000
0000
0000
ENDCHAR
STARTCHAR uni0537
ENCODING 1335
SWIDTH 576 0
DWIDTH 9 0
BBX 9 15 0 -3
BITMAP
0000
0000
4000
4000
4000
4000
7E00
4100
4000
4000
4000
7E00
0100
0000
0000
ENDCHAR
STARTCHAR uni0538
ENCODING 1336
SWIDTH 576 0
DWIDTH 9 0
BBX 9 15 0 -3
BITMAP
0000
0000
1C00
2200
4100
4100
4000
4000
4000
4000
4000
7E00
0100
0000
0000
ENDCHAR
STARTCHAR uni0539
ENCODING 1337
SWIDTH 576 0
DWIDTH 9 0
BBX 9 15 0 -3
BITMAP
0000
0000
7800
8400
8400
8400
9E00
A500
A400
A400
A400
9800
0000
0000
0000
ENDCHAR
STARTCHAR uni053A
ENCODING 1338
SWIDTH 576 0
DWIDTH 9 0
BBX 9 15 0 -3
BITMAP
0000
0000
0400
0400
0400
0400
7E00
8500
8400
8400
8400
7800
0000
0000
0000
ENDCHAR
STARTCHAR uni053B
ENCODING 1339
SWIDTH 576 0
DWIDTH 9 0
BBX 9 15 0 -3
BITMAP
0000
0000
4000
4000
4000
5E00
6100
4100
4100
4000
4000
4000
0000
0000
0000
ENDCHAR
STARTCHAR uni053C
ENCODING 1340
SWIDTH 576 0
DWIDTH 9 0
BBX 9 15 0 -3
BITMAP
0000
0000
4000
4000
4000
4000
4000
4000
4000
4000
4000
7E00
0100
0200
0000
ENDCHAR
STARTCHAR uni053D
ENCODING 1341
SWIDTH 576 0
DWIDTH 9 0
BBX 9 15 0 -3
BITMAP
0000
0000
8000
8000
8000
F100
9100
9100
9100
9100
9100
8E00
0000
0000
0000
ENDCHAR
STARTCHAR uni053E
ENCODING 1342
SWIDTH 576 0
DWIDTH 9 0
BBX 9 15 0 -3
BITMAP
0000
8000
C600
3900
4400
8200
8200
8200
8200
8200
4400
3800
0000
0000
0000
ENDCHAR
STARTCHAR uni053F
ENCODING 1343
SWIDTH 576 0
DWIDTH 9 0
BBX 9 15 0 -3
BITMAP
0000
0000
4000
4000
4100
4100
4100
4300
3D00
0100
0100
0100
0000
0000
0000
ENDCHAR
STARTCHAR uni0540
ENCODING 1344
SWIDTH 576 0
DWIDTH 9 0
BBX 9 15 0 -3
BITMAP
0000
0000
0800
1000
1800
0800
1000
2000
4000
6000
1800
0600
0000
0000
0000
ENDCHAR
STARTCHAR uni0541
ENCODING 1345
SWIDTH 576 0
DWIDTH 9 0
BBX 9 15 0 -3
BITMAP
0000
0000
1C00
2200
4100
4100
4100
0100
0100
3E00
4200
3D00
0000
0000
0000
ENDCHAR
STARTCHAR uni0542
ENCODING 1346
SWIDTH 576 0
DWIDTH 9 0
BBX 9 15 0 -3
BITMAP
0000
0000
7800
8400
8400
8400
0400
0400
0400
0400
0400
0600
0100
0000
0000
ENDCHAR
STARTCHAR uni0543
ENCODING 1347
SWIDTH 576 0
DWIDTH 9 0
BBX 9 15 0 -3
BITMAP
0000
0000
0600
C900
3000
1000
2800
4400
4400
8200
8200
FE00
0000
0000
0000
ENDCHAR
STARTCHAR uni0544
ENCODING 1348
SWIDTH 576 0
DWIDTH 9 0
BBX 9 15 0 -3
BITMAP
0000
0000
8600
8500
8500
8400
8400
8400
8400
8400
8400
7800
0000
0000
0000
ENDCHAR
STARTCHAR uni0545
ENCODING 1349
SWIDTH 576 0
DWIDTH 9 0
BBX 9 15 0 -3
BITMAP
0000
0000
1C00
2200
0200
3C00
4200
0100
0100
4100
4200
3C00
0000
0000
0000
ENDCHAR
STARTCHAR uni0546
ENCODING 1350
SWIDTH 576 0
DWIDTH 9 0
BBX 9 15 0 -3
BITMAP
0000
0000
E000
2000
2000
2000
2000
2000
2100
2100
2100
1E00
0000
0000
0000
ENDCHAR
STARTCHAR uni0547
ENCODING 1351
SWIDTH 576 0
DWIDTH 9 0
BBX 9 15 0 -3
BITMAP
0000
0000
6000
1800
2600
4000
4000
4000
4100
4100
2200
1C00
0000
0000
0000
ENDCHAR
STARTCHAR uni0548
ENCODING 1352
SWIDTH 576 0
DWIDTH 9 0
BBX 9 15 0 -3
BITMAP
0000
0000
1C00
2200
4100
4100
4100
4100
4100
4100
4100
4100
0000
0000
0000
ENDCHAR
STARTCHAR uni0549
ENCODING 1353
SWIDTH 576 0
DWIDTH 9 0
BBX 9 15 0 -3
BITMAP
0000
0000
1C00
2200
4100
4100
0100
0100
0200
6400
1800
0700
0000
0000
0000
ENDCHAR
STARTCHAR uni054A
ENCODING 1354
SWIDTH 576 0
DWIDTH 9 0
BBX 9 15 0 -3
BITMAP
0000
0000
3E00
4900
4900
4900
0900
0900
0100
0100
0100
0100
0000
0000
0000
ENDCHAR
STARTCHAR uni054B
ENCODING 1355
SWIDTH 576 0
DWIDTH 9 0
BBX 9 15 0 -3
BITMAP
0000
0000
3C00
4200
4100
2100
1100
0A00
0C00
4800
7C00
2300
0000
0000
0000
ENDCHAR
STARTCHAR uni054C
ENCODING 1356
SWIDTH 576 0
DWIDTH 9 0
BBX 9 15 0 -3
BITMAP
0000
0000
7800
8400
8400
8400
8600
8500
8500
8400
8400
8400
0000
0000
0000
ENDCHAR
STARTCHAR uni054D
ENCODING 1357
SWIDTH 576 0
DWIDTH 9 0
BBX 9 15 0 -3
BITMAP
0000
0000
4100
4100
4100
4100
4100
4100
4100
4100
2200
1C00
0000
0000
0000
ENDCHAR
STARTCHAR uni054E
ENCODING 1358
SWIDTH 576 0
DWIDTH 9 0
BBX 9 15 0 -3
BITMAP
0000
0000
0400
0400
8400
8400
8400
8400
7C00
0400
0400
0600
0100
0100
0000
ENDCHAR
STARTCHAR uni054F
ENCODING 1359
SWIDTH 576 0
DWIDTH 9 0
BBX 9 15 0 -3
BITMAP
0000
0000
3E00
4100
4000
4000
3E00
0100
0100
0100
4100
3E00
0000
0000
0000
ENDCHAR
STARTCHAR uni0550
ENCODING 1360
SWIDTH 576 0
DWIDTH 9 0
BBX 9 15 0 -3
BITMAP
0000
0000
1C00
2200
4100
4100
4000
4000
4000
4000
4000
4000
0000
0000
0000
ENDCHAR
STARTCHAR uni0551
ENCODING 1361
SWIDTH 576 0
DWIDTH 9 0
BBX 9 15 0 -3
BITMAP
0000
0000
1C00
2200
2200
1C00
6200
0100
0100
4100
4100
3E00
0000
0000
0000
ENDCHAR
STARTCHAR uni0552
ENCODING 1362
SWIDTH 576 0
DWIDTH 9 0
BBX 9 15 0 -3
BITMAP
0000
0000
2000
2000
2000
3C00
2200
2000
2000
2000
2000
2000
0000
0000
0000
ENDCHAR
STARTCHAR uni0553
ENCODING 1363
SWIDTH 576 0
DWIDTH 9 0
BBX 9 15 0 -3
BITMAP
0000
0000
0800
1C00
2A00
4900
4900
4900
4900
2A00
1C00
0800
0000
0000
0000
ENDCHAR
STARTCHAR uni0554
ENCODING 1364
SWIDTH 576 0
DWIDTH 9 0
BBX 9 15 0 -3
BITMAP
0000
0000
1E00
2100
2100
2100
2100
2100
3E00
A000
7C00
2200
0000
0000
0000
ENDCHAR
STARTCHAR uni0555
ENCODING 1365
SWIDTH 576 0
DWIDTH 9 0
BBX 9 15 0 -3
BITMAP
0000
0000
3C00
4200
8100
8100
8100
8100
8100
8100
4200
3C00
0000
0000
0000
ENDCHAR
STARTCHAR uni0556
ENCODING 1366
SWIDTH 576 0
DWIDTH 9 0
BBX 9 15 0 -3
BITMAP
0000
0000
3800
4800
4800
4800
3E00
0900
0900
4900
4900
3E00
0000
0000
0000
ENDCHAR
STARTCHAR uni0559
ENCODING 1369
SWIDTH 576 0
DWIDTH 9 0
BBX 9 15 0 -3
BITMAP
0800
1000
1000
0800
0000
0000
0000
0000
0000
0000
0000
0000
0000
0000
0000
ENDCHAR
STARTCHAR uni055A
ENCODING 1370
SWIDTH 576 0
DWIDTH 9 0
BBX 9 15 0 -3
BITMAP
0000
0000
1800
1800
0800
1000
0000
0000
0000
0000
0000
0000
0000
0000
0000
ENDCHAR
STARTCHAR uni055B
ENCODING 1371
SWIDTH 576 0
DWIDTH 9 0
BBX 9 15 0 -3
BITMAP
0000
0000
0400
0800
1000
0000
0000
0000
0000
0000
0000
0000
0000
0000
0000
ENDCHAR
STARTCHAR uni055C
ENCODING 1372
SWIDTH 576 0
DWIDTH 9 0
BBX 9 15 0 -3
BITMAP
0000
0000
0400
1800
2000
0000
0000
0000
0000
0000
0000
0000
0000
0000
0000
ENDCHAR
STARTCHAR uni055D
ENCODING 1373
SWIDTH 576 0
DWIDTH 9 0
BBX 9 15 0 -3
BITMAP
0000
0000
1000
1000
0800
0000
0000
0000
0000
0000
0000
0000
0000
0000
0000
ENDCHAR
STARTCHAR uni055E
ENCODING 1374
SWIDTH 576 0
DWIDTH 9 0
BBX 9 15 0 -3
BITMAP
0000
0000
1C00
2200
2A00
2400
0000
0000
0000
0000
0000
0000
0000
0000
0000
ENDCHAR
STARTCHAR uni055F
ENCODING 1375
SWIDTH 576 0
DWIDTH 9 0
BBX 9 15 0 -3
BITMAP
0000
0000
3000
2200
1C00
0000
0000
0000
0000
0000
0000
0000
0000
0000
0000
ENDCHAR
STARTCHAR uni0561
ENCODING 1377
SWIDTH 576 0
DWIDTH 9 0
BBX 9 15 0 -3
BITMAP
0000
0000
0000
0000
0000
4900
4900
4900
4900
4900
4900
3700
0000
0000
0000
ENDCHAR
STARTCHAR uni0562
ENCODING 1378
SWIDTH 576 0
DWIDTH 9 0
BBX 9 15 0 -3
BITMAP
0000
0000
0000
0000
0000
3C00
4200
4200
4200
4200
4000
7E00
4000
4000
4000
ENDCHAR
STARTCHAR uni0563
ENCODING 1379
SWIDTH 576 0
DWIDTH 9 0
BBX 9 15 0 -3
BITMAP
0000
0000
0000
0000
0000
3400
4C00
4400
4400
4400
4400
3F00
0400
0400
0400
ENDCHAR
STARTCHAR uni0564
ENCODING 1380
SWIDTH 576 0
DWIDTH 9 0
BBX 9 15 0 -3
BITMAP
0000
0000
0000
0000
0000
5800
6400
4400
4400
4400
4400
4700
0400
0400
0400
ENDCHAR
STARTCHAR uni0565
ENCODING 1381
SWIDTH 576 0
DWIDTH 9 0
BBX 9 15 0 -3
BITMAP
0000
0000
4000
4000
4000
7E00
4000
4200
4200
4200
4200
3D00
0000
0000
0000
ENDCHAR
STARTCHAR uni0566
ENCODING 1382
SWIDTH 576 0
DWIDTH 9 0
BBX 9 15 0 -3
BITMAP
0000
0000
0000
0000
0000
3400
4C00
4400
4400
4400
4C00
3400
0400
0400
0700
ENDCHAR
STARTCHAR uni0567
ENCODING 1383
SWIDTH 576 0
DWIDTH 9 0
BBX 9 15 0 -3
BITMAP
0000
0000
4000
4000
4000
7C00
4000
4000
4000
4000
4000
3E00
0100
0200
0000
ENDCHAR
STARTCHAR uni0568
ENCODING 1384
SWIDTH 576 0
DWIDTH 9 0
BBX 9 15 0 -3
BITMAP
0000
0000
0000
0000
0000
5C00
6200
4200
4200
4200
4200
4200
4000
4000
7E00
ENDCHAR
STARTCHAR uni0569
ENCODING 1385
SWIDTH 576 0
DWIDTH 9 0
BBX 9 15 0 -3
BITMAP
0000
0000
0000
0000
0000
5C00
6200
4200
4F00
5200
5200
4C00
4000
4000
4000
ENDCHAR
STARTCHAR uni056A
ENCODING 1386
SWIDTH 576 0
DWIDTH 9 0
BBX 9 15 0 -3
BITMAP
0000
0000
0400
0400
0400
3F00
4400
4400
4400
4400
4400
3800
0000
0000
0000
ENDCHAR
STARTCHAR uni056B
ENCODING 1387
SWIDTH 576 0
DWIDTH 9 0
BBX 9 15 0 -3
BITMAP
0000
0000
4000
4000
4000
5C00
6200
4200
4200
4200
4200
4200
4000
4000
4000
ENDCHAR
STARTCHAR uni056C
ENCODING 1388
SWIDTH 576 0
DWIDTH 9 0
BBX 9 15 0 -3
BITMAP
0000
0000
0000
0000
0000
3000
1000
1000
1000
1000
1000
1000
1000
1000
0E00
ENDCHAR
STARTCHAR uni056D
ENCODING 1389
SWIDTH 576 0
DWIDTH 9 0
BBX 9 15 0 -3
BITMAP
0000
0000
8000
8000
8000
8000
E200
9200
9200
9200
9200
8D00
8000
8000
8000
ENDCHAR
STARTCHAR uni056E
ENCODING 1390
SWIDTH 576 0
DWIDTH 9 0
BBX 9 15 0 -3
BITMAP
0000
0000
4000
2000
1000
1F00
2400
4200
4200
4200
4200
3C00
0000
0000
0000
ENDCHAR
STARTCHAR uni056F
ENCODING 1391
SWIDTH 576 0
DWIDTH 9 0
BBX 9 15 0 -3
BITMAP
0000
0000
4000
4000
4000
4000
4200
4200
4200
4200
4600
3A00
0200
0200
0200
ENDCHAR
STARTCHAR uni0570
ENCODING 1392
SWIDTH 576 0
DWIDTH 9 0
BBX 9 15 0 -3
BITMAP
0000
0000
4000
4000
4000
5C00
6200
4200
4200
4200
4200
4200
0000
0000
0000
ENDCHAR
STARTCHAR uni0571
ENCODING 1393
SWIDTH 576 0
DWIDTH 9 0
BBX 9 15 0 -3
BITMAP
0000
0000
0800
1000
0800
3C00
4200
4200
4200
4200
4600
3A00
0000
0000
0000
ENDCHAR
STARTCHAR uni0572
ENCODING 1394
SWIDTH 576 0
DWIDTH 9 0
BBX 9 15 0 -3
BITMAP
0000
0000
0000
0000
0000
5C00
6200
4200
4200
4200
4200
4200
0200
0200
0300
ENDCHAR
STARTCHAR uni0573
ENCODING 1395
SWIDTH 576 0
DWIDTH 9 0
BBX 9 15 0 -3
BITMAP
0000
0000
1C00
2200
2000
7C00
2200
2200
2200
2200
2200
3D00
0000
0000
0000
ENDCHAR
STARTCHAR uni0574
ENCODING 1396
SWIDTH 576 0
DWIDTH 9 0
BBX 9 15 0 -3
BITMAP
0000
0000
0600
0900
0800
4400
4400
4400
4400
4400
4400
3A00
0000
0000
0000
ENDCHAR
STARTCHAR uni0575
ENCODING 1397
SWIDTH 576 0
DWIDTH 9 0
BBX 9 15 0 -3
BITMAP
0000
0000
0000
0000
0000
0C00
0400
0400
0400
0400
0400
0400
0400
0400
3800
ENDCHAR
STARTCHAR uni0576
ENCODING 1398
SWIDTH 576 0
DWIDTH 9 0
BBX 9 15 0 -3
BITMAP
0000
0000
3000
4000
4000
2200
2200
2200
2200
2200
2200
1D00
0000
0000
0000
ENDCHAR
STARTCHAR uni0577
ENCODING 1399
SWIDTH 576 0
DWIDTH 9 0
BBX 9 15 0 -3
BITMAP
0000
0000
0000
0000
3C00
4200
0200
0200
0400
0800
1000
2000
4000
4000
3E00
ENDCHAR
STARTCHAR uni0578
ENCODING 1400
SWIDTH 576 0
DWIDTH 9 0
BBX 9 15 0 -3
BITMAP
0000
0000
0000
0000
0000
5C00
6200
4200
4200
4200
4200
4200
0000
0000
0000
ENDCHAR
STARTCHAR uni0579
ENCODING 1401
SWIDTH 576 0
DWIDTH 9 0
BBX 9 15 0 -3
BITMAP
0000
0000
0000
0000
0800
1000
1000
0800
0400
0800
1000
2000
4000
4000
3F00
ENDCHAR
STARTCHAR uni057A
ENCODING 1402
SWIDTH 576 0
DWIDTH 9 0
BBX 9 15 0 -3
BITMAP
0000
0000
0000
0000
0000
4900
4900
4900
4900
4900
4900
3700
0100
0100
0100
ENDCHAR
STARTCHAR uni057B
ENCODING 1403
SWIDTH 576 0
DWIDTH 9 0
BBX 9 15 0 -3
BITMAP
0000
0000
0000
0000
3C00
4200
4200
4200
2200
1400
0800
1000
2000
2000
1F00
ENDCHAR
STARTCHAR uni057C
ENCODING 1404
SWIDTH 576 0
DWIDTH 9 0
BBX 9 15 0 -3
BITMAP
0000
0000
0000
0000
0000
5E00
6100
4100
4100
4200
4400
4E00
0000
0000
0000
ENDCHAR
STARTCHAR uni057D
ENCODING 1405
SWIDTH 576 0
DWIDTH 9 0
BBX 9 15 0 -3
BITMAP
0000
0000
0000
0000
0000
4200
4200
4200
4200
4200
4600
3A00
0000
0000
0000
ENDCHAR
STARTCHAR uni057E
ENCODING 1406
SWIDTH 576 0
DWIDTH 9 0
BBX 9 15 0 -3
BITMAP
0000
0000
0200
0200
0200
0200
4200
4200
4200
4200
4600
3A00
0200
0200
0300
ENDCHAR
STARTCHAR uni057F
ENCODING 1407
SWIDTH 576 0
DWIDTH 9 0
BBX 9 15 0 -3
BITMAP
0000
0000
0000
0000
0000
4A00
4D00
4900
4900
4900
5900
2900
0800
0800
0800
ENDCHAR
STARTCHAR uni0580
ENCODING 1408
SWIDTH 576 0
DWIDTH 9 0
BBX 9 15 0 -3
BITMAP
0000
0000
0000
0000
0000
5C00
6200
4200
4200
4200
4200
4200
4000
4000
4000
ENDCHAR
STARTCHAR uni0581
ENCODING 1409
SWIDTH 576 0
DWIDTH 9 0
BBX 9 15 0 -3
BITMAP
0000
0000
0000
0000
0000
3C00
4200
4200
4200
4200
3E00
0200
4200
4200
3C00
ENDCHAR
STARTCHAR uni0582
ENCODING 1410
SWIDTH 576 0
DWIDTH 9 0
BBX 9 15 0 -3
BITMAP
0000
0000
0000
0000
0000
3000
1000
1000
1000
1000
1000
0E00
0000
0000
0000
ENDCHAR
STARTCHAR uni0583
ENCODING 1411
SWIDTH 576 0
DWIDTH 9 0
BBX 9 15 0 -3
BITMAP
0000
0000
0800
0800
0800
4A00
4D00
4900
4900
4900
5900
2900
0800
0800
0800
ENDCHAR
STARTCHAR uni0584
ENCODING 1412
SWIDTH 576 0
DWIDTH 9 0
BBX 9 15 0 -3
BITMAP
0000
0000
0E00
1100
1100
1000
1000
7C00
1000
1000
1000
1000
0000
0000
0000
ENDCHAR
STARTCHAR uni0585
ENCODING 1413
SWIDTH 576 0
DWIDTH 9 0
BBX 9 15 0 -3
BITMAP
0000
0000
0000
0000
0000
3E00
4100
4100
4100
4100
4100
3E00
0000
0000
0000
ENDCHAR
STARTCHAR uni0586
ENCODING 1414
SWIDTH 576 0
DWIDTH 9 0
BBX 9 15 0 -3
BITMAP
0000
0000
3800
4800
4800
3E00
0900
4900
4900
4900
4900
3E00
0800
0800
0800
ENDCHAR
STARTCHAR uni0587
ENCODING 1415
SWIDTH 576 0
DWIDTH 9 0
BBX 9 15 0 -3
BITMAP
0000
0000
4000
4000
4000
4400
4400
4400
4400
4400
4400
3B00
0000
0000
0000
ENDCHAR
STARTCHAR uni0589
ENCODING 1417
SWIDTH 576 0
DWIDTH 9 0
BBX 9 15 0 -3
BITMAP
0000
0000
0000
0000
1000
3800
1000
0000
1000
3800
1000
0000
0000
0000
0000
ENDCHAR
STARTCHAR uni058A
ENCODING 1418
SWIDTH 576 0
DWIDTH 9 0
BBX 9 15 0 -3
BITMAP
0000
0000
0000
0000
0000
3000
2200
1C00
0000
0000
0000
0000
0000
0000
0000
ENDCHAR
STARTCHAR afii57799
ENCODING 1456
SWIDTH 576 0
DWIDTH 9 0
BBX 9 15 0 -3
BITMAP
0000
0000
0000
0000
0000
0000
0000
0000
0000
0000
0000
0000
1800
0000
1800
ENDCHAR
STARTCHAR afii57801
ENCODING 1457
SWIDTH 576 0
DWIDTH 9 0
BBX 9 15 0 -3
BITMAP
0000
0000
0000
0000
0000
0000
0000
0000
0000
0000
0000
0000
DB00
0000
6300
ENDCHAR
STARTCHAR afii57800
ENCODING 1458
SWIDTH 576 0
DWIDTH 9 0
BBX 9 15 0 -3
BITMAP
0000
0000
0000
0000
0000
0000
0000
0000
0000
0000
0000
0000
FB00
0000
0300
ENDCHAR
STARTCHAR afii57802
ENCODING 1459
SWIDTH 576 0
DWIDTH 9 0
BBX 9 15 0 -3
BITMAP
0000
0000
0000
0000
0000
0000
0000
0000
0000
0000
0000
0000
FB00
2000
2300
ENDCHAR
STARTCHAR afii57793
ENCODING 1460
SWIDTH 576 0
DWIDTH 9 0
BBX 9 15 0 -3
BITMAP
0000
0000
0000
0000
0000
0000
0000
0000
0000
0000
0000
0000
0000
1800
0000
ENDCHAR
STARTCHAR afii57794
ENCODING 1461
SWIDTH 576 0
DWIDTH 9 0
BBX 9 15 0 -3
BITMAP
0000
0000
0000
0000
0000
0000
0000
0000
0000
0000
0000
0000
0000
6600
0000
ENDCHAR
STARTCHAR afii57795
ENCODING 1462
SWIDTH 576 0
DWIDTH 9 0
BBX 9 15 0 -3
BITMAP
0000
0000
0000
0000
0000
0000
0000
0000
0000
0000
0000
0000
6600
0000
1800
ENDCHAR
STARTCHAR afii57798
ENCODING 1463
SWIDTH 576 0
DWIDTH 9 0
BBX 9 15 0 -3
BITMAP
0000
0000
0000
0000
0000
0000
0000
0000
0000
0000
0000
0000
0000
7C00
0000
ENDCHAR
STARTCHAR afii57797
ENCODING 1464
SWIDTH 576 0
DWIDTH 9 0
BBX 9 15 0 -3
BITMAP
0000
0000
0000
0000
0000
0000
0000
0000
0000
0000
0000
0000
0000
7C00
1000
ENDCHAR
STARTCHAR afii57806
ENCODING 1465
SWIDTH 576 0
DWIDTH 9 0
BBX 9 15 0 -3
BITMAP
0000
0000
3000
0000
0000
0000
0000
0000
0000
0000
0000
0000
0000
0000
0000
ENDCHAR
STARTCHAR afii57796
ENCODING 1467
SWIDTH 576 0
DWIDTH 9 0
BBX 9 15 0 -3
BITMAP
0000
0000
0000
0000
0000
0000
0000
0000
0000
0000
0000
0000
C000
1800
0300
ENDCHAR
STARTCHAR afii57807
ENCODING 1468
SWIDTH 576 0
DWIDTH 9 0
BBX 9 15 0 -3
BITMAP
0000
0000
0000
0000
0000
0000
0000
0000
1800
0000
0000
0000
0000
0000
0000
ENDCHAR
STARTCHAR afii57839
ENCODING 1469
SWIDTH 576 0
DWIDTH 9 0
BBX 9 15 0 -3
BITMAP
0000
0000
0000
0000
0000
0000
0000
0000
0000
0000
0000
0000
4000
4000
4000
ENDCHAR
STARTCHAR afii57645
ENCODING 1470
SWIDTH 576 0
DWIDTH 9 0
BBX 9 15 0 -3
BITMAP
0000
3F00
7E00
0000
0000
0000
0000
0000
0000
0000
0000
0000
0000
0000
0000
ENDCHAR
STARTCHAR afii57841
ENCODING 1471
SWIDTH 576 0
DWIDTH 9 0
BBX 9 15 0 -3
BITMAP
0000
0000
3E00
0000
0000
0000
0000
0000
0000
0000
0000
0000
0000
0000
0000
ENDCHAR
STARTCHAR afii57842
ENCODING 1472
SWIDTH 576 0
DWIDTH 9 0
BBX 9 15 0 -3
BITMAP
0000
0000
0000
2000
2000
2000
2000
2000
2000
2000
2000
2000
0000
0000
0000
ENDCHAR
STARTCHAR afii57804
ENCODING 1473
SWIDTH 576 0
DWIDTH 9 0
BBX 9 15 0 -3
BITMAP
0000
0000
0600
0000
0000
0000
0000
0000
0000
0000
0000
0000
0000
0000
0000
ENDCHAR
STARTCHAR afii57803
ENCODING 1474
SWIDTH 576 0
DWIDTH 9 0
BBX 9 15 0 -3
BITMAP
0000
0000
C000
0000
0000
0000
0000
0000
0000
0000
0000
0000
0000
0000
0000
ENDCHAR
STARTCHAR afii57658
ENCODING 1475
SWIDTH 576 0
DWIDTH 9 0
BBX 9 15 0 -3
BITMAP
0000
0000
0000
0000
0000
1000
3800
1000
0000
1000
3800
1000
0000
0000
0000
ENDCHAR
STARTCHAR uni05C4
ENCODING 1476
SWIDTH 576 0
DWIDTH 9 0
BBX 9 15 0 -3
BITMAP
0000
0000
1800
0000
0000
0000
0000
0000
0000
0000
0000
0000
0000
0000
0000
ENDCHAR
STARTCHAR afii57664
ENCODING 1488
SWIDTH 576 0
DWIDTH 9 0
BBX 9 15 0 -3
BITMAP
0000
0000
0000
8400
C700
6300
3200
DA00
8E00
4600
6300
E100
0000
0000
0000
ENDCHAR
STARTCHAR afii57665
ENCODING 1489
SWIDTH 576 0
DWIDTH 9 0
BBX 9 15 0 -3
BITMAP
0000
0000
0000
0000
8000
FC00
7E00
0200
0200
0200
7F00
FE00
0000
0000
0000
ENDCHAR
STARTCHAR afii57666
ENCODING 1490
SWIDTH 576 0
DWIDTH 9 0
BBX 9 15 0 -3
BITMAP
0000
0000
0000
0000
2000
3800
1C00
0400
0400
0400
1E00
3A00
0000
0000
0000
ENDCHAR
STARTCHAR afii57667
ENCODING 1491
SWIDTH 576 0
DWIDTH 9 0
BBX 9 15 0 -3
BITMAP
0000
0000
0000
0000
8000
FF00
7F00
0200
0200
0200
0200
0200
0000
0000
0000
ENDCHAR
STARTCHAR afii57668
ENCODING 1492
SWIDTH 576 0
DWIDTH 9 0
BBX 9 15 0 -3
BITMAP
0000
0000
0000
0000
8000
FF00
7F00
0200
4200
4200
4200
8200
0000
0000
0000
ENDCHAR
STARTCHAR afii57669
ENCODING 1493
SWIDTH 576 0
DWIDTH 9 0
BBX 9 15 0 -3
BITMAP
0000
0000
0000
0000
2000
3800
1C00
0400
0400
0400
0400
0400
0000
0000
0000
ENDCHAR
STARTCHAR afii57670
ENCODING 1494
SWIDTH 576 0
DWIDTH 9 0
BBX 9 15 0 -3
BITMAP
0000
0000
0000
0000
2000
3C00
1E00
0800
0800
0800
0800
0800
0000
0000
0000
ENDCHAR
STARTCHAR afii57671
ENCODING 1495
SWIDTH 576 0
DWIDTH 9 0
BBX 9 15 0 -3
BITMAP
0000
0000
0000
0000
8000
FF00
7F00
4200
4200
4200
4200
8200
0000
0000
0000
ENDCHAR
STARTCHAR afii57672
ENCODING 1496
SWIDTH 576 0
DWIDTH 9 0
BBX 9 15 0 -3
BITMAP
0000
0000
0000
0000
8000
E300
7700
4500
4100
4100
7F00
7E00
0000
0000
0000
ENDCHAR
STARTCHAR afii57673
ENCODING 1497
SWIDTH 576 0
DWIDTH 9 0
BBX 9 15 0 -3
BITMAP
0000
0000
0000
0000
2000
3800
1C00
0400
0400
0000
0000
0000
0000
0000
0000
ENDCHAR
STARTCHAR afii57674
ENCODING 1498
SWIDTH 576 0
DWIDTH 9 0
BBX 9 15 0 -3
BITMAP
0000
0000
0000
0000
8000
FE00
7F00
0200
0400
0400
0400
0400
0400
0400
0400
ENDCHAR
STARTCHAR afii57675
ENCODING 1499
SWIDTH 576 0
DWIDTH 9 0
BBX 9 15 0 -3
BITMAP
0000
0000
0000
0000
8000
FE00
7F00
0100
0100
0100
7E00
FC00
0000
0000
0000
ENDCHAR
STARTCHAR afii57676
ENCODING 1500
SWIDTH 576 0
DWIDTH 9 0
BBX 9 15 0 -3
BITMAP
0000
0000
8000
4000
4000
7F00
3F00
0100
0100
0200
0400
1800
0000
0000
0000
ENDCHAR
STARTCHAR afii57677
ENCODING 1501
SWIDTH 576 0
DWIDTH 9 0
BBX 9 15 0 -3
BITMAP
0000
0000
0000
0000
8000
FE00
7F00
8100
8100
8100
FF00
FF00
0000
0000
0000
ENDCHAR
STARTCHAR afii57678
ENCODING 1502
SWIDTH 576 0
DWIDTH 9 0
BBX 9 15 0 -3
BITMAP
0000
0000
0000
0000
8000
DE00
7F00
4100
8100
8100
9F00
BE00
0000
0000
0000
ENDCHAR
ENDFONT
